G04 #@! TF.GenerationSoftware,KiCad,Pcbnew,5.1.2*
G04 #@! TF.CreationDate,2019-09-05T16:50:15+02:00*
G04 #@! TF.ProjectId,badge,62616467-652e-46b6-9963-61645f706362,rev?*
G04 #@! TF.SameCoordinates,Original*
G04 #@! TF.FileFunction,Soldermask,Top*
G04 #@! TF.FilePolarity,Negative*
%FSLAX46Y46*%
G04 Gerber Fmt 4.6, Leading zero omitted, Abs format (unit mm)*
G04 Created by KiCad (PCBNEW 5.1.2) date 2019-09-05 16:50:15*
%MOMM*%
%LPD*%
G04 APERTURE LIST*
%ADD10C,0.010000*%
%ADD11C,0.100000*%
G04 APERTURE END LIST*
D10*
G36*
X5301163Y-5798876D02*
G01*
X5327269Y-5815159D01*
X5395691Y-5873623D01*
X5418285Y-5947528D01*
X5410548Y-6051067D01*
X5359552Y-6250338D01*
X5269765Y-6374753D01*
X5140653Y-6424984D01*
X5112890Y-6426200D01*
X5001008Y-6411547D01*
X4924206Y-6376222D01*
X4923366Y-6375400D01*
X4878752Y-6276732D01*
X4884096Y-6143112D01*
X4930834Y-6000775D01*
X5010401Y-5875955D01*
X5112640Y-5795603D01*
X5210802Y-5768466D01*
X5301163Y-5798876D01*
X5301163Y-5798876D01*
G37*
X5301163Y-5798876D02*
X5327269Y-5815159D01*
X5395691Y-5873623D01*
X5418285Y-5947528D01*
X5410548Y-6051067D01*
X5359552Y-6250338D01*
X5269765Y-6374753D01*
X5140653Y-6424984D01*
X5112890Y-6426200D01*
X5001008Y-6411547D01*
X4924206Y-6376222D01*
X4923366Y-6375400D01*
X4878752Y-6276732D01*
X4884096Y-6143112D01*
X4930834Y-6000775D01*
X5010401Y-5875955D01*
X5112640Y-5795603D01*
X5210802Y-5768466D01*
X5301163Y-5798876D01*
G36*
X27234663Y-6299025D02*
G01*
X27250314Y-6319472D01*
X27300134Y-6451253D01*
X27289934Y-6599879D01*
X27226896Y-6732629D01*
X27143703Y-6805164D01*
X27069916Y-6826214D01*
X27019714Y-6777172D01*
X27013093Y-6765228D01*
X26992517Y-6656004D01*
X27011278Y-6515040D01*
X27060479Y-6380179D01*
X27123618Y-6295145D01*
X27183633Y-6263183D01*
X27234663Y-6299025D01*
X27234663Y-6299025D01*
G37*
X27234663Y-6299025D02*
X27250314Y-6319472D01*
X27300134Y-6451253D01*
X27289934Y-6599879D01*
X27226896Y-6732629D01*
X27143703Y-6805164D01*
X27069916Y-6826214D01*
X27019714Y-6777172D01*
X27013093Y-6765228D01*
X26992517Y-6656004D01*
X27011278Y-6515040D01*
X27060479Y-6380179D01*
X27123618Y-6295145D01*
X27183633Y-6263183D01*
X27234663Y-6299025D01*
G36*
X26226305Y-6326763D02*
G01*
X26268809Y-6388775D01*
X26276781Y-6500141D01*
X26241734Y-6652032D01*
X26198145Y-6755638D01*
X26129690Y-6856273D01*
X26060503Y-6872943D01*
X25985841Y-6806253D01*
X25970951Y-6784676D01*
X25926221Y-6706200D01*
X25922420Y-6642810D01*
X25960386Y-6555332D01*
X25976491Y-6525127D01*
X26071658Y-6386112D01*
X26157759Y-6322933D01*
X26226305Y-6326763D01*
X26226305Y-6326763D01*
G37*
X26226305Y-6326763D02*
X26268809Y-6388775D01*
X26276781Y-6500141D01*
X26241734Y-6652032D01*
X26198145Y-6755638D01*
X26129690Y-6856273D01*
X26060503Y-6872943D01*
X25985841Y-6806253D01*
X25970951Y-6784676D01*
X25926221Y-6706200D01*
X25922420Y-6642810D01*
X25960386Y-6555332D01*
X25976491Y-6525127D01*
X26071658Y-6386112D01*
X26157759Y-6322933D01*
X26226305Y-6326763D01*
G36*
X29710243Y-6396090D02*
G01*
X29712877Y-6398700D01*
X29752797Y-6493852D01*
X29742583Y-6631813D01*
X29686152Y-6790229D01*
X29625952Y-6894455D01*
X29533772Y-7009712D01*
X29462355Y-7047005D01*
X29404521Y-7008295D01*
X29378855Y-6961931D01*
X29347891Y-6799361D01*
X29385855Y-6628764D01*
X29485118Y-6478272D01*
X29518416Y-6447257D01*
X29607204Y-6379559D01*
X29662295Y-6364713D01*
X29710243Y-6396090D01*
X29710243Y-6396090D01*
G37*
X29710243Y-6396090D02*
X29712877Y-6398700D01*
X29752797Y-6493852D01*
X29742583Y-6631813D01*
X29686152Y-6790229D01*
X29625952Y-6894455D01*
X29533772Y-7009712D01*
X29462355Y-7047005D01*
X29404521Y-7008295D01*
X29378855Y-6961931D01*
X29347891Y-6799361D01*
X29385855Y-6628764D01*
X29485118Y-6478272D01*
X29518416Y-6447257D01*
X29607204Y-6379559D01*
X29662295Y-6364713D01*
X29710243Y-6396090D01*
G36*
X24545360Y-6353517D02*
G01*
X24601973Y-6459320D01*
X24628095Y-6614146D01*
X24621099Y-6787067D01*
X24592618Y-6909793D01*
X24535409Y-7039946D01*
X24477242Y-7087567D01*
X24413551Y-7054713D01*
X24376990Y-7006904D01*
X24305002Y-6828163D01*
X24299948Y-6634581D01*
X24360986Y-6455994D01*
X24393947Y-6407384D01*
X24459940Y-6334239D01*
X24505989Y-6323494D01*
X24545360Y-6353517D01*
X24545360Y-6353517D01*
G37*
X24545360Y-6353517D02*
X24601973Y-6459320D01*
X24628095Y-6614146D01*
X24621099Y-6787067D01*
X24592618Y-6909793D01*
X24535409Y-7039946D01*
X24477242Y-7087567D01*
X24413551Y-7054713D01*
X24376990Y-7006904D01*
X24305002Y-6828163D01*
X24299948Y-6634581D01*
X24360986Y-6455994D01*
X24393947Y-6407384D01*
X24459940Y-6334239D01*
X24505989Y-6323494D01*
X24545360Y-6353517D01*
G36*
X30618551Y-6591877D02*
G01*
X30636980Y-6615805D01*
X30691225Y-6758659D01*
X30671091Y-6927579D01*
X30633965Y-7015838D01*
X30552817Y-7123402D01*
X30457254Y-7181328D01*
X30369390Y-7178657D01*
X30343122Y-7159977D01*
X30316814Y-7081053D01*
X30328094Y-6957780D01*
X30369095Y-6817242D01*
X30431955Y-6686525D01*
X30507535Y-6593761D01*
X30568742Y-6559194D01*
X30618551Y-6591877D01*
X30618551Y-6591877D01*
G37*
X30618551Y-6591877D02*
X30636980Y-6615805D01*
X30691225Y-6758659D01*
X30671091Y-6927579D01*
X30633965Y-7015838D01*
X30552817Y-7123402D01*
X30457254Y-7181328D01*
X30369390Y-7178657D01*
X30343122Y-7159977D01*
X30316814Y-7081053D01*
X30328094Y-6957780D01*
X30369095Y-6817242D01*
X30431955Y-6686525D01*
X30507535Y-6593761D01*
X30568742Y-6559194D01*
X30618551Y-6591877D01*
G36*
X7058753Y-6672566D02*
G01*
X7068377Y-6759430D01*
X7052104Y-6872602D01*
X7013428Y-6986226D01*
X6961544Y-7068406D01*
X6850604Y-7170063D01*
X6764290Y-7206990D01*
X6711801Y-7175533D01*
X6708873Y-7168764D01*
X6703824Y-7061438D01*
X6745209Y-6929526D01*
X6818159Y-6798417D01*
X6907808Y-6693502D01*
X6999289Y-6640170D01*
X7019737Y-6637866D01*
X7058753Y-6672566D01*
X7058753Y-6672566D01*
G37*
X7058753Y-6672566D02*
X7068377Y-6759430D01*
X7052104Y-6872602D01*
X7013428Y-6986226D01*
X6961544Y-7068406D01*
X6850604Y-7170063D01*
X6764290Y-7206990D01*
X6711801Y-7175533D01*
X6708873Y-7168764D01*
X6703824Y-7061438D01*
X6745209Y-6929526D01*
X6818159Y-6798417D01*
X6907808Y-6693502D01*
X6999289Y-6640170D01*
X7019737Y-6637866D01*
X7058753Y-6672566D01*
G36*
X21531529Y-6656562D02*
G01*
X21579016Y-6723438D01*
X21615321Y-6832818D01*
X21636685Y-6963663D01*
X21639352Y-7094932D01*
X21619563Y-7205583D01*
X21585766Y-7264400D01*
X21499863Y-7312517D01*
X21430005Y-7280664D01*
X21402280Y-7225955D01*
X21390088Y-7129134D01*
X21394507Y-6995059D01*
X21411773Y-6852720D01*
X21438123Y-6731106D01*
X21469794Y-6659209D01*
X21476618Y-6653233D01*
X21531529Y-6656562D01*
X21531529Y-6656562D01*
G37*
X21531529Y-6656562D02*
X21579016Y-6723438D01*
X21615321Y-6832818D01*
X21636685Y-6963663D01*
X21639352Y-7094932D01*
X21619563Y-7205583D01*
X21585766Y-7264400D01*
X21499863Y-7312517D01*
X21430005Y-7280664D01*
X21402280Y-7225955D01*
X21390088Y-7129134D01*
X21394507Y-6995059D01*
X21411773Y-6852720D01*
X21438123Y-6731106D01*
X21469794Y-6659209D01*
X21476618Y-6653233D01*
X21531529Y-6656562D01*
G36*
X32714995Y-7083722D02*
G01*
X32723651Y-7152993D01*
X32682660Y-7264819D01*
X32620540Y-7368872D01*
X32532220Y-7474158D01*
X32455809Y-7522187D01*
X32404139Y-7508545D01*
X32389233Y-7448460D01*
X32415450Y-7352288D01*
X32480016Y-7237732D01*
X32561808Y-7134922D01*
X32639700Y-7073987D01*
X32655305Y-7068972D01*
X32714995Y-7083722D01*
X32714995Y-7083722D01*
G37*
X32714995Y-7083722D02*
X32723651Y-7152993D01*
X32682660Y-7264819D01*
X32620540Y-7368872D01*
X32532220Y-7474158D01*
X32455809Y-7522187D01*
X32404139Y-7508545D01*
X32389233Y-7448460D01*
X32415450Y-7352288D01*
X32480016Y-7237732D01*
X32561808Y-7134922D01*
X32639700Y-7073987D01*
X32655305Y-7068972D01*
X32714995Y-7083722D01*
G36*
X8079346Y-6882765D02*
G01*
X8101643Y-6976535D01*
X8085614Y-7052048D01*
X8015424Y-7185432D01*
X7922282Y-7295847D01*
X7823511Y-7369128D01*
X7736437Y-7391105D01*
X7694788Y-7371644D01*
X7669825Y-7292881D01*
X7690682Y-7176288D01*
X7746491Y-7046924D01*
X7826384Y-6929848D01*
X7919494Y-6850119D01*
X7921410Y-6849081D01*
X8013991Y-6833758D01*
X8079346Y-6882765D01*
X8079346Y-6882765D01*
G37*
X8079346Y-6882765D02*
X8101643Y-6976535D01*
X8085614Y-7052048D01*
X8015424Y-7185432D01*
X7922282Y-7295847D01*
X7823511Y-7369128D01*
X7736437Y-7391105D01*
X7694788Y-7371644D01*
X7669825Y-7292881D01*
X7690682Y-7176288D01*
X7746491Y-7046924D01*
X7826384Y-6929848D01*
X7919494Y-6850119D01*
X7921410Y-6849081D01*
X8013991Y-6833758D01*
X8079346Y-6882765D01*
G36*
X18636123Y-7074564D02*
G01*
X18662955Y-7165174D01*
X18672842Y-7281810D01*
X18663294Y-7405100D01*
X18631818Y-7515676D01*
X18607332Y-7559780D01*
X18533808Y-7640070D01*
X18481066Y-7639186D01*
X18451039Y-7575849D01*
X18443669Y-7472769D01*
X18456444Y-7334072D01*
X18483585Y-7193381D01*
X18519316Y-7084318D01*
X18541598Y-7048901D01*
X18594840Y-7029350D01*
X18636123Y-7074564D01*
X18636123Y-7074564D01*
G37*
X18636123Y-7074564D02*
X18662955Y-7165174D01*
X18672842Y-7281810D01*
X18663294Y-7405100D01*
X18631818Y-7515676D01*
X18607332Y-7559780D01*
X18533808Y-7640070D01*
X18481066Y-7639186D01*
X18451039Y-7575849D01*
X18443669Y-7472769D01*
X18456444Y-7334072D01*
X18483585Y-7193381D01*
X18519316Y-7084318D01*
X18541598Y-7048901D01*
X18594840Y-7029350D01*
X18636123Y-7074564D01*
G36*
X9026209Y-7043108D02*
G01*
X9059354Y-7108503D01*
X9056326Y-7221978D01*
X9023983Y-7358697D01*
X8969184Y-7493825D01*
X8898787Y-7602527D01*
X8862034Y-7637598D01*
X8752057Y-7694550D01*
X8675700Y-7678884D01*
X8641332Y-7593261D01*
X8640233Y-7567097D01*
X8660717Y-7432212D01*
X8702887Y-7316835D01*
X8773072Y-7213988D01*
X8863833Y-7121156D01*
X8953169Y-7056964D01*
X9019075Y-7040042D01*
X9026209Y-7043108D01*
X9026209Y-7043108D01*
G37*
X9026209Y-7043108D02*
X9059354Y-7108503D01*
X9056326Y-7221978D01*
X9023983Y-7358697D01*
X8969184Y-7493825D01*
X8898787Y-7602527D01*
X8862034Y-7637598D01*
X8752057Y-7694550D01*
X8675700Y-7678884D01*
X8641332Y-7593261D01*
X8640233Y-7567097D01*
X8660717Y-7432212D01*
X8702887Y-7316835D01*
X8773072Y-7213988D01*
X8863833Y-7121156D01*
X8953169Y-7056964D01*
X9019075Y-7040042D01*
X9026209Y-7043108D01*
G36*
X33907493Y-7392004D02*
G01*
X33907117Y-7483792D01*
X33871307Y-7615457D01*
X33824790Y-7725167D01*
X33752842Y-7852872D01*
X33700263Y-7900616D01*
X33668636Y-7867970D01*
X33659391Y-7770283D01*
X33678205Y-7657833D01*
X33725142Y-7534554D01*
X33786279Y-7427693D01*
X33847694Y-7364499D01*
X33870277Y-7357533D01*
X33907493Y-7392004D01*
X33907493Y-7392004D01*
G37*
X33907493Y-7392004D02*
X33907117Y-7483792D01*
X33871307Y-7615457D01*
X33824790Y-7725167D01*
X33752842Y-7852872D01*
X33700263Y-7900616D01*
X33668636Y-7867970D01*
X33659391Y-7770283D01*
X33678205Y-7657833D01*
X33725142Y-7534554D01*
X33786279Y-7427693D01*
X33847694Y-7364499D01*
X33870277Y-7357533D01*
X33907493Y-7392004D01*
G36*
X9970785Y-7203594D02*
G01*
X9999293Y-7291733D01*
X10008605Y-7403591D01*
X9993451Y-7508916D01*
X9989498Y-7520318D01*
X9919922Y-7654403D01*
X9834121Y-7752928D01*
X9746525Y-7808950D01*
X9671566Y-7815529D01*
X9623677Y-7765722D01*
X9613900Y-7700984D01*
X9634945Y-7611256D01*
X9688568Y-7490319D01*
X9760495Y-7362299D01*
X9836456Y-7251321D01*
X9902178Y-7181511D01*
X9928354Y-7169426D01*
X9970785Y-7203594D01*
X9970785Y-7203594D01*
G37*
X9970785Y-7203594D02*
X9999293Y-7291733D01*
X10008605Y-7403591D01*
X9993451Y-7508916D01*
X9989498Y-7520318D01*
X9919922Y-7654403D01*
X9834121Y-7752928D01*
X9746525Y-7808950D01*
X9671566Y-7815529D01*
X9623677Y-7765722D01*
X9613900Y-7700984D01*
X9634945Y-7611256D01*
X9688568Y-7490319D01*
X9760495Y-7362299D01*
X9836456Y-7251321D01*
X9902178Y-7181511D01*
X9928354Y-7169426D01*
X9970785Y-7203594D01*
G36*
X10951074Y-7391124D02*
G01*
X10951635Y-7476096D01*
X10921919Y-7588750D01*
X10866352Y-7705385D01*
X10844649Y-7738533D01*
X10773762Y-7807895D01*
X10689965Y-7852666D01*
X10619262Y-7863706D01*
X10587654Y-7831875D01*
X10587566Y-7828900D01*
X10612724Y-7711788D01*
X10676740Y-7581596D01*
X10762430Y-7463003D01*
X10852609Y-7380686D01*
X10915809Y-7357533D01*
X10951074Y-7391124D01*
X10951074Y-7391124D01*
G37*
X10951074Y-7391124D02*
X10951635Y-7476096D01*
X10921919Y-7588750D01*
X10866352Y-7705385D01*
X10844649Y-7738533D01*
X10773762Y-7807895D01*
X10689965Y-7852666D01*
X10619262Y-7863706D01*
X10587654Y-7831875D01*
X10587566Y-7828900D01*
X10612724Y-7711788D01*
X10676740Y-7581596D01*
X10762430Y-7463003D01*
X10852609Y-7380686D01*
X10915809Y-7357533D01*
X10951074Y-7391124D01*
G36*
X11791504Y-7430812D02*
G01*
X11861605Y-7499110D01*
X11899291Y-7567949D01*
X11899900Y-7575006D01*
X11876025Y-7655974D01*
X11816494Y-7763857D01*
X11739440Y-7873007D01*
X11663000Y-7957778D01*
X11605309Y-7992524D01*
X11604654Y-7992533D01*
X11555400Y-7966409D01*
X11527366Y-7941733D01*
X11480083Y-7841149D01*
X11481686Y-7707660D01*
X11528148Y-7574458D01*
X11580475Y-7503775D01*
X11661551Y-7433593D01*
X11721453Y-7400293D01*
X11725618Y-7399866D01*
X11791504Y-7430812D01*
X11791504Y-7430812D01*
G37*
X11791504Y-7430812D02*
X11861605Y-7499110D01*
X11899291Y-7567949D01*
X11899900Y-7575006D01*
X11876025Y-7655974D01*
X11816494Y-7763857D01*
X11739440Y-7873007D01*
X11663000Y-7957778D01*
X11605309Y-7992524D01*
X11604654Y-7992533D01*
X11555400Y-7966409D01*
X11527366Y-7941733D01*
X11480083Y-7841149D01*
X11481686Y-7707660D01*
X11528148Y-7574458D01*
X11580475Y-7503775D01*
X11661551Y-7433593D01*
X11721453Y-7400293D01*
X11725618Y-7399866D01*
X11791504Y-7430812D01*
G36*
X17231705Y-7255069D02*
G01*
X17252758Y-7270950D01*
X17305355Y-7359862D01*
X17319902Y-7488284D01*
X17302044Y-7631748D01*
X17257426Y-7765791D01*
X17191692Y-7865946D01*
X17110487Y-7907746D01*
X17105812Y-7907866D01*
X17039625Y-7881879D01*
X17014718Y-7792835D01*
X17014626Y-7791450D01*
X17016378Y-7549195D01*
X17056992Y-7375220D01*
X17107078Y-7297517D01*
X17175436Y-7244246D01*
X17231705Y-7255069D01*
X17231705Y-7255069D01*
G37*
X17231705Y-7255069D02*
X17252758Y-7270950D01*
X17305355Y-7359862D01*
X17319902Y-7488284D01*
X17302044Y-7631748D01*
X17257426Y-7765791D01*
X17191692Y-7865946D01*
X17110487Y-7907746D01*
X17105812Y-7907866D01*
X17039625Y-7881879D01*
X17014718Y-7792835D01*
X17014626Y-7791450D01*
X17016378Y-7549195D01*
X17056992Y-7375220D01*
X17107078Y-7297517D01*
X17175436Y-7244246D01*
X17231705Y-7255069D01*
G36*
X16384913Y-7394920D02*
G01*
X16423111Y-7487491D01*
X16450029Y-7605861D01*
X16457999Y-7720645D01*
X16451355Y-7772294D01*
X16401327Y-7904132D01*
X16338265Y-7977195D01*
X16273563Y-7982463D01*
X16234960Y-7943556D01*
X16207200Y-7849237D01*
X16205172Y-7719840D01*
X16224167Y-7580876D01*
X16259479Y-7457857D01*
X16306398Y-7376298D01*
X16343106Y-7357533D01*
X16384913Y-7394920D01*
X16384913Y-7394920D01*
G37*
X16384913Y-7394920D02*
X16423111Y-7487491D01*
X16450029Y-7605861D01*
X16457999Y-7720645D01*
X16451355Y-7772294D01*
X16401327Y-7904132D01*
X16338265Y-7977195D01*
X16273563Y-7982463D01*
X16234960Y-7943556D01*
X16207200Y-7849237D01*
X16205172Y-7719840D01*
X16224167Y-7580876D01*
X16259479Y-7457857D01*
X16306398Y-7376298D01*
X16343106Y-7357533D01*
X16384913Y-7394920D01*
G36*
X15522355Y-7463366D02*
G01*
X15576413Y-7659055D01*
X15550949Y-7829077D01*
X15495160Y-7923324D01*
X15413072Y-8011265D01*
X15361155Y-8022580D01*
X15334761Y-7955024D01*
X15328900Y-7843006D01*
X15345138Y-7681831D01*
X15385359Y-7524097D01*
X15397264Y-7493756D01*
X15465629Y-7336366D01*
X15522355Y-7463366D01*
X15522355Y-7463366D01*
G37*
X15522355Y-7463366D02*
X15576413Y-7659055D01*
X15550949Y-7829077D01*
X15495160Y-7923324D01*
X15413072Y-8011265D01*
X15361155Y-8022580D01*
X15334761Y-7955024D01*
X15328900Y-7843006D01*
X15345138Y-7681831D01*
X15385359Y-7524097D01*
X15397264Y-7493756D01*
X15465629Y-7336366D01*
X15522355Y-7463366D01*
G36*
X14043885Y-7465928D02*
G01*
X14118022Y-7500962D01*
X14152943Y-7554426D01*
X14162375Y-7654276D01*
X14162174Y-7706875D01*
X14136967Y-7878390D01*
X14074210Y-8001144D01*
X13985713Y-8066132D01*
X13883282Y-8064354D01*
X13785265Y-7994226D01*
X13736005Y-7882189D01*
X13741723Y-7736950D01*
X13798935Y-7586551D01*
X13844153Y-7520157D01*
X13913730Y-7454168D01*
X13989374Y-7449163D01*
X14043885Y-7465928D01*
X14043885Y-7465928D01*
G37*
X14043885Y-7465928D02*
X14118022Y-7500962D01*
X14152943Y-7554426D01*
X14162375Y-7654276D01*
X14162174Y-7706875D01*
X14136967Y-7878390D01*
X14074210Y-8001144D01*
X13985713Y-8066132D01*
X13883282Y-8064354D01*
X13785265Y-7994226D01*
X13736005Y-7882189D01*
X13741723Y-7736950D01*
X13798935Y-7586551D01*
X13844153Y-7520157D01*
X13913730Y-7454168D01*
X13989374Y-7449163D01*
X14043885Y-7465928D01*
G36*
X34767340Y-7644373D02*
G01*
X34778804Y-7708978D01*
X34751198Y-7817127D01*
X34694688Y-7943486D01*
X34619438Y-8062719D01*
X34581166Y-8108372D01*
X34498890Y-8184752D01*
X34443879Y-8200094D01*
X34407122Y-8175977D01*
X34386044Y-8116425D01*
X34378900Y-8033520D01*
X34404426Y-7921770D01*
X34469651Y-7808126D01*
X34557541Y-7709652D01*
X34651062Y-7643413D01*
X34733182Y-7626472D01*
X34767340Y-7644373D01*
X34767340Y-7644373D01*
G37*
X34767340Y-7644373D02*
X34778804Y-7708978D01*
X34751198Y-7817127D01*
X34694688Y-7943486D01*
X34619438Y-8062719D01*
X34581166Y-8108372D01*
X34498890Y-8184752D01*
X34443879Y-8200094D01*
X34407122Y-8175977D01*
X34386044Y-8116425D01*
X34378900Y-8033520D01*
X34404426Y-7921770D01*
X34469651Y-7808126D01*
X34557541Y-7709652D01*
X34651062Y-7643413D01*
X34733182Y-7626472D01*
X34767340Y-7644373D01*
G36*
X35617222Y-7986256D02*
G01*
X35635652Y-8059644D01*
X35601670Y-8170988D01*
X35524370Y-8300062D01*
X35424062Y-8415863D01*
X35319986Y-8508646D01*
X35258793Y-8535587D01*
X35230786Y-8497202D01*
X35225724Y-8426450D01*
X35249405Y-8300257D01*
X35310313Y-8174445D01*
X35393741Y-8065551D01*
X35484982Y-7990109D01*
X35569330Y-7964657D01*
X35617222Y-7986256D01*
X35617222Y-7986256D01*
G37*
X35617222Y-7986256D02*
X35635652Y-8059644D01*
X35601670Y-8170988D01*
X35524370Y-8300062D01*
X35424062Y-8415863D01*
X35319986Y-8508646D01*
X35258793Y-8535587D01*
X35230786Y-8497202D01*
X35225724Y-8426450D01*
X35249405Y-8300257D01*
X35310313Y-8174445D01*
X35393741Y-8065551D01*
X35484982Y-7990109D01*
X35569330Y-7964657D01*
X35617222Y-7986256D01*
G36*
X38078279Y-8555244D02*
G01*
X38098972Y-8640146D01*
X38082996Y-8752806D01*
X38031702Y-8869625D01*
X37996878Y-8917955D01*
X37901001Y-9017831D01*
X37840937Y-9043678D01*
X37812137Y-8995891D01*
X37807965Y-8934450D01*
X37826981Y-8814568D01*
X37874728Y-8688577D01*
X37937436Y-8583334D01*
X38001335Y-8525701D01*
X38019566Y-8521700D01*
X38078279Y-8555244D01*
X38078279Y-8555244D01*
G37*
X38078279Y-8555244D02*
X38098972Y-8640146D01*
X38082996Y-8752806D01*
X38031702Y-8869625D01*
X37996878Y-8917955D01*
X37901001Y-9017831D01*
X37840937Y-9043678D01*
X37812137Y-8995891D01*
X37807965Y-8934450D01*
X37826981Y-8814568D01*
X37874728Y-8688577D01*
X37937436Y-8583334D01*
X38001335Y-8525701D01*
X38019566Y-8521700D01*
X38078279Y-8555244D01*
G36*
X38894716Y-8831584D02*
G01*
X38908893Y-8918273D01*
X38894390Y-9030733D01*
X38853131Y-9142765D01*
X38820827Y-9193324D01*
X38727919Y-9285603D01*
X38658494Y-9305724D01*
X38622299Y-9255337D01*
X38624644Y-9160119D01*
X38664815Y-9018542D01*
X38729020Y-8895465D01*
X38802321Y-8814979D01*
X38849935Y-8796866D01*
X38894716Y-8831584D01*
X38894716Y-8831584D01*
G37*
X38894716Y-8831584D02*
X38908893Y-8918273D01*
X38894390Y-9030733D01*
X38853131Y-9142765D01*
X38820827Y-9193324D01*
X38727919Y-9285603D01*
X38658494Y-9305724D01*
X38622299Y-9255337D01*
X38624644Y-9160119D01*
X38664815Y-9018542D01*
X38729020Y-8895465D01*
X38802321Y-8814979D01*
X38849935Y-8796866D01*
X38894716Y-8831584D01*
G36*
X40964414Y-9483936D02*
G01*
X40983290Y-9556301D01*
X40961084Y-9671952D01*
X40906555Y-9805730D01*
X40828461Y-9932481D01*
X40793634Y-9974440D01*
X40651819Y-10129187D01*
X40620622Y-9962892D01*
X40613631Y-9793290D01*
X40649619Y-9689355D01*
X40718127Y-9603320D01*
X40809833Y-9528755D01*
X40899171Y-9482343D01*
X40960573Y-9480767D01*
X40964414Y-9483936D01*
X40964414Y-9483936D01*
G37*
X40964414Y-9483936D02*
X40983290Y-9556301D01*
X40961084Y-9671952D01*
X40906555Y-9805730D01*
X40828461Y-9932481D01*
X40793634Y-9974440D01*
X40651819Y-10129187D01*
X40620622Y-9962892D01*
X40613631Y-9793290D01*
X40649619Y-9689355D01*
X40718127Y-9603320D01*
X40809833Y-9528755D01*
X40899171Y-9482343D01*
X40960573Y-9480767D01*
X40964414Y-9483936D01*
G36*
X41779522Y-9702267D02*
G01*
X41826204Y-9774745D01*
X41822042Y-9883463D01*
X41775577Y-10004309D01*
X41695348Y-10113175D01*
X41611760Y-10175874D01*
X41510666Y-10223744D01*
X41463291Y-10223082D01*
X41449345Y-10166474D01*
X41448566Y-10116253D01*
X41472263Y-10021348D01*
X41532173Y-9911044D01*
X41611530Y-9806317D01*
X41693566Y-9728140D01*
X41761512Y-9697489D01*
X41779522Y-9702267D01*
X41779522Y-9702267D01*
G37*
X41779522Y-9702267D02*
X41826204Y-9774745D01*
X41822042Y-9883463D01*
X41775577Y-10004309D01*
X41695348Y-10113175D01*
X41611760Y-10175874D01*
X41510666Y-10223744D01*
X41463291Y-10223082D01*
X41449345Y-10166474D01*
X41448566Y-10116253D01*
X41472263Y-10021348D01*
X41532173Y-9911044D01*
X41611530Y-9806317D01*
X41693566Y-9728140D01*
X41761512Y-9697489D01*
X41779522Y-9702267D01*
G36*
X42662614Y-10015595D02*
G01*
X42700440Y-10069989D01*
X42710044Y-10132620D01*
X42694733Y-10247569D01*
X42640335Y-10364689D01*
X42564749Y-10455161D01*
X42487952Y-10490200D01*
X42441281Y-10453609D01*
X42408530Y-10368768D01*
X42401581Y-10233001D01*
X42416867Y-10125351D01*
X42458000Y-10035567D01*
X42534858Y-10004876D01*
X42573445Y-10003366D01*
X42662614Y-10015595D01*
X42662614Y-10015595D01*
G37*
X42662614Y-10015595D02*
X42700440Y-10069989D01*
X42710044Y-10132620D01*
X42694733Y-10247569D01*
X42640335Y-10364689D01*
X42564749Y-10455161D01*
X42487952Y-10490200D01*
X42441281Y-10453609D01*
X42408530Y-10368768D01*
X42401581Y-10233001D01*
X42416867Y-10125351D01*
X42458000Y-10035567D01*
X42534858Y-10004876D01*
X42573445Y-10003366D01*
X42662614Y-10015595D01*
G36*
X43577346Y-10022791D02*
G01*
X43604421Y-10117605D01*
X43607566Y-10191675D01*
X43592110Y-10298939D01*
X43553745Y-10403827D01*
X43504475Y-10485277D01*
X43456305Y-10522228D01*
X43427655Y-10507332D01*
X43404401Y-10442558D01*
X43378499Y-10333936D01*
X43374609Y-10313928D01*
X43365011Y-10193902D01*
X43400148Y-10109383D01*
X43435810Y-10069289D01*
X43521544Y-10006972D01*
X43577346Y-10022791D01*
X43577346Y-10022791D01*
G37*
X43577346Y-10022791D02*
X43604421Y-10117605D01*
X43607566Y-10191675D01*
X43592110Y-10298939D01*
X43553745Y-10403827D01*
X43504475Y-10485277D01*
X43456305Y-10522228D01*
X43427655Y-10507332D01*
X43404401Y-10442558D01*
X43378499Y-10333936D01*
X43374609Y-10313928D01*
X43365011Y-10193902D01*
X43400148Y-10109383D01*
X43435810Y-10069289D01*
X43521544Y-10006972D01*
X43577346Y-10022791D01*
G36*
X44269904Y-4607785D02*
G01*
X44231570Y-4700938D01*
X44201609Y-4751806D01*
X44128504Y-4844456D01*
X44056569Y-4897408D01*
X44004142Y-4901190D01*
X43988566Y-4861858D01*
X44015462Y-4758752D01*
X44079483Y-4653895D01*
X44155626Y-4586435D01*
X44167514Y-4581648D01*
X44248874Y-4569629D01*
X44269904Y-4607785D01*
X44269904Y-4607785D01*
G37*
X44269904Y-4607785D02*
X44231570Y-4700938D01*
X44201609Y-4751806D01*
X44128504Y-4844456D01*
X44056569Y-4897408D01*
X44004142Y-4901190D01*
X43988566Y-4861858D01*
X44015462Y-4758752D01*
X44079483Y-4653895D01*
X44155626Y-4586435D01*
X44167514Y-4581648D01*
X44248874Y-4569629D01*
X44269904Y-4607785D01*
G36*
X43793327Y-4893733D02*
G01*
X43843997Y-5000521D01*
X43900899Y-5070923D01*
X43904826Y-5073649D01*
X43945922Y-5112552D01*
X43911185Y-5150704D01*
X43903900Y-5155551D01*
X43802756Y-5193620D01*
X43707762Y-5188220D01*
X43678122Y-5170311D01*
X43651452Y-5089336D01*
X43668489Y-4959816D01*
X43697150Y-4873205D01*
X43744401Y-4754033D01*
X43793327Y-4893733D01*
X43793327Y-4893733D01*
G37*
X43793327Y-4893733D02*
X43843997Y-5000521D01*
X43900899Y-5070923D01*
X43904826Y-5073649D01*
X43945922Y-5112552D01*
X43911185Y-5150704D01*
X43903900Y-5155551D01*
X43802756Y-5193620D01*
X43707762Y-5188220D01*
X43678122Y-5170311D01*
X43651452Y-5089336D01*
X43668489Y-4959816D01*
X43697150Y-4873205D01*
X43744401Y-4754033D01*
X43793327Y-4893733D01*
G36*
X46282761Y-5698210D02*
G01*
X46299782Y-5709893D01*
X46354731Y-5800657D01*
X46331444Y-5908332D01*
X46261254Y-5995487D01*
X46141616Y-6069297D01*
X46019839Y-6083636D01*
X45921219Y-6038273D01*
X45891429Y-5998872D01*
X45868500Y-5922983D01*
X45902092Y-5851035D01*
X45936287Y-5811954D01*
X46054174Y-5721786D01*
X46178569Y-5681371D01*
X46282761Y-5698210D01*
X46282761Y-5698210D01*
G37*
X46282761Y-5698210D02*
X46299782Y-5709893D01*
X46354731Y-5800657D01*
X46331444Y-5908332D01*
X46261254Y-5995487D01*
X46141616Y-6069297D01*
X46019839Y-6083636D01*
X45921219Y-6038273D01*
X45891429Y-5998872D01*
X45868500Y-5922983D01*
X45902092Y-5851035D01*
X45936287Y-5811954D01*
X46054174Y-5721786D01*
X46178569Y-5681371D01*
X46282761Y-5698210D01*
G36*
X46350879Y-6284138D02*
G01*
X46348957Y-6329026D01*
X46267082Y-6401273D01*
X46265147Y-6402632D01*
X46138280Y-6457234D01*
X46007001Y-6461956D01*
X45904782Y-6416673D01*
X45892717Y-6404010D01*
X45859217Y-6356767D01*
X45864319Y-6326474D01*
X45921397Y-6305532D01*
X46043824Y-6286342D01*
X46115816Y-6277240D01*
X46273086Y-6266810D01*
X46350879Y-6284138D01*
X46350879Y-6284138D01*
G37*
X46350879Y-6284138D02*
X46348957Y-6329026D01*
X46267082Y-6401273D01*
X46265147Y-6402632D01*
X46138280Y-6457234D01*
X46007001Y-6461956D01*
X45904782Y-6416673D01*
X45892717Y-6404010D01*
X45859217Y-6356767D01*
X45864319Y-6326474D01*
X45921397Y-6305532D01*
X46043824Y-6286342D01*
X46115816Y-6277240D01*
X46273086Y-6266810D01*
X46350879Y-6284138D01*
G36*
X42496441Y-6549860D02*
G01*
X42520117Y-6630401D01*
X42522775Y-6643158D01*
X42537367Y-6750956D01*
X42530611Y-6793849D01*
X42509464Y-6764879D01*
X42485733Y-6680200D01*
X42471013Y-6582887D01*
X42475222Y-6528614D01*
X42476119Y-6527536D01*
X42496441Y-6549860D01*
X42496441Y-6549860D01*
G37*
X42496441Y-6549860D02*
X42520117Y-6630401D01*
X42522775Y-6643158D01*
X42537367Y-6750956D01*
X42530611Y-6793849D01*
X42509464Y-6764879D01*
X42485733Y-6680200D01*
X42471013Y-6582887D01*
X42475222Y-6528614D01*
X42476119Y-6527536D01*
X42496441Y-6549860D01*
G36*
X46642607Y-5809055D02*
G01*
X46703809Y-5893626D01*
X46739372Y-5958846D01*
X46812608Y-6176643D01*
X46816241Y-6386607D01*
X46759250Y-6576513D01*
X46650612Y-6734137D01*
X46499307Y-6847254D01*
X46314314Y-6903638D01*
X46104610Y-6891064D01*
X46062900Y-6879926D01*
X45914733Y-6835383D01*
X46110665Y-6804371D01*
X46324294Y-6753442D01*
X46494486Y-6666846D01*
X46623816Y-6561273D01*
X46707351Y-6454476D01*
X46736561Y-6329503D01*
X46712465Y-6168792D01*
X46656184Y-6004433D01*
X46612173Y-5868087D01*
X46609854Y-5801751D01*
X46642607Y-5809055D01*
X46642607Y-5809055D01*
G37*
X46642607Y-5809055D02*
X46703809Y-5893626D01*
X46739372Y-5958846D01*
X46812608Y-6176643D01*
X46816241Y-6386607D01*
X46759250Y-6576513D01*
X46650612Y-6734137D01*
X46499307Y-6847254D01*
X46314314Y-6903638D01*
X46104610Y-6891064D01*
X46062900Y-6879926D01*
X45914733Y-6835383D01*
X46110665Y-6804371D01*
X46324294Y-6753442D01*
X46494486Y-6666846D01*
X46623816Y-6561273D01*
X46707351Y-6454476D01*
X46736561Y-6329503D01*
X46712465Y-6168792D01*
X46656184Y-6004433D01*
X46612173Y-5868087D01*
X46609854Y-5801751D01*
X46642607Y-5809055D01*
G36*
X40842015Y-4159130D02*
G01*
X40936790Y-4220590D01*
X40979031Y-4331582D01*
X40971072Y-4499107D01*
X40915245Y-4730167D01*
X40902672Y-4771428D01*
X40866233Y-4903351D01*
X40849383Y-4996291D01*
X40855016Y-5029200D01*
X40911702Y-5016156D01*
X41016462Y-4983279D01*
X41067566Y-4965700D01*
X41220477Y-4927876D01*
X41400575Y-4905149D01*
X41478312Y-4902200D01*
X41624823Y-4909132D01*
X41722872Y-4938225D01*
X41808103Y-5001919D01*
X41832823Y-5025943D01*
X41909603Y-5117025D01*
X41946327Y-5212686D01*
X41956490Y-5350469D01*
X41956566Y-5370196D01*
X41926939Y-5601303D01*
X41839951Y-5775656D01*
X41698438Y-5888646D01*
X41619501Y-5917768D01*
X41446523Y-5935434D01*
X41299331Y-5897467D01*
X41195477Y-5812842D01*
X41152514Y-5690538D01*
X41152233Y-5678805D01*
X41181740Y-5601123D01*
X41252127Y-5578371D01*
X41336194Y-5615146D01*
X41363900Y-5643033D01*
X41453167Y-5700895D01*
X41549865Y-5689704D01*
X41637448Y-5621605D01*
X41699372Y-5508747D01*
X41719500Y-5381967D01*
X41692217Y-5236596D01*
X41608180Y-5151514D01*
X41464098Y-5124335D01*
X41373753Y-5131009D01*
X41120513Y-5199964D01*
X40889457Y-5329211D01*
X40703360Y-5503680D01*
X40619287Y-5630347D01*
X40579705Y-5762862D01*
X40562354Y-5946024D01*
X40567596Y-6148689D01*
X40595795Y-6339708D01*
X40610348Y-6395370D01*
X40685299Y-6550772D01*
X40812931Y-6724281D01*
X40972010Y-6892713D01*
X41141300Y-7032886D01*
X41259746Y-7104346D01*
X41602059Y-7232809D01*
X41990305Y-7315497D01*
X42397019Y-7348839D01*
X42794737Y-7329266D01*
X42887900Y-7315955D01*
X43125280Y-7277123D01*
X43293590Y-7252099D01*
X43407516Y-7242303D01*
X43481744Y-7249154D01*
X43530958Y-7274073D01*
X43569845Y-7318479D01*
X43613089Y-7383791D01*
X43614694Y-7386220D01*
X43721794Y-7548033D01*
X43505930Y-7551808D01*
X43383623Y-7555093D01*
X43199434Y-7561454D01*
X42976055Y-7570047D01*
X42736179Y-7580029D01*
X42676233Y-7582646D01*
X42378214Y-7592241D01*
X42143983Y-7590824D01*
X41953284Y-7577623D01*
X41785861Y-7551864D01*
X41766442Y-7547907D01*
X41409912Y-7440636D01*
X41078717Y-7277894D01*
X40788318Y-7070231D01*
X40554176Y-6828197D01*
X40426434Y-6633570D01*
X40382598Y-6541758D01*
X40354002Y-6449775D01*
X40337597Y-6336541D01*
X40330340Y-6180974D01*
X40329184Y-5961995D01*
X40329189Y-5960533D01*
X40331439Y-5744768D01*
X40340012Y-5585272D01*
X40360283Y-5453654D01*
X40397629Y-5321521D01*
X40457424Y-5160482D01*
X40501606Y-5049855D01*
X40575769Y-4861398D01*
X40640246Y-4689617D01*
X40686632Y-4557342D01*
X40703790Y-4500671D01*
X40722348Y-4416265D01*
X40708110Y-4403758D01*
X40649368Y-4453052D01*
X40648984Y-4453400D01*
X40551183Y-4506675D01*
X40473085Y-4487828D01*
X40434008Y-4403644D01*
X40432566Y-4377385D01*
X40469192Y-4247986D01*
X40569034Y-4164612D01*
X40692373Y-4140200D01*
X40842015Y-4159130D01*
X40842015Y-4159130D01*
G37*
X40842015Y-4159130D02*
X40936790Y-4220590D01*
X40979031Y-4331582D01*
X40971072Y-4499107D01*
X40915245Y-4730167D01*
X40902672Y-4771428D01*
X40866233Y-4903351D01*
X40849383Y-4996291D01*
X40855016Y-5029200D01*
X40911702Y-5016156D01*
X41016462Y-4983279D01*
X41067566Y-4965700D01*
X41220477Y-4927876D01*
X41400575Y-4905149D01*
X41478312Y-4902200D01*
X41624823Y-4909132D01*
X41722872Y-4938225D01*
X41808103Y-5001919D01*
X41832823Y-5025943D01*
X41909603Y-5117025D01*
X41946327Y-5212686D01*
X41956490Y-5350469D01*
X41956566Y-5370196D01*
X41926939Y-5601303D01*
X41839951Y-5775656D01*
X41698438Y-5888646D01*
X41619501Y-5917768D01*
X41446523Y-5935434D01*
X41299331Y-5897467D01*
X41195477Y-5812842D01*
X41152514Y-5690538D01*
X41152233Y-5678805D01*
X41181740Y-5601123D01*
X41252127Y-5578371D01*
X41336194Y-5615146D01*
X41363900Y-5643033D01*
X41453167Y-5700895D01*
X41549865Y-5689704D01*
X41637448Y-5621605D01*
X41699372Y-5508747D01*
X41719500Y-5381967D01*
X41692217Y-5236596D01*
X41608180Y-5151514D01*
X41464098Y-5124335D01*
X41373753Y-5131009D01*
X41120513Y-5199964D01*
X40889457Y-5329211D01*
X40703360Y-5503680D01*
X40619287Y-5630347D01*
X40579705Y-5762862D01*
X40562354Y-5946024D01*
X40567596Y-6148689D01*
X40595795Y-6339708D01*
X40610348Y-6395370D01*
X40685299Y-6550772D01*
X40812931Y-6724281D01*
X40972010Y-6892713D01*
X41141300Y-7032886D01*
X41259746Y-7104346D01*
X41602059Y-7232809D01*
X41990305Y-7315497D01*
X42397019Y-7348839D01*
X42794737Y-7329266D01*
X42887900Y-7315955D01*
X43125280Y-7277123D01*
X43293590Y-7252099D01*
X43407516Y-7242303D01*
X43481744Y-7249154D01*
X43530958Y-7274073D01*
X43569845Y-7318479D01*
X43613089Y-7383791D01*
X43614694Y-7386220D01*
X43721794Y-7548033D01*
X43505930Y-7551808D01*
X43383623Y-7555093D01*
X43199434Y-7561454D01*
X42976055Y-7570047D01*
X42736179Y-7580029D01*
X42676233Y-7582646D01*
X42378214Y-7592241D01*
X42143983Y-7590824D01*
X41953284Y-7577623D01*
X41785861Y-7551864D01*
X41766442Y-7547907D01*
X41409912Y-7440636D01*
X41078717Y-7277894D01*
X40788318Y-7070231D01*
X40554176Y-6828197D01*
X40426434Y-6633570D01*
X40382598Y-6541758D01*
X40354002Y-6449775D01*
X40337597Y-6336541D01*
X40330340Y-6180974D01*
X40329184Y-5961995D01*
X40329189Y-5960533D01*
X40331439Y-5744768D01*
X40340012Y-5585272D01*
X40360283Y-5453654D01*
X40397629Y-5321521D01*
X40457424Y-5160482D01*
X40501606Y-5049855D01*
X40575769Y-4861398D01*
X40640246Y-4689617D01*
X40686632Y-4557342D01*
X40703790Y-4500671D01*
X40722348Y-4416265D01*
X40708110Y-4403758D01*
X40649368Y-4453052D01*
X40648984Y-4453400D01*
X40551183Y-4506675D01*
X40473085Y-4487828D01*
X40434008Y-4403644D01*
X40432566Y-4377385D01*
X40469192Y-4247986D01*
X40569034Y-4164612D01*
X40692373Y-4140200D01*
X40842015Y-4159130D01*
G36*
X5064631Y3581148D02*
G01*
X5260660Y3551543D01*
X5501440Y3497882D01*
X5664446Y3457328D01*
X6156546Y3300750D01*
X6599845Y3094569D01*
X6985323Y2843960D01*
X7303962Y2554101D01*
X7370233Y2478376D01*
X7665664Y2067751D01*
X7888986Y1633736D01*
X8035639Y1186572D01*
X8091488Y859400D01*
X8106915Y601201D01*
X8106216Y306644D01*
X8091140Y-1226D01*
X8063435Y-299367D01*
X8024850Y-564733D01*
X7977133Y-774281D01*
X7964547Y-813615D01*
X7792742Y-1183562D01*
X7548843Y-1519330D01*
X7241764Y-1811362D01*
X6880419Y-2050098D01*
X6750162Y-2115849D01*
X6540380Y-2209490D01*
X6401789Y-2260568D01*
X6334863Y-2269176D01*
X6340073Y-2235408D01*
X6417895Y-2159358D01*
X6527836Y-2071861D01*
X6725446Y-1909000D01*
X6933239Y-1715927D01*
X7135791Y-1509117D01*
X7317679Y-1305050D01*
X7463479Y-1120200D01*
X7557199Y-972173D01*
X7656539Y-720089D01*
X7712589Y-434040D01*
X7727133Y-99553D01*
X7707192Y244472D01*
X7658851Y645198D01*
X7590538Y979845D01*
X7493835Y1266210D01*
X7360321Y1522090D01*
X7181576Y1765280D01*
X6949180Y2013578D01*
X6806097Y2149002D01*
X6585933Y2341822D01*
X6395864Y2482886D01*
X6212164Y2585795D01*
X6011102Y2664150D01*
X5805739Y2722387D01*
X5634048Y2761351D01*
X5473236Y2785661D01*
X5297320Y2797389D01*
X5080318Y2798608D01*
X4900199Y2794610D01*
X4669497Y2786939D01*
X4501431Y2776564D01*
X4373981Y2759276D01*
X4265131Y2730867D01*
X4152860Y2687127D01*
X4020739Y2626483D01*
X3526607Y2353120D01*
X3096280Y2027609D01*
X2722833Y1644344D01*
X2573717Y1454561D01*
X2447244Y1273563D01*
X2351463Y1108644D01*
X2281780Y942737D01*
X2233599Y758775D01*
X2202328Y539690D01*
X2183371Y268416D01*
X2173057Y-33866D01*
X2167943Y-429048D01*
X2176281Y-758004D01*
X2201216Y-1038545D01*
X2245893Y-1288483D01*
X2313458Y-1525627D01*
X2407055Y-1767791D01*
X2523912Y-2020688D01*
X2759127Y-2467621D01*
X3005769Y-2860365D01*
X3279250Y-3218372D01*
X3594979Y-3561093D01*
X3968368Y-3907977D01*
X4125918Y-4042698D01*
X4675423Y-4460923D01*
X5305674Y-4861579D01*
X6014314Y-5243294D01*
X6798984Y-5604696D01*
X6836353Y-5620590D01*
X7117418Y-5736919D01*
X7380761Y-5838838D01*
X7637254Y-5929032D01*
X7897772Y-6010183D01*
X8173186Y-6084978D01*
X8474370Y-6156101D01*
X8812197Y-6226236D01*
X9197540Y-6298067D01*
X9641270Y-6374280D01*
X10154263Y-6457558D01*
X10354733Y-6489273D01*
X10755936Y-6549101D01*
X11137184Y-6598259D01*
X11511432Y-6637426D01*
X11891636Y-6667281D01*
X12290751Y-6688503D01*
X12721731Y-6701770D01*
X13197532Y-6707763D01*
X13731108Y-6707158D01*
X14335416Y-6700637D01*
X14376400Y-6700040D01*
X14914709Y-6690640D01*
X15385115Y-6678463D01*
X15804370Y-6661958D01*
X16189229Y-6639571D01*
X16556444Y-6609750D01*
X16922770Y-6570942D01*
X17304961Y-6521595D01*
X17719770Y-6460156D01*
X18183951Y-6385071D01*
X18673798Y-6301781D01*
X19206983Y-6210304D01*
X19670937Y-6132168D01*
X20079690Y-6065328D01*
X20447268Y-6007744D01*
X20787699Y-5957373D01*
X21115011Y-5912170D01*
X21443232Y-5870096D01*
X21786388Y-5829105D01*
X22158509Y-5787157D01*
X22356233Y-5765573D01*
X22606782Y-5739113D01*
X22834732Y-5716918D01*
X23051296Y-5698514D01*
X23267686Y-5683422D01*
X23495113Y-5671167D01*
X23744790Y-5661272D01*
X24027928Y-5653260D01*
X24355740Y-5646655D01*
X24739437Y-5640981D01*
X25190232Y-5635761D01*
X25479875Y-5632821D01*
X26239373Y-5627501D01*
X26922823Y-5627474D01*
X27538699Y-5633082D01*
X28095475Y-5644670D01*
X28601625Y-5662581D01*
X29065622Y-5687158D01*
X29495941Y-5718746D01*
X29901056Y-5757687D01*
X30289440Y-5804325D01*
X30526566Y-5837405D01*
X31681034Y-6033907D01*
X32844725Y-6284244D01*
X33995567Y-6582699D01*
X35111489Y-6923555D01*
X36156900Y-7295893D01*
X36460237Y-7407057D01*
X36836021Y-7535772D01*
X37274547Y-7679100D01*
X37766111Y-7834103D01*
X38301009Y-7997844D01*
X38869538Y-8167383D01*
X39461993Y-8339783D01*
X40068671Y-8512106D01*
X40679868Y-8681412D01*
X41173400Y-8814807D01*
X41549592Y-8915253D01*
X41859241Y-8996471D01*
X42117757Y-9060502D01*
X42340547Y-9109389D01*
X42543022Y-9145171D01*
X42740589Y-9169891D01*
X42948659Y-9185589D01*
X43182639Y-9194306D01*
X43457939Y-9198085D01*
X43789967Y-9198966D01*
X44073233Y-9198952D01*
X45406733Y-9199033D01*
X45737310Y-9029700D01*
X45980795Y-8896778D01*
X46167332Y-8771540D01*
X46320145Y-8634455D01*
X46462458Y-8465995D01*
X46548237Y-8347796D01*
X46575721Y-8306480D01*
X46991194Y-8306480D01*
X47095143Y-8208825D01*
X47187205Y-8098164D01*
X47250940Y-7985996D01*
X47276543Y-7867027D01*
X47237197Y-7800194D01*
X47136828Y-7790506D01*
X47103166Y-7797472D01*
X47027388Y-7837925D01*
X46994755Y-7894033D01*
X47013166Y-7939237D01*
X47057733Y-7950200D01*
X47103772Y-7955330D01*
X47116287Y-7983802D01*
X47095127Y-8055238D01*
X47056213Y-8150866D01*
X46991194Y-8306480D01*
X46575721Y-8306480D01*
X46648414Y-8197207D01*
X46749130Y-8033684D01*
X46839709Y-7876097D01*
X46909481Y-7743315D01*
X46947771Y-7654210D01*
X46951900Y-7634107D01*
X46916384Y-7615593D01*
X46869219Y-7611533D01*
X46787856Y-7651008D01*
X46719654Y-7749116D01*
X46642396Y-7879993D01*
X46548637Y-8005169D01*
X46546270Y-8007877D01*
X46439770Y-8129055D01*
X45558447Y-8113123D01*
X44677123Y-8097191D01*
X44491595Y-7929883D01*
X44462815Y-7901677D01*
X44944269Y-7901677D01*
X44948789Y-7933893D01*
X45001746Y-7987726D01*
X45082128Y-7968980D01*
X45151306Y-7909443D01*
X45199095Y-7819534D01*
X45197655Y-7805490D01*
X45538064Y-7805490D01*
X45576082Y-7892664D01*
X45657873Y-7977128D01*
X45749070Y-7980612D01*
X45827163Y-7936391D01*
X45876354Y-7859572D01*
X45865296Y-7768046D01*
X45809522Y-7684856D01*
X45724568Y-7633045D01*
X45625969Y-7635659D01*
X45624739Y-7636124D01*
X45548056Y-7702796D01*
X45538064Y-7805490D01*
X45197655Y-7805490D01*
X45190892Y-7739571D01*
X45131580Y-7697576D01*
X45114129Y-7696200D01*
X45039308Y-7731346D01*
X44974122Y-7812154D01*
X44944269Y-7901677D01*
X44462815Y-7901677D01*
X44389146Y-7829479D01*
X44251931Y-7683983D01*
X44135484Y-7554594D01*
X44369566Y-7554594D01*
X44391705Y-7662601D01*
X44457319Y-7698328D01*
X44565210Y-7661417D01*
X44616564Y-7628606D01*
X44687432Y-7535985D01*
X44697005Y-7423039D01*
X44645397Y-7323747D01*
X44615461Y-7300082D01*
X44529090Y-7286932D01*
X44447835Y-7339638D01*
X44389015Y-7440274D01*
X44369566Y-7554594D01*
X44135484Y-7554594D01*
X44098799Y-7513833D01*
X43965031Y-7358970D01*
X43623995Y-6955366D01*
X43345578Y-6942962D01*
X43067161Y-6930557D01*
X43060050Y-6914821D01*
X43992944Y-6914821D01*
X44039366Y-7010400D01*
X44105368Y-7054559D01*
X44175856Y-7042002D01*
X44271886Y-6967508D01*
X44293166Y-6947446D01*
X44387663Y-6830269D01*
X44401856Y-6731411D01*
X44335875Y-6642752D01*
X44298437Y-6615593D01*
X44219505Y-6569898D01*
X44166993Y-6574090D01*
X44104382Y-6635040D01*
X44086770Y-6655419D01*
X44008254Y-6787478D01*
X43992944Y-6914821D01*
X43060050Y-6914821D01*
X42948410Y-6667795D01*
X42888459Y-6503980D01*
X42984498Y-6503980D01*
X42989051Y-6570783D01*
X43026604Y-6661303D01*
X43079354Y-6671241D01*
X43133433Y-6629400D01*
X43175079Y-6546487D01*
X43176452Y-6520307D01*
X43347574Y-6520307D01*
X43399822Y-6612071D01*
X43491449Y-6687307D01*
X43578216Y-6678324D01*
X43653421Y-6588953D01*
X43680259Y-6474466D01*
X43646436Y-6379552D01*
X43569212Y-6324317D01*
X43465846Y-6328868D01*
X43440147Y-6340509D01*
X43352899Y-6419883D01*
X43347574Y-6520307D01*
X43176452Y-6520307D01*
X43180385Y-6445383D01*
X43148654Y-6368787D01*
X43137837Y-6360189D01*
X43071099Y-6357554D01*
X43014033Y-6413911D01*
X42984498Y-6503980D01*
X42888459Y-6503980D01*
X42870932Y-6456088D01*
X42820635Y-6238419D01*
X42811194Y-6159352D01*
X42805208Y-6010651D01*
X42819588Y-5915258D01*
X42861025Y-5842924D01*
X42888003Y-5812256D01*
X43001729Y-5730833D01*
X44339151Y-5730833D01*
X44413336Y-5809742D01*
X44565064Y-5917026D01*
X44573411Y-5922339D01*
X44711510Y-6005104D01*
X44793367Y-6040265D01*
X44830150Y-6031444D01*
X44835233Y-6007252D01*
X44802991Y-5943051D01*
X44721080Y-5862912D01*
X44611725Y-5781607D01*
X44497149Y-5713910D01*
X44399575Y-5674594D01*
X44341227Y-5678432D01*
X44340970Y-5678684D01*
X44339151Y-5730833D01*
X43001729Y-5730833D01*
X43037674Y-5705098D01*
X43257769Y-5621445D01*
X43536335Y-5565246D01*
X43683335Y-5549499D01*
X43844503Y-5534322D01*
X43950458Y-5511542D01*
X44030435Y-5467473D01*
X44113669Y-5388427D01*
X44177783Y-5318019D01*
X44287927Y-5181219D01*
X44334218Y-5115828D01*
X46447839Y-5115828D01*
X46502861Y-5191606D01*
X46595964Y-5242348D01*
X46714076Y-5301557D01*
X46814424Y-5368713D01*
X46915871Y-5428633D01*
X47004531Y-5452533D01*
X47061699Y-5438685D01*
X47069715Y-5381146D01*
X47060728Y-5336116D01*
X46986413Y-5190221D01*
X46851305Y-5073395D01*
X46678793Y-5005657D01*
X46673404Y-5004615D01*
X46539321Y-5003264D01*
X46462063Y-5046691D01*
X46447839Y-5115828D01*
X44334218Y-5115828D01*
X44414194Y-5002855D01*
X44533275Y-4816284D01*
X44559329Y-4772027D01*
X44677115Y-4581280D01*
X44780600Y-4456948D01*
X44889029Y-4387711D01*
X45021651Y-4362248D01*
X45197712Y-4369238D01*
X45237303Y-4373263D01*
X45443446Y-4404398D01*
X45688634Y-4455250D01*
X45949869Y-4519612D01*
X46204154Y-4591281D01*
X46428492Y-4664051D01*
X46599885Y-4731718D01*
X46641259Y-4752058D01*
X46953402Y-4918370D01*
X47200086Y-5051129D01*
X47390435Y-5156851D01*
X47533575Y-5242052D01*
X47638631Y-5313249D01*
X47714728Y-5376957D01*
X47770991Y-5439694D01*
X47816545Y-5507976D01*
X47860514Y-5588320D01*
X47888897Y-5643033D01*
X47988386Y-5838280D01*
X48049248Y-5971898D01*
X48073652Y-6056449D01*
X48063763Y-6104493D01*
X48021752Y-6128594D01*
X47974302Y-6137957D01*
X47861146Y-6130741D01*
X47803341Y-6079448D01*
X47728108Y-6016441D01*
X47672697Y-6002866D01*
X47586494Y-5968818D01*
X47547559Y-5923792D01*
X47472013Y-5857113D01*
X47343443Y-5808120D01*
X47193163Y-5787020D01*
X47133247Y-5788740D01*
X47035368Y-5760777D01*
X46913639Y-5670193D01*
X46888706Y-5646162D01*
X46658707Y-5462576D01*
X46424656Y-5358737D01*
X46196310Y-5330856D01*
X45983425Y-5375147D01*
X45795759Y-5487824D01*
X45643068Y-5665098D01*
X45535110Y-5903184D01*
X45482093Y-6192121D01*
X45477257Y-6360025D01*
X45498341Y-6487012D01*
X45553025Y-6614840D01*
X45563453Y-6634536D01*
X45722378Y-6854731D01*
X45933782Y-7014885D01*
X46206554Y-7121603D01*
X46225659Y-7126603D01*
X46429826Y-7164818D01*
X46586058Y-7154720D01*
X46719743Y-7090331D01*
X46841079Y-6981739D01*
X46949421Y-6897311D01*
X47076865Y-6870263D01*
X47116929Y-6870237D01*
X47242692Y-6887169D01*
X47339653Y-6923522D01*
X47350799Y-6931488D01*
X47416560Y-6966514D01*
X47446171Y-6962039D01*
X47481808Y-6975671D01*
X47532255Y-7044823D01*
X47535825Y-7051257D01*
X47749780Y-7504998D01*
X47896861Y-7954302D01*
X47973165Y-8385968D01*
X47983263Y-8564033D01*
X47981635Y-8755828D01*
X47964327Y-8899721D01*
X47924416Y-9032023D01*
X47870261Y-9156700D01*
X47688929Y-9480676D01*
X47455656Y-9800265D01*
X47187358Y-10097263D01*
X46900946Y-10353468D01*
X46613337Y-10550677D01*
X46536578Y-10591998D01*
X45948951Y-10842024D01*
X45313258Y-11025748D01*
X44635314Y-11142177D01*
X43920935Y-11190319D01*
X43175937Y-11169179D01*
X43163066Y-11168216D01*
X42716471Y-11122653D01*
X42249427Y-11050809D01*
X41751553Y-10950299D01*
X41212470Y-10818743D01*
X40621800Y-10653756D01*
X39969162Y-10452957D01*
X39775909Y-10390643D01*
X39447030Y-10284960D01*
X39070409Y-10166063D01*
X38679595Y-10044412D01*
X38530850Y-9998785D01*
X39770049Y-9998785D01*
X39775812Y-10023582D01*
X39823479Y-10063449D01*
X39862160Y-10046298D01*
X40398185Y-10046298D01*
X40453371Y-10215493D01*
X40477972Y-10251657D01*
X40578940Y-10342477D01*
X40688603Y-10361117D01*
X40815319Y-10305979D01*
X40967447Y-10175460D01*
X40988551Y-10153884D01*
X41190305Y-9944568D01*
X41203019Y-10162912D01*
X41214595Y-10292996D01*
X41241111Y-10366268D01*
X41299558Y-10410560D01*
X41372654Y-10440776D01*
X41536614Y-10478400D01*
X41683468Y-10451581D01*
X41832931Y-10354563D01*
X41908382Y-10284383D01*
X42069711Y-10123054D01*
X42119939Y-10310850D01*
X42183147Y-10463712D01*
X42278284Y-10600978D01*
X42386862Y-10701453D01*
X42490393Y-10743940D01*
X42497934Y-10744200D01*
X42586507Y-10718941D01*
X42690099Y-10657604D01*
X42697009Y-10652277D01*
X42814970Y-10519595D01*
X42910515Y-10340644D01*
X42949748Y-10206639D01*
X43065773Y-10206639D01*
X43095518Y-10401495D01*
X43150608Y-10583282D01*
X43226417Y-10722631D01*
X43232316Y-10729961D01*
X43327198Y-10783547D01*
X43459309Y-10781897D01*
X43605134Y-10728754D01*
X43714089Y-10653249D01*
X43876604Y-10477680D01*
X43964805Y-10294523D01*
X43988566Y-10108045D01*
X43951345Y-9924532D01*
X43848375Y-9785054D01*
X43692696Y-9702652D01*
X43566387Y-9685866D01*
X43380347Y-9711097D01*
X43219930Y-9778835D01*
X43111672Y-9877151D01*
X43100821Y-9895188D01*
X43065998Y-10028081D01*
X43065773Y-10206639D01*
X42949748Y-10206639D01*
X42965240Y-10153727D01*
X42971636Y-10080698D01*
X42941747Y-9945605D01*
X42864117Y-9817797D01*
X42759511Y-9722733D01*
X42649617Y-9685866D01*
X42548494Y-9705323D01*
X42419170Y-9753707D01*
X42294274Y-9816043D01*
X42206440Y-9877351D01*
X42189773Y-9896928D01*
X42139987Y-9940686D01*
X42101490Y-9909044D01*
X42083833Y-9811250D01*
X42083566Y-9794060D01*
X42052995Y-9652804D01*
X41974815Y-9527824D01*
X41869331Y-9446033D01*
X41808400Y-9429317D01*
X41667342Y-9428536D01*
X41558716Y-9464825D01*
X41441164Y-9552489D01*
X41433867Y-9558866D01*
X41341849Y-9635039D01*
X41276926Y-9680366D01*
X41263061Y-9685866D01*
X41245760Y-9648609D01*
X41237122Y-9557009D01*
X41236900Y-9537700D01*
X41203091Y-9376836D01*
X41105558Y-9269804D01*
X40950143Y-9222174D01*
X40903942Y-9220200D01*
X40719936Y-9256254D01*
X40576455Y-9365417D01*
X40471676Y-9549188D01*
X40457739Y-9587495D01*
X40399492Y-9832097D01*
X40398185Y-10046298D01*
X39862160Y-10046298D01*
X39883545Y-10036816D01*
X39964045Y-9938617D01*
X40001972Y-9880997D01*
X40087894Y-9726153D01*
X40165800Y-9551510D01*
X40229379Y-9376435D01*
X40272322Y-9220295D01*
X40288318Y-9102457D01*
X40274341Y-9045041D01*
X40215283Y-9017103D01*
X40163315Y-9045957D01*
X40103310Y-9121811D01*
X40031516Y-9250711D01*
X39955771Y-9412883D01*
X39883914Y-9588550D01*
X39823782Y-9757940D01*
X39783215Y-9901276D01*
X39770049Y-9998785D01*
X38530850Y-9998785D01*
X38308137Y-9930469D01*
X38061900Y-9856204D01*
X37910667Y-9810430D01*
X39257233Y-9810430D01*
X39260312Y-9828223D01*
X39311193Y-9891237D01*
X39385340Y-9873388D01*
X39431657Y-9834061D01*
X39502306Y-9729685D01*
X39571711Y-9571042D01*
X39633219Y-9382693D01*
X39680178Y-9189204D01*
X39705935Y-9015138D01*
X39703837Y-8885058D01*
X39696282Y-8856956D01*
X39669686Y-8809177D01*
X39630024Y-8822158D01*
X39591357Y-8855427D01*
X39543206Y-8926987D01*
X39483175Y-9055490D01*
X39418477Y-9219744D01*
X39356322Y-9398556D01*
X39303921Y-9570736D01*
X39268488Y-9715091D01*
X39257233Y-9810430D01*
X37910667Y-9810430D01*
X37813349Y-9780975D01*
X37500625Y-9684730D01*
X37140088Y-9572595D01*
X36748093Y-9449694D01*
X36341001Y-9321151D01*
X35935167Y-9192092D01*
X35627733Y-9093630D01*
X35101736Y-8924993D01*
X35026657Y-8901095D01*
X37479875Y-8901095D01*
X37483227Y-9094843D01*
X37541812Y-9225339D01*
X37652432Y-9290608D01*
X37811891Y-9288671D01*
X37904686Y-9257308D01*
X38331840Y-9257308D01*
X38363246Y-9420897D01*
X38424438Y-9549406D01*
X38477825Y-9601329D01*
X38597991Y-9629148D01*
X38743476Y-9597615D01*
X38887210Y-9513887D01*
X38921397Y-9484031D01*
X39075818Y-9296582D01*
X39154600Y-9092384D01*
X39169358Y-8951098D01*
X39148994Y-8751333D01*
X39078774Y-8619668D01*
X38959076Y-8556484D01*
X38790279Y-8562161D01*
X38782969Y-8563725D01*
X38648638Y-8628839D01*
X38516122Y-8751101D01*
X38406847Y-8905292D01*
X38342236Y-9066197D01*
X38338045Y-9087406D01*
X38331840Y-9257308D01*
X37904686Y-9257308D01*
X38002441Y-9224269D01*
X38167189Y-9111138D01*
X38288008Y-8952864D01*
X38357327Y-8770173D01*
X38367580Y-8583794D01*
X38311196Y-8414454D01*
X38302956Y-8401309D01*
X38194066Y-8296469D01*
X38061691Y-8260600D01*
X37918402Y-8286070D01*
X37776772Y-8365244D01*
X37649371Y-8490488D01*
X37548771Y-8654168D01*
X37487545Y-8848652D01*
X37479875Y-8901095D01*
X35026657Y-8901095D01*
X34647392Y-8780374D01*
X34255968Y-8657203D01*
X33918734Y-8552910D01*
X33697451Y-8486181D01*
X34972861Y-8486181D01*
X35004297Y-8636685D01*
X35056233Y-8712200D01*
X35174963Y-8785320D01*
X35315551Y-8782539D01*
X35433051Y-8735529D01*
X35596209Y-8617489D01*
X35733312Y-8455941D01*
X35832856Y-8272366D01*
X35883336Y-8088246D01*
X35873247Y-7925063D01*
X35870959Y-7917879D01*
X35809336Y-7810854D01*
X35726924Y-7727195D01*
X35646898Y-7677273D01*
X35575526Y-7672479D01*
X35473617Y-7708280D01*
X35309941Y-7809034D01*
X35170768Y-7954664D01*
X35063356Y-8127708D01*
X34994967Y-8310701D01*
X34972861Y-8486181D01*
X33697451Y-8486181D01*
X33626959Y-8464924D01*
X33371911Y-8390675D01*
X33144860Y-8327590D01*
X32937075Y-8273101D01*
X32739824Y-8224635D01*
X32544376Y-8179623D01*
X32460255Y-8161027D01*
X31939380Y-8054769D01*
X31359260Y-7949760D01*
X30743513Y-7849473D01*
X30457382Y-7807495D01*
X32892716Y-7807495D01*
X32910554Y-7904940D01*
X32962248Y-7946095D01*
X33047655Y-7920477D01*
X33052306Y-7917575D01*
X33090831Y-7864018D01*
X33147253Y-7751525D01*
X33151797Y-7741121D01*
X33394022Y-7741121D01*
X33408119Y-7911048D01*
X33466762Y-8044834D01*
X33560770Y-8131565D01*
X33680963Y-8160326D01*
X33818160Y-8120200D01*
X33881252Y-8078143D01*
X33933375Y-8018995D01*
X34173361Y-8018995D01*
X34184952Y-8198790D01*
X34254972Y-8346657D01*
X34334256Y-8427408D01*
X34417867Y-8453291D01*
X34532860Y-8428270D01*
X34609053Y-8398547D01*
X34741560Y-8306079D01*
X34861247Y-8157756D01*
X34956686Y-7977844D01*
X35016451Y-7790609D01*
X35029113Y-7620317D01*
X35011963Y-7542939D01*
X34951257Y-7428046D01*
X34864924Y-7372638D01*
X34729623Y-7358181D01*
X34566334Y-7396407D01*
X34420106Y-7500256D01*
X34299896Y-7651074D01*
X34214662Y-7830205D01*
X34173361Y-8018995D01*
X33933375Y-8018995D01*
X33988686Y-7956230D01*
X34084340Y-7782846D01*
X34152946Y-7591113D01*
X34178853Y-7432621D01*
X34151291Y-7273172D01*
X34063100Y-7159322D01*
X33927241Y-7105776D01*
X33888849Y-7103533D01*
X33771402Y-7139638D01*
X33644157Y-7234482D01*
X33527907Y-7367854D01*
X33443445Y-7519544D01*
X33433651Y-7545970D01*
X33394022Y-7741121D01*
X33151797Y-7741121D01*
X33212780Y-7601511D01*
X33278617Y-7435390D01*
X33335972Y-7274577D01*
X33376050Y-7140485D01*
X33382239Y-7114116D01*
X33396309Y-7020578D01*
X33372374Y-6983166D01*
X33301110Y-6976533D01*
X33240087Y-6986385D01*
X33187488Y-7026224D01*
X33130332Y-7111469D01*
X33055639Y-7257540D01*
X33043746Y-7282255D01*
X32959171Y-7485670D01*
X32908875Y-7664245D01*
X32892716Y-7807495D01*
X30457382Y-7807495D01*
X30115759Y-7757376D01*
X29499617Y-7676942D01*
X28918706Y-7611641D01*
X28411113Y-7566031D01*
X28050749Y-7545594D01*
X27621489Y-7532655D01*
X27138746Y-7526892D01*
X26617929Y-7527988D01*
X26074448Y-7535620D01*
X25523714Y-7549470D01*
X24981138Y-7569218D01*
X24462130Y-7594544D01*
X23982101Y-7625127D01*
X23556460Y-7660649D01*
X23478066Y-7668435D01*
X23145054Y-7701884D01*
X22800964Y-7735258D01*
X22467199Y-7766566D01*
X22165164Y-7793815D01*
X21916260Y-7815015D01*
X21827066Y-7822067D01*
X21527097Y-7846595D01*
X21238447Y-7874089D01*
X20948232Y-7906315D01*
X20643565Y-7945037D01*
X20311563Y-7992021D01*
X19939339Y-8049032D01*
X19514010Y-8117834D01*
X19022689Y-8200192D01*
X18842566Y-8230869D01*
X18258146Y-8330139D01*
X17746701Y-8415320D01*
X17297905Y-8487481D01*
X16901435Y-8547688D01*
X16546966Y-8597011D01*
X16224174Y-8636517D01*
X15922734Y-8667275D01*
X15632321Y-8690352D01*
X15342611Y-8706816D01*
X15043280Y-8717735D01*
X14724003Y-8724178D01*
X14374456Y-8727213D01*
X14037733Y-8727911D01*
X12960030Y-8714226D01*
X11954703Y-8672329D01*
X11014016Y-8601404D01*
X10130232Y-8500633D01*
X9295616Y-8369200D01*
X8502431Y-8206288D01*
X8055527Y-8096324D01*
X7331843Y-7891369D01*
X6670678Y-7668762D01*
X6050262Y-7418832D01*
X5448824Y-7131912D01*
X5087697Y-6932541D01*
X5684841Y-6932541D01*
X5692314Y-7074508D01*
X5692594Y-7075636D01*
X5736337Y-7167245D01*
X5796858Y-7179976D01*
X5854957Y-7127503D01*
X6438744Y-7127503D01*
X6482469Y-7297704D01*
X6542809Y-7380624D01*
X6671362Y-7466191D01*
X6812765Y-7472820D01*
X6975915Y-7400682D01*
X6993556Y-7389283D01*
X7061971Y-7325568D01*
X7430731Y-7325568D01*
X7453169Y-7520739D01*
X7538199Y-7667137D01*
X7571293Y-7696943D01*
X7700959Y-7767947D01*
X7832426Y-7766990D01*
X7982346Y-7697263D01*
X8120375Y-7575364D01*
X8167030Y-7506742D01*
X8404365Y-7506742D01*
X8412985Y-7679775D01*
X8474885Y-7818152D01*
X8578870Y-7911972D01*
X8713745Y-7951336D01*
X8868317Y-7926343D01*
X9031391Y-7827096D01*
X9038840Y-7820646D01*
X9043958Y-7814474D01*
X9366873Y-7814474D01*
X9397180Y-7976991D01*
X9451945Y-8063888D01*
X9570715Y-8144017D01*
X9716087Y-8152854D01*
X9898544Y-8091031D01*
X9898961Y-8090833D01*
X10020431Y-8004778D01*
X10139852Y-7874231D01*
X10170511Y-7830420D01*
X10303183Y-7830420D01*
X10310924Y-7982422D01*
X10328644Y-8025670D01*
X10399098Y-8097224D01*
X10509552Y-8156748D01*
X10523993Y-8161842D01*
X10638948Y-8188129D01*
X10739804Y-8172898D01*
X10831235Y-8133482D01*
X10957685Y-8047786D01*
X11062447Y-7937858D01*
X11074400Y-7920080D01*
X11134626Y-7831873D01*
X11177045Y-7784809D01*
X11182312Y-7782497D01*
X11210244Y-7816906D01*
X11249779Y-7904027D01*
X11258672Y-7927751D01*
X11351260Y-8092550D01*
X11479000Y-8198594D01*
X11625356Y-8239950D01*
X11773791Y-8210686D01*
X11868456Y-8146516D01*
X12025846Y-7944995D01*
X12060116Y-7846497D01*
X13508566Y-7846497D01*
X13542270Y-8029760D01*
X13632363Y-8177510D01*
X13762323Y-8280180D01*
X13915625Y-8328200D01*
X14075744Y-8312004D01*
X14198293Y-8245871D01*
X14312274Y-8104485D01*
X14335479Y-8037066D01*
X14533292Y-8037066D01*
X14561151Y-8187505D01*
X14618439Y-8269230D01*
X14684671Y-8280546D01*
X14743080Y-8233602D01*
X14785013Y-8140409D01*
X14810118Y-8006648D01*
X14810193Y-8006068D01*
X15075991Y-8006068D01*
X15080846Y-8104208D01*
X15104850Y-8166572D01*
X15154026Y-8217457D01*
X15181330Y-8239439D01*
X15281606Y-8308139D01*
X15362858Y-8324147D01*
X15459126Y-8288176D01*
X15530370Y-8246762D01*
X15690298Y-8103120D01*
X15795562Y-7913251D01*
X15832468Y-7738524D01*
X15970856Y-7738524D01*
X15973119Y-7790030D01*
X15986420Y-7953684D01*
X16012360Y-8062473D01*
X16060856Y-8146154D01*
X16110707Y-8202780D01*
X16228152Y-8300971D01*
X16333400Y-8323094D01*
X16448609Y-8270466D01*
X16505494Y-8226223D01*
X16604834Y-8120360D01*
X16678572Y-8004117D01*
X16682511Y-7995079D01*
X16734772Y-7868912D01*
X16872918Y-8015389D01*
X17018362Y-8123629D01*
X17166823Y-8154114D01*
X17308314Y-8112752D01*
X17432846Y-8005450D01*
X17530431Y-7838115D01*
X17591081Y-7616655D01*
X17595209Y-7588192D01*
X17595235Y-7586903D01*
X17786535Y-7586903D01*
X17793382Y-7727456D01*
X17813390Y-7823274D01*
X17846306Y-7890463D01*
X17907392Y-7967869D01*
X17953481Y-7985073D01*
X17986724Y-7936865D01*
X18009276Y-7818036D01*
X18023288Y-7623375D01*
X18028959Y-7448498D01*
X18029217Y-7432786D01*
X18207566Y-7432786D01*
X18219003Y-7642363D01*
X18256894Y-7783813D01*
X18326610Y-7871010D01*
X18390250Y-7904691D01*
X18501269Y-7923197D01*
X18609865Y-7883528D01*
X18710439Y-7806308D01*
X18840600Y-7638352D01*
X18911800Y-7430340D01*
X18916835Y-7289979D01*
X19141572Y-7289979D01*
X19143825Y-7468612D01*
X19157007Y-7612349D01*
X19178892Y-7691826D01*
X19241358Y-7769388D01*
X19301955Y-7762474D01*
X19349077Y-7698983D01*
X19372483Y-7610407D01*
X19387089Y-7464677D01*
X19393163Y-7285409D01*
X19391907Y-7176827D01*
X21130510Y-7176827D01*
X21171883Y-7333368D01*
X21203591Y-7383768D01*
X21347876Y-7511995D01*
X21503719Y-7564010D01*
X21659506Y-7536355D01*
X21680712Y-7525896D01*
X21728283Y-7481938D01*
X31085151Y-7481938D01*
X31110866Y-7619744D01*
X31162827Y-7688855D01*
X31237907Y-7684020D01*
X31300327Y-7636057D01*
X31337423Y-7562740D01*
X31370178Y-7436507D01*
X31370807Y-7432299D01*
X31576744Y-7432299D01*
X31577714Y-7599690D01*
X31623559Y-7712940D01*
X31701593Y-7773970D01*
X31770474Y-7755330D01*
X31832114Y-7655349D01*
X31885565Y-7484087D01*
X31899090Y-7437073D01*
X32177566Y-7437073D01*
X32201113Y-7623169D01*
X32269351Y-7737936D01*
X32378675Y-7779586D01*
X32525481Y-7746331D01*
X32654447Y-7673592D01*
X32802354Y-7538474D01*
X32908953Y-7372602D01*
X32968662Y-7195372D01*
X32975902Y-7026176D01*
X32925093Y-6884411D01*
X32892823Y-6845123D01*
X32773729Y-6781478D01*
X32623920Y-6793050D01*
X32450128Y-6879119D01*
X32427365Y-6894858D01*
X32278945Y-7045505D01*
X32197227Y-7241929D01*
X32177566Y-7437073D01*
X31899090Y-7437073D01*
X31941854Y-7288432D01*
X32015486Y-7073521D01*
X32068107Y-6939821D01*
X32137036Y-6754298D01*
X32157347Y-6632147D01*
X32129143Y-6567495D01*
X32074711Y-6553200D01*
X31982102Y-6593834D01*
X31875605Y-6712649D01*
X31758954Y-6905015D01*
X31705868Y-7010723D01*
X31620147Y-7230135D01*
X31576744Y-7432299D01*
X31370807Y-7432299D01*
X31386305Y-7328734D01*
X31413230Y-7152082D01*
X31453227Y-6975865D01*
X31477353Y-6896721D01*
X31527723Y-6715660D01*
X31541625Y-6573635D01*
X31522171Y-6480220D01*
X31472476Y-6444987D01*
X31395654Y-6477511D01*
X31353606Y-6516230D01*
X31239308Y-6686392D01*
X31151682Y-6920620D01*
X31097000Y-7200812D01*
X31088807Y-7280691D01*
X31085151Y-7481938D01*
X21728283Y-7481938D01*
X21795350Y-7419966D01*
X21869435Y-7260327D01*
X21902302Y-7067955D01*
X21893972Y-6879451D01*
X22215836Y-6879451D01*
X22220165Y-7067292D01*
X22234710Y-7228070D01*
X22259454Y-7335580D01*
X22264823Y-7346950D01*
X22321791Y-7425758D01*
X22383812Y-7431786D01*
X22459054Y-7386137D01*
X22497561Y-7350029D01*
X22514975Y-7300035D01*
X22512759Y-7214970D01*
X22492376Y-7073651D01*
X22484068Y-7023815D01*
X22463488Y-6864518D01*
X22828247Y-6864518D01*
X22831613Y-7047949D01*
X22846051Y-7189509D01*
X22859397Y-7241116D01*
X22910096Y-7335274D01*
X22965960Y-7350269D01*
X23025100Y-7306733D01*
X23049979Y-7239280D01*
X23067028Y-7108738D01*
X23076382Y-6936307D01*
X23078177Y-6743189D01*
X23076609Y-6689544D01*
X23499233Y-6689544D01*
X23504959Y-6949558D01*
X23523472Y-7133241D01*
X23556774Y-7248238D01*
X23606869Y-7302194D01*
X23660839Y-7306460D01*
X23689639Y-7291922D01*
X23709549Y-7252678D01*
X23722150Y-7175582D01*
X23729026Y-7047488D01*
X23731757Y-6855252D01*
X23732066Y-6714664D01*
X23731443Y-6653944D01*
X24066782Y-6653944D01*
X24073884Y-6864159D01*
X24121663Y-7057903D01*
X24207392Y-7214268D01*
X24321355Y-7309080D01*
X24459909Y-7351069D01*
X24581680Y-7321333D01*
X24653684Y-7272945D01*
X24748081Y-7158007D01*
X24827047Y-6987521D01*
X24879828Y-6790473D01*
X24889867Y-6684974D01*
X25150233Y-6684974D01*
X25158720Y-6952771D01*
X25183983Y-7140416D01*
X25225722Y-7247139D01*
X25283638Y-7272172D01*
X25356738Y-7215585D01*
X25379574Y-7149148D01*
X25401079Y-7019681D01*
X25419742Y-6848823D01*
X25430449Y-6706196D01*
X25677077Y-6706196D01*
X25735582Y-6902481D01*
X25811847Y-7017620D01*
X25945784Y-7121243D01*
X26096852Y-7148715D01*
X26245768Y-7099006D01*
X26313868Y-7044413D01*
X26395935Y-6924861D01*
X26466011Y-6757986D01*
X26489270Y-6670310D01*
X26766354Y-6670310D01*
X26804812Y-6863452D01*
X26882206Y-7005488D01*
X26990988Y-7088912D01*
X27123616Y-7106215D01*
X27272541Y-7049891D01*
X27342499Y-6998833D01*
X27452450Y-6859546D01*
X27502716Y-6733530D01*
X29101849Y-6733530D01*
X29107150Y-6880573D01*
X29157908Y-7035399D01*
X29240487Y-7174751D01*
X29341254Y-7275366D01*
X29442069Y-7313912D01*
X29499346Y-7294202D01*
X29594408Y-7243737D01*
X29619944Y-7228342D01*
X29737435Y-7119451D01*
X29847767Y-6955712D01*
X29859473Y-6930493D01*
X30114457Y-6930493D01*
X30131314Y-7117776D01*
X30187145Y-7276659D01*
X30275481Y-7390050D01*
X30389853Y-7440858D01*
X30411799Y-7442041D01*
X30510567Y-7420209D01*
X30627672Y-7367082D01*
X30640683Y-7359396D01*
X30797190Y-7232178D01*
X30886752Y-7073788D01*
X30919133Y-6865655D01*
X30919661Y-6828768D01*
X30895365Y-6585963D01*
X30823916Y-6407550D01*
X30707479Y-6296790D01*
X30548215Y-6256940D01*
X30540156Y-6256866D01*
X30456921Y-6291736D01*
X30356669Y-6381831D01*
X30257599Y-6505384D01*
X30177908Y-6640623D01*
X30143043Y-6731903D01*
X30114457Y-6930493D01*
X29859473Y-6930493D01*
X29935576Y-6766544D01*
X29985495Y-6581366D01*
X29991360Y-6517210D01*
X29963935Y-6334644D01*
X29880525Y-6198472D01*
X29755344Y-6118805D01*
X29602610Y-6105750D01*
X29472969Y-6148584D01*
X29357163Y-6242857D01*
X29244387Y-6391319D01*
X29153081Y-6564906D01*
X29101849Y-6733530D01*
X27502716Y-6733530D01*
X27526807Y-6673135D01*
X27554686Y-6473459D01*
X27545655Y-6366942D01*
X27487516Y-6228977D01*
X27381794Y-6106785D01*
X27253932Y-6024291D01*
X27158486Y-6002866D01*
X27023783Y-6041845D01*
X26902529Y-6145574D01*
X26812390Y-6294241D01*
X26774376Y-6433571D01*
X26766354Y-6670310D01*
X26489270Y-6670310D01*
X26513904Y-6577455D01*
X26529420Y-6416941D01*
X26522205Y-6356173D01*
X26452361Y-6189559D01*
X26343337Y-6077521D01*
X26209980Y-6030770D01*
X26094921Y-6047887D01*
X25902619Y-6159394D01*
X25765564Y-6317630D01*
X25688727Y-6505571D01*
X25677077Y-6706196D01*
X25430449Y-6706196D01*
X25434052Y-6658209D01*
X25442499Y-6469477D01*
X25443571Y-6304265D01*
X25435758Y-6184208D01*
X25430665Y-6156940D01*
X25379856Y-6067519D01*
X25305196Y-6049248D01*
X25229314Y-6102511D01*
X25199361Y-6153025D01*
X25178205Y-6241055D01*
X25161620Y-6389228D01*
X25151867Y-6573054D01*
X25150233Y-6684974D01*
X24889867Y-6684974D01*
X24896075Y-6619742D01*
X24858920Y-6415645D01*
X24757432Y-6238101D01*
X24605994Y-6111915D01*
X24599656Y-6108573D01*
X24466483Y-6064299D01*
X24353035Y-6088377D01*
X24244385Y-6186544D01*
X24185520Y-6267728D01*
X24103085Y-6448164D01*
X24066782Y-6653944D01*
X23731443Y-6653944D01*
X23729873Y-6501131D01*
X23723862Y-6318455D01*
X23714884Y-6183103D01*
X23703790Y-6111543D01*
X23700576Y-6105328D01*
X23650400Y-6106945D01*
X23584159Y-6150798D01*
X23546204Y-6194137D01*
X23521472Y-6253417D01*
X23507225Y-6346002D01*
X23500725Y-6489258D01*
X23499233Y-6689544D01*
X23076609Y-6689544D01*
X23072547Y-6550584D01*
X23059631Y-6379695D01*
X23039562Y-6251722D01*
X23017972Y-6193828D01*
X22973182Y-6142675D01*
X22939932Y-6156747D01*
X22903659Y-6217487D01*
X22873660Y-6315700D01*
X22850364Y-6473123D01*
X22834862Y-6664486D01*
X22828247Y-6864518D01*
X22463488Y-6864518D01*
X22461614Y-6850020D01*
X22452517Y-6689475D01*
X22458674Y-6577561D01*
X22466686Y-6437805D01*
X22439482Y-6341091D01*
X22389092Y-6297441D01*
X22327545Y-6316876D01*
X22266869Y-6409418D01*
X22264289Y-6415616D01*
X22237883Y-6527408D01*
X22221737Y-6690755D01*
X22215836Y-6879451D01*
X21893972Y-6879451D01*
X21893281Y-6863826D01*
X21841704Y-6668915D01*
X21746903Y-6504199D01*
X21714400Y-6468213D01*
X21591096Y-6370159D01*
X21485638Y-6349204D01*
X21383688Y-6404134D01*
X21349633Y-6437361D01*
X21244619Y-6590881D01*
X21170608Y-6781413D01*
X21131328Y-6984785D01*
X21130510Y-7176827D01*
X19391907Y-7176827D01*
X19390974Y-7096222D01*
X19380791Y-6920732D01*
X19362884Y-6782559D01*
X19337756Y-6705635D01*
X19290754Y-6653869D01*
X19250337Y-6670791D01*
X19221339Y-6703933D01*
X19190132Y-6783425D01*
X19165752Y-6923512D01*
X19149223Y-7100321D01*
X19141572Y-7289979D01*
X18916835Y-7289979D01*
X18919819Y-7206808D01*
X18860436Y-6992290D01*
X18853084Y-6977122D01*
X18752902Y-6839195D01*
X18629690Y-6762175D01*
X18501409Y-6756668D01*
X18487196Y-6761081D01*
X18387321Y-6836621D01*
X18302160Y-6976524D01*
X18240067Y-7160729D01*
X18209393Y-7369171D01*
X18207566Y-7432786D01*
X18029217Y-7432786D01*
X18032597Y-7227462D01*
X18030515Y-7076914D01*
X18021266Y-6982785D01*
X18003401Y-6931003D01*
X17975472Y-6907500D01*
X17973197Y-6906586D01*
X17903160Y-6899648D01*
X17852802Y-6946593D01*
X17818882Y-7055864D01*
X17798157Y-7235901D01*
X17790691Y-7381881D01*
X17786535Y-7586903D01*
X17595235Y-7586903D01*
X17599978Y-7355286D01*
X17544249Y-7181052D01*
X17427475Y-7064379D01*
X17315238Y-7017970D01*
X17192586Y-6992048D01*
X17109726Y-7000975D01*
X17027475Y-7049091D01*
X17026286Y-7049958D01*
X16933468Y-7142760D01*
X16849569Y-7265440D01*
X16839998Y-7283737D01*
X16763596Y-7437311D01*
X16610883Y-7268275D01*
X16510807Y-7167345D01*
X16430346Y-7119668D01*
X16339530Y-7109866D01*
X16306285Y-7111970D01*
X16208279Y-7130047D01*
X16140332Y-7178298D01*
X16075784Y-7278412D01*
X16056482Y-7315200D01*
X15999870Y-7445567D01*
X15973540Y-7574073D01*
X15970856Y-7738524D01*
X15832468Y-7738524D01*
X15840701Y-7699548D01*
X15820254Y-7484406D01*
X15754340Y-7328485D01*
X15639122Y-7188331D01*
X15519026Y-7126662D01*
X15400962Y-7138119D01*
X15291844Y-7217347D01*
X15198581Y-7358988D01*
X15128087Y-7557684D01*
X15087273Y-7808079D01*
X15084262Y-7847856D01*
X15075991Y-8006068D01*
X14810193Y-8006068D01*
X14832231Y-7835943D01*
X14849732Y-7650578D01*
X14861003Y-7472832D01*
X14864425Y-7324990D01*
X14858379Y-7229332D01*
X14852612Y-7210051D01*
X14798559Y-7162997D01*
X14737657Y-7188554D01*
X14675616Y-7275604D01*
X14618146Y-7413027D01*
X14570958Y-7589706D01*
X14539761Y-7794521D01*
X14537016Y-7824558D01*
X14533292Y-8037066D01*
X14335479Y-8037066D01*
X14383146Y-7898580D01*
X14407335Y-7640449D01*
X14400135Y-7501804D01*
X14368347Y-7409763D01*
X14296694Y-7326775D01*
X14269639Y-7302039D01*
X14164608Y-7222349D01*
X14071246Y-7195975D01*
X13983517Y-7203094D01*
X13797769Y-7273429D01*
X13649596Y-7409504D01*
X13549749Y-7596753D01*
X13508982Y-7820611D01*
X13508566Y-7846497D01*
X12060116Y-7846497D01*
X12110973Y-7700331D01*
X12126848Y-7533770D01*
X12122861Y-7391958D01*
X12098216Y-7301748D01*
X12041623Y-7230597D01*
X12012662Y-7204588D01*
X11895861Y-7128233D01*
X11780125Y-7112063D01*
X11649190Y-7158654D01*
X11486790Y-7270582D01*
X11459991Y-7292122D01*
X11228454Y-7480711D01*
X11202143Y-7366205D01*
X11156684Y-7253695D01*
X11082194Y-7136532D01*
X11076959Y-7129974D01*
X10978086Y-7008249D01*
X10784031Y-7141762D01*
X10603884Y-7293345D01*
X10458082Y-7469542D01*
X10355042Y-7654014D01*
X10303183Y-7830420D01*
X10170511Y-7830420D01*
X10173430Y-7826250D01*
X10243120Y-7708051D01*
X10277527Y-7608362D01*
X10285118Y-7490013D01*
X10278265Y-7366071D01*
X10239401Y-7149923D01*
X10163728Y-7005292D01*
X10056299Y-6934943D01*
X9922169Y-6941637D01*
X9766390Y-7028138D01*
X9724053Y-7063085D01*
X9572790Y-7230112D01*
X9459575Y-7423025D01*
X9389304Y-7623815D01*
X9366873Y-7814474D01*
X9043958Y-7814474D01*
X9158669Y-7676148D01*
X9262209Y-7481549D01*
X9334314Y-7271409D01*
X9359900Y-7088157D01*
X9325923Y-6937203D01*
X9235793Y-6829537D01*
X9107208Y-6780873D01*
X9019940Y-6786317D01*
X8872687Y-6851164D01*
X8715824Y-6971918D01*
X8572906Y-7126584D01*
X8467487Y-7293170D01*
X8460219Y-7308950D01*
X8404365Y-7506742D01*
X8167030Y-7506742D01*
X8235238Y-7406421D01*
X8318259Y-7213528D01*
X8360760Y-7019782D01*
X8354064Y-6848279D01*
X8328476Y-6775972D01*
X8223654Y-6645379D01*
X8090335Y-6583606D01*
X7941758Y-6585806D01*
X7791160Y-6647131D01*
X7651778Y-6762735D01*
X7536849Y-6927771D01*
X7472170Y-7089504D01*
X7430731Y-7325568D01*
X7061971Y-7325568D01*
X7123810Y-7267978D01*
X7236447Y-7100778D01*
X7317997Y-6915419D01*
X7354992Y-6739640D01*
X7350823Y-6653509D01*
X7297274Y-6505736D01*
X7206863Y-6382643D01*
X7098352Y-6302999D01*
X6990505Y-6285573D01*
X6984373Y-6286939D01*
X6793734Y-6376838D01*
X6633382Y-6544646D01*
X6548376Y-6688800D01*
X6460741Y-6921050D01*
X6438744Y-7127503D01*
X5854957Y-7127503D01*
X5867386Y-7116278D01*
X5937522Y-6987116D01*
X5995458Y-6854700D01*
X6074475Y-6676984D01*
X6160453Y-6485666D01*
X6189142Y-6422316D01*
X6283595Y-6203247D01*
X6336872Y-6048323D01*
X6350025Y-5948303D01*
X6324104Y-5893947D01*
X6260160Y-5876012D01*
X6251282Y-5875866D01*
X6159534Y-5914447D01*
X6058188Y-6018846D01*
X5955170Y-6172046D01*
X5858402Y-6357032D01*
X5775809Y-6556788D01*
X5715314Y-6754296D01*
X5684841Y-6932541D01*
X5087697Y-6932541D01*
X4844595Y-6798330D01*
X4215805Y-6408417D01*
X4131733Y-6353487D01*
X4104437Y-6334895D01*
X4496086Y-6334895D01*
X4511999Y-6407781D01*
X4556676Y-6498185D01*
X4680827Y-6652102D01*
X4845411Y-6733651D01*
X5045167Y-6741737D01*
X5274831Y-6675270D01*
X5317293Y-6656088D01*
X5491266Y-6535701D01*
X5616043Y-6373701D01*
X5689234Y-6187279D01*
X5708453Y-5993624D01*
X5671310Y-5809926D01*
X5575417Y-5653377D01*
X5468600Y-5567089D01*
X5279809Y-5498876D01*
X5089807Y-5508463D01*
X4908868Y-5589767D01*
X4747265Y-5736704D01*
X4615271Y-5943190D01*
X4548457Y-6112003D01*
X4508471Y-6247217D01*
X4496086Y-6334895D01*
X4104437Y-6334895D01*
X3658341Y-6031057D01*
X3253176Y-5728578D01*
X2905290Y-5436008D01*
X2603733Y-5143305D01*
X2337556Y-4840426D01*
X2095811Y-4517332D01*
X2039550Y-4434677D01*
X1696509Y-3871573D01*
X1406074Y-3290500D01*
X1171010Y-2701437D01*
X994085Y-2114362D01*
X878069Y-1539254D01*
X825727Y-986092D01*
X839827Y-464854D01*
X871788Y-224366D01*
X993070Y338395D01*
X1156298Y843058D01*
X1368656Y1308726D01*
X1587976Y1680231D01*
X1862561Y2060828D01*
X2159480Y2388759D01*
X2489235Y2671016D01*
X2862328Y2914590D01*
X3289262Y3126472D01*
X3780537Y3313655D01*
X4261181Y3459841D01*
X4511627Y3526043D01*
X4713457Y3568356D01*
X4890011Y3586738D01*
X5064631Y3581148D01*
X5064631Y3581148D01*
G37*
X5064631Y3581148D02*
X5260660Y3551543D01*
X5501440Y3497882D01*
X5664446Y3457328D01*
X6156546Y3300750D01*
X6599845Y3094569D01*
X6985323Y2843960D01*
X7303962Y2554101D01*
X7370233Y2478376D01*
X7665664Y2067751D01*
X7888986Y1633736D01*
X8035639Y1186572D01*
X8091488Y859400D01*
X8106915Y601201D01*
X8106216Y306644D01*
X8091140Y-1226D01*
X8063435Y-299367D01*
X8024850Y-564733D01*
X7977133Y-774281D01*
X7964547Y-813615D01*
X7792742Y-1183562D01*
X7548843Y-1519330D01*
X7241764Y-1811362D01*
X6880419Y-2050098D01*
X6750162Y-2115849D01*
X6540380Y-2209490D01*
X6401789Y-2260568D01*
X6334863Y-2269176D01*
X6340073Y-2235408D01*
X6417895Y-2159358D01*
X6527836Y-2071861D01*
X6725446Y-1909000D01*
X6933239Y-1715927D01*
X7135791Y-1509117D01*
X7317679Y-1305050D01*
X7463479Y-1120200D01*
X7557199Y-972173D01*
X7656539Y-720089D01*
X7712589Y-434040D01*
X7727133Y-99553D01*
X7707192Y244472D01*
X7658851Y645198D01*
X7590538Y979845D01*
X7493835Y1266210D01*
X7360321Y1522090D01*
X7181576Y1765280D01*
X6949180Y2013578D01*
X6806097Y2149002D01*
X6585933Y2341822D01*
X6395864Y2482886D01*
X6212164Y2585795D01*
X6011102Y2664150D01*
X5805739Y2722387D01*
X5634048Y2761351D01*
X5473236Y2785661D01*
X5297320Y2797389D01*
X5080318Y2798608D01*
X4900199Y2794610D01*
X4669497Y2786939D01*
X4501431Y2776564D01*
X4373981Y2759276D01*
X4265131Y2730867D01*
X4152860Y2687127D01*
X4020739Y2626483D01*
X3526607Y2353120D01*
X3096280Y2027609D01*
X2722833Y1644344D01*
X2573717Y1454561D01*
X2447244Y1273563D01*
X2351463Y1108644D01*
X2281780Y942737D01*
X2233599Y758775D01*
X2202328Y539690D01*
X2183371Y268416D01*
X2173057Y-33866D01*
X2167943Y-429048D01*
X2176281Y-758004D01*
X2201216Y-1038545D01*
X2245893Y-1288483D01*
X2313458Y-1525627D01*
X2407055Y-1767791D01*
X2523912Y-2020688D01*
X2759127Y-2467621D01*
X3005769Y-2860365D01*
X3279250Y-3218372D01*
X3594979Y-3561093D01*
X3968368Y-3907977D01*
X4125918Y-4042698D01*
X4675423Y-4460923D01*
X5305674Y-4861579D01*
X6014314Y-5243294D01*
X6798984Y-5604696D01*
X6836353Y-5620590D01*
X7117418Y-5736919D01*
X7380761Y-5838838D01*
X7637254Y-5929032D01*
X7897772Y-6010183D01*
X8173186Y-6084978D01*
X8474370Y-6156101D01*
X8812197Y-6226236D01*
X9197540Y-6298067D01*
X9641270Y-6374280D01*
X10154263Y-6457558D01*
X10354733Y-6489273D01*
X10755936Y-6549101D01*
X11137184Y-6598259D01*
X11511432Y-6637426D01*
X11891636Y-6667281D01*
X12290751Y-6688503D01*
X12721731Y-6701770D01*
X13197532Y-6707763D01*
X13731108Y-6707158D01*
X14335416Y-6700637D01*
X14376400Y-6700040D01*
X14914709Y-6690640D01*
X15385115Y-6678463D01*
X15804370Y-6661958D01*
X16189229Y-6639571D01*
X16556444Y-6609750D01*
X16922770Y-6570942D01*
X17304961Y-6521595D01*
X17719770Y-6460156D01*
X18183951Y-6385071D01*
X18673798Y-6301781D01*
X19206983Y-6210304D01*
X19670937Y-6132168D01*
X20079690Y-6065328D01*
X20447268Y-6007744D01*
X20787699Y-5957373D01*
X21115011Y-5912170D01*
X21443232Y-5870096D01*
X21786388Y-5829105D01*
X22158509Y-5787157D01*
X22356233Y-5765573D01*
X22606782Y-5739113D01*
X22834732Y-5716918D01*
X23051296Y-5698514D01*
X23267686Y-5683422D01*
X23495113Y-5671167D01*
X23744790Y-5661272D01*
X24027928Y-5653260D01*
X24355740Y-5646655D01*
X24739437Y-5640981D01*
X25190232Y-5635761D01*
X25479875Y-5632821D01*
X26239373Y-5627501D01*
X26922823Y-5627474D01*
X27538699Y-5633082D01*
X28095475Y-5644670D01*
X28601625Y-5662581D01*
X29065622Y-5687158D01*
X29495941Y-5718746D01*
X29901056Y-5757687D01*
X30289440Y-5804325D01*
X30526566Y-5837405D01*
X31681034Y-6033907D01*
X32844725Y-6284244D01*
X33995567Y-6582699D01*
X35111489Y-6923555D01*
X36156900Y-7295893D01*
X36460237Y-7407057D01*
X36836021Y-7535772D01*
X37274547Y-7679100D01*
X37766111Y-7834103D01*
X38301009Y-7997844D01*
X38869538Y-8167383D01*
X39461993Y-8339783D01*
X40068671Y-8512106D01*
X40679868Y-8681412D01*
X41173400Y-8814807D01*
X41549592Y-8915253D01*
X41859241Y-8996471D01*
X42117757Y-9060502D01*
X42340547Y-9109389D01*
X42543022Y-9145171D01*
X42740589Y-9169891D01*
X42948659Y-9185589D01*
X43182639Y-9194306D01*
X43457939Y-9198085D01*
X43789967Y-9198966D01*
X44073233Y-9198952D01*
X45406733Y-9199033D01*
X45737310Y-9029700D01*
X45980795Y-8896778D01*
X46167332Y-8771540D01*
X46320145Y-8634455D01*
X46462458Y-8465995D01*
X46548237Y-8347796D01*
X46575721Y-8306480D01*
X46991194Y-8306480D01*
X47095143Y-8208825D01*
X47187205Y-8098164D01*
X47250940Y-7985996D01*
X47276543Y-7867027D01*
X47237197Y-7800194D01*
X47136828Y-7790506D01*
X47103166Y-7797472D01*
X47027388Y-7837925D01*
X46994755Y-7894033D01*
X47013166Y-7939237D01*
X47057733Y-7950200D01*
X47103772Y-7955330D01*
X47116287Y-7983802D01*
X47095127Y-8055238D01*
X47056213Y-8150866D01*
X46991194Y-8306480D01*
X46575721Y-8306480D01*
X46648414Y-8197207D01*
X46749130Y-8033684D01*
X46839709Y-7876097D01*
X46909481Y-7743315D01*
X46947771Y-7654210D01*
X46951900Y-7634107D01*
X46916384Y-7615593D01*
X46869219Y-7611533D01*
X46787856Y-7651008D01*
X46719654Y-7749116D01*
X46642396Y-7879993D01*
X46548637Y-8005169D01*
X46546270Y-8007877D01*
X46439770Y-8129055D01*
X45558447Y-8113123D01*
X44677123Y-8097191D01*
X44491595Y-7929883D01*
X44462815Y-7901677D01*
X44944269Y-7901677D01*
X44948789Y-7933893D01*
X45001746Y-7987726D01*
X45082128Y-7968980D01*
X45151306Y-7909443D01*
X45199095Y-7819534D01*
X45197655Y-7805490D01*
X45538064Y-7805490D01*
X45576082Y-7892664D01*
X45657873Y-7977128D01*
X45749070Y-7980612D01*
X45827163Y-7936391D01*
X45876354Y-7859572D01*
X45865296Y-7768046D01*
X45809522Y-7684856D01*
X45724568Y-7633045D01*
X45625969Y-7635659D01*
X45624739Y-7636124D01*
X45548056Y-7702796D01*
X45538064Y-7805490D01*
X45197655Y-7805490D01*
X45190892Y-7739571D01*
X45131580Y-7697576D01*
X45114129Y-7696200D01*
X45039308Y-7731346D01*
X44974122Y-7812154D01*
X44944269Y-7901677D01*
X44462815Y-7901677D01*
X44389146Y-7829479D01*
X44251931Y-7683983D01*
X44135484Y-7554594D01*
X44369566Y-7554594D01*
X44391705Y-7662601D01*
X44457319Y-7698328D01*
X44565210Y-7661417D01*
X44616564Y-7628606D01*
X44687432Y-7535985D01*
X44697005Y-7423039D01*
X44645397Y-7323747D01*
X44615461Y-7300082D01*
X44529090Y-7286932D01*
X44447835Y-7339638D01*
X44389015Y-7440274D01*
X44369566Y-7554594D01*
X44135484Y-7554594D01*
X44098799Y-7513833D01*
X43965031Y-7358970D01*
X43623995Y-6955366D01*
X43345578Y-6942962D01*
X43067161Y-6930557D01*
X43060050Y-6914821D01*
X43992944Y-6914821D01*
X44039366Y-7010400D01*
X44105368Y-7054559D01*
X44175856Y-7042002D01*
X44271886Y-6967508D01*
X44293166Y-6947446D01*
X44387663Y-6830269D01*
X44401856Y-6731411D01*
X44335875Y-6642752D01*
X44298437Y-6615593D01*
X44219505Y-6569898D01*
X44166993Y-6574090D01*
X44104382Y-6635040D01*
X44086770Y-6655419D01*
X44008254Y-6787478D01*
X43992944Y-6914821D01*
X43060050Y-6914821D01*
X42948410Y-6667795D01*
X42888459Y-6503980D01*
X42984498Y-6503980D01*
X42989051Y-6570783D01*
X43026604Y-6661303D01*
X43079354Y-6671241D01*
X43133433Y-6629400D01*
X43175079Y-6546487D01*
X43176452Y-6520307D01*
X43347574Y-6520307D01*
X43399822Y-6612071D01*
X43491449Y-6687307D01*
X43578216Y-6678324D01*
X43653421Y-6588953D01*
X43680259Y-6474466D01*
X43646436Y-6379552D01*
X43569212Y-6324317D01*
X43465846Y-6328868D01*
X43440147Y-6340509D01*
X43352899Y-6419883D01*
X43347574Y-6520307D01*
X43176452Y-6520307D01*
X43180385Y-6445383D01*
X43148654Y-6368787D01*
X43137837Y-6360189D01*
X43071099Y-6357554D01*
X43014033Y-6413911D01*
X42984498Y-6503980D01*
X42888459Y-6503980D01*
X42870932Y-6456088D01*
X42820635Y-6238419D01*
X42811194Y-6159352D01*
X42805208Y-6010651D01*
X42819588Y-5915258D01*
X42861025Y-5842924D01*
X42888003Y-5812256D01*
X43001729Y-5730833D01*
X44339151Y-5730833D01*
X44413336Y-5809742D01*
X44565064Y-5917026D01*
X44573411Y-5922339D01*
X44711510Y-6005104D01*
X44793367Y-6040265D01*
X44830150Y-6031444D01*
X44835233Y-6007252D01*
X44802991Y-5943051D01*
X44721080Y-5862912D01*
X44611725Y-5781607D01*
X44497149Y-5713910D01*
X44399575Y-5674594D01*
X44341227Y-5678432D01*
X44340970Y-5678684D01*
X44339151Y-5730833D01*
X43001729Y-5730833D01*
X43037674Y-5705098D01*
X43257769Y-5621445D01*
X43536335Y-5565246D01*
X43683335Y-5549499D01*
X43844503Y-5534322D01*
X43950458Y-5511542D01*
X44030435Y-5467473D01*
X44113669Y-5388427D01*
X44177783Y-5318019D01*
X44287927Y-5181219D01*
X44334218Y-5115828D01*
X46447839Y-5115828D01*
X46502861Y-5191606D01*
X46595964Y-5242348D01*
X46714076Y-5301557D01*
X46814424Y-5368713D01*
X46915871Y-5428633D01*
X47004531Y-5452533D01*
X47061699Y-5438685D01*
X47069715Y-5381146D01*
X47060728Y-5336116D01*
X46986413Y-5190221D01*
X46851305Y-5073395D01*
X46678793Y-5005657D01*
X46673404Y-5004615D01*
X46539321Y-5003264D01*
X46462063Y-5046691D01*
X46447839Y-5115828D01*
X44334218Y-5115828D01*
X44414194Y-5002855D01*
X44533275Y-4816284D01*
X44559329Y-4772027D01*
X44677115Y-4581280D01*
X44780600Y-4456948D01*
X44889029Y-4387711D01*
X45021651Y-4362248D01*
X45197712Y-4369238D01*
X45237303Y-4373263D01*
X45443446Y-4404398D01*
X45688634Y-4455250D01*
X45949869Y-4519612D01*
X46204154Y-4591281D01*
X46428492Y-4664051D01*
X46599885Y-4731718D01*
X46641259Y-4752058D01*
X46953402Y-4918370D01*
X47200086Y-5051129D01*
X47390435Y-5156851D01*
X47533575Y-5242052D01*
X47638631Y-5313249D01*
X47714728Y-5376957D01*
X47770991Y-5439694D01*
X47816545Y-5507976D01*
X47860514Y-5588320D01*
X47888897Y-5643033D01*
X47988386Y-5838280D01*
X48049248Y-5971898D01*
X48073652Y-6056449D01*
X48063763Y-6104493D01*
X48021752Y-6128594D01*
X47974302Y-6137957D01*
X47861146Y-6130741D01*
X47803341Y-6079448D01*
X47728108Y-6016441D01*
X47672697Y-6002866D01*
X47586494Y-5968818D01*
X47547559Y-5923792D01*
X47472013Y-5857113D01*
X47343443Y-5808120D01*
X47193163Y-5787020D01*
X47133247Y-5788740D01*
X47035368Y-5760777D01*
X46913639Y-5670193D01*
X46888706Y-5646162D01*
X46658707Y-5462576D01*
X46424656Y-5358737D01*
X46196310Y-5330856D01*
X45983425Y-5375147D01*
X45795759Y-5487824D01*
X45643068Y-5665098D01*
X45535110Y-5903184D01*
X45482093Y-6192121D01*
X45477257Y-6360025D01*
X45498341Y-6487012D01*
X45553025Y-6614840D01*
X45563453Y-6634536D01*
X45722378Y-6854731D01*
X45933782Y-7014885D01*
X46206554Y-7121603D01*
X46225659Y-7126603D01*
X46429826Y-7164818D01*
X46586058Y-7154720D01*
X46719743Y-7090331D01*
X46841079Y-6981739D01*
X46949421Y-6897311D01*
X47076865Y-6870263D01*
X47116929Y-6870237D01*
X47242692Y-6887169D01*
X47339653Y-6923522D01*
X47350799Y-6931488D01*
X47416560Y-6966514D01*
X47446171Y-6962039D01*
X47481808Y-6975671D01*
X47532255Y-7044823D01*
X47535825Y-7051257D01*
X47749780Y-7504998D01*
X47896861Y-7954302D01*
X47973165Y-8385968D01*
X47983263Y-8564033D01*
X47981635Y-8755828D01*
X47964327Y-8899721D01*
X47924416Y-9032023D01*
X47870261Y-9156700D01*
X47688929Y-9480676D01*
X47455656Y-9800265D01*
X47187358Y-10097263D01*
X46900946Y-10353468D01*
X46613337Y-10550677D01*
X46536578Y-10591998D01*
X45948951Y-10842024D01*
X45313258Y-11025748D01*
X44635314Y-11142177D01*
X43920935Y-11190319D01*
X43175937Y-11169179D01*
X43163066Y-11168216D01*
X42716471Y-11122653D01*
X42249427Y-11050809D01*
X41751553Y-10950299D01*
X41212470Y-10818743D01*
X40621800Y-10653756D01*
X39969162Y-10452957D01*
X39775909Y-10390643D01*
X39447030Y-10284960D01*
X39070409Y-10166063D01*
X38679595Y-10044412D01*
X38530850Y-9998785D01*
X39770049Y-9998785D01*
X39775812Y-10023582D01*
X39823479Y-10063449D01*
X39862160Y-10046298D01*
X40398185Y-10046298D01*
X40453371Y-10215493D01*
X40477972Y-10251657D01*
X40578940Y-10342477D01*
X40688603Y-10361117D01*
X40815319Y-10305979D01*
X40967447Y-10175460D01*
X40988551Y-10153884D01*
X41190305Y-9944568D01*
X41203019Y-10162912D01*
X41214595Y-10292996D01*
X41241111Y-10366268D01*
X41299558Y-10410560D01*
X41372654Y-10440776D01*
X41536614Y-10478400D01*
X41683468Y-10451581D01*
X41832931Y-10354563D01*
X41908382Y-10284383D01*
X42069711Y-10123054D01*
X42119939Y-10310850D01*
X42183147Y-10463712D01*
X42278284Y-10600978D01*
X42386862Y-10701453D01*
X42490393Y-10743940D01*
X42497934Y-10744200D01*
X42586507Y-10718941D01*
X42690099Y-10657604D01*
X42697009Y-10652277D01*
X42814970Y-10519595D01*
X42910515Y-10340644D01*
X42949748Y-10206639D01*
X43065773Y-10206639D01*
X43095518Y-10401495D01*
X43150608Y-10583282D01*
X43226417Y-10722631D01*
X43232316Y-10729961D01*
X43327198Y-10783547D01*
X43459309Y-10781897D01*
X43605134Y-10728754D01*
X43714089Y-10653249D01*
X43876604Y-10477680D01*
X43964805Y-10294523D01*
X43988566Y-10108045D01*
X43951345Y-9924532D01*
X43848375Y-9785054D01*
X43692696Y-9702652D01*
X43566387Y-9685866D01*
X43380347Y-9711097D01*
X43219930Y-9778835D01*
X43111672Y-9877151D01*
X43100821Y-9895188D01*
X43065998Y-10028081D01*
X43065773Y-10206639D01*
X42949748Y-10206639D01*
X42965240Y-10153727D01*
X42971636Y-10080698D01*
X42941747Y-9945605D01*
X42864117Y-9817797D01*
X42759511Y-9722733D01*
X42649617Y-9685866D01*
X42548494Y-9705323D01*
X42419170Y-9753707D01*
X42294274Y-9816043D01*
X42206440Y-9877351D01*
X42189773Y-9896928D01*
X42139987Y-9940686D01*
X42101490Y-9909044D01*
X42083833Y-9811250D01*
X42083566Y-9794060D01*
X42052995Y-9652804D01*
X41974815Y-9527824D01*
X41869331Y-9446033D01*
X41808400Y-9429317D01*
X41667342Y-9428536D01*
X41558716Y-9464825D01*
X41441164Y-9552489D01*
X41433867Y-9558866D01*
X41341849Y-9635039D01*
X41276926Y-9680366D01*
X41263061Y-9685866D01*
X41245760Y-9648609D01*
X41237122Y-9557009D01*
X41236900Y-9537700D01*
X41203091Y-9376836D01*
X41105558Y-9269804D01*
X40950143Y-9222174D01*
X40903942Y-9220200D01*
X40719936Y-9256254D01*
X40576455Y-9365417D01*
X40471676Y-9549188D01*
X40457739Y-9587495D01*
X40399492Y-9832097D01*
X40398185Y-10046298D01*
X39862160Y-10046298D01*
X39883545Y-10036816D01*
X39964045Y-9938617D01*
X40001972Y-9880997D01*
X40087894Y-9726153D01*
X40165800Y-9551510D01*
X40229379Y-9376435D01*
X40272322Y-9220295D01*
X40288318Y-9102457D01*
X40274341Y-9045041D01*
X40215283Y-9017103D01*
X40163315Y-9045957D01*
X40103310Y-9121811D01*
X40031516Y-9250711D01*
X39955771Y-9412883D01*
X39883914Y-9588550D01*
X39823782Y-9757940D01*
X39783215Y-9901276D01*
X39770049Y-9998785D01*
X38530850Y-9998785D01*
X38308137Y-9930469D01*
X38061900Y-9856204D01*
X37910667Y-9810430D01*
X39257233Y-9810430D01*
X39260312Y-9828223D01*
X39311193Y-9891237D01*
X39385340Y-9873388D01*
X39431657Y-9834061D01*
X39502306Y-9729685D01*
X39571711Y-9571042D01*
X39633219Y-9382693D01*
X39680178Y-9189204D01*
X39705935Y-9015138D01*
X39703837Y-8885058D01*
X39696282Y-8856956D01*
X39669686Y-8809177D01*
X39630024Y-8822158D01*
X39591357Y-8855427D01*
X39543206Y-8926987D01*
X39483175Y-9055490D01*
X39418477Y-9219744D01*
X39356322Y-9398556D01*
X39303921Y-9570736D01*
X39268488Y-9715091D01*
X39257233Y-9810430D01*
X37910667Y-9810430D01*
X37813349Y-9780975D01*
X37500625Y-9684730D01*
X37140088Y-9572595D01*
X36748093Y-9449694D01*
X36341001Y-9321151D01*
X35935167Y-9192092D01*
X35627733Y-9093630D01*
X35101736Y-8924993D01*
X35026657Y-8901095D01*
X37479875Y-8901095D01*
X37483227Y-9094843D01*
X37541812Y-9225339D01*
X37652432Y-9290608D01*
X37811891Y-9288671D01*
X37904686Y-9257308D01*
X38331840Y-9257308D01*
X38363246Y-9420897D01*
X38424438Y-9549406D01*
X38477825Y-9601329D01*
X38597991Y-9629148D01*
X38743476Y-9597615D01*
X38887210Y-9513887D01*
X38921397Y-9484031D01*
X39075818Y-9296582D01*
X39154600Y-9092384D01*
X39169358Y-8951098D01*
X39148994Y-8751333D01*
X39078774Y-8619668D01*
X38959076Y-8556484D01*
X38790279Y-8562161D01*
X38782969Y-8563725D01*
X38648638Y-8628839D01*
X38516122Y-8751101D01*
X38406847Y-8905292D01*
X38342236Y-9066197D01*
X38338045Y-9087406D01*
X38331840Y-9257308D01*
X37904686Y-9257308D01*
X38002441Y-9224269D01*
X38167189Y-9111138D01*
X38288008Y-8952864D01*
X38357327Y-8770173D01*
X38367580Y-8583794D01*
X38311196Y-8414454D01*
X38302956Y-8401309D01*
X38194066Y-8296469D01*
X38061691Y-8260600D01*
X37918402Y-8286070D01*
X37776772Y-8365244D01*
X37649371Y-8490488D01*
X37548771Y-8654168D01*
X37487545Y-8848652D01*
X37479875Y-8901095D01*
X35026657Y-8901095D01*
X34647392Y-8780374D01*
X34255968Y-8657203D01*
X33918734Y-8552910D01*
X33697451Y-8486181D01*
X34972861Y-8486181D01*
X35004297Y-8636685D01*
X35056233Y-8712200D01*
X35174963Y-8785320D01*
X35315551Y-8782539D01*
X35433051Y-8735529D01*
X35596209Y-8617489D01*
X35733312Y-8455941D01*
X35832856Y-8272366D01*
X35883336Y-8088246D01*
X35873247Y-7925063D01*
X35870959Y-7917879D01*
X35809336Y-7810854D01*
X35726924Y-7727195D01*
X35646898Y-7677273D01*
X35575526Y-7672479D01*
X35473617Y-7708280D01*
X35309941Y-7809034D01*
X35170768Y-7954664D01*
X35063356Y-8127708D01*
X34994967Y-8310701D01*
X34972861Y-8486181D01*
X33697451Y-8486181D01*
X33626959Y-8464924D01*
X33371911Y-8390675D01*
X33144860Y-8327590D01*
X32937075Y-8273101D01*
X32739824Y-8224635D01*
X32544376Y-8179623D01*
X32460255Y-8161027D01*
X31939380Y-8054769D01*
X31359260Y-7949760D01*
X30743513Y-7849473D01*
X30457382Y-7807495D01*
X32892716Y-7807495D01*
X32910554Y-7904940D01*
X32962248Y-7946095D01*
X33047655Y-7920477D01*
X33052306Y-7917575D01*
X33090831Y-7864018D01*
X33147253Y-7751525D01*
X33151797Y-7741121D01*
X33394022Y-7741121D01*
X33408119Y-7911048D01*
X33466762Y-8044834D01*
X33560770Y-8131565D01*
X33680963Y-8160326D01*
X33818160Y-8120200D01*
X33881252Y-8078143D01*
X33933375Y-8018995D01*
X34173361Y-8018995D01*
X34184952Y-8198790D01*
X34254972Y-8346657D01*
X34334256Y-8427408D01*
X34417867Y-8453291D01*
X34532860Y-8428270D01*
X34609053Y-8398547D01*
X34741560Y-8306079D01*
X34861247Y-8157756D01*
X34956686Y-7977844D01*
X35016451Y-7790609D01*
X35029113Y-7620317D01*
X35011963Y-7542939D01*
X34951257Y-7428046D01*
X34864924Y-7372638D01*
X34729623Y-7358181D01*
X34566334Y-7396407D01*
X34420106Y-7500256D01*
X34299896Y-7651074D01*
X34214662Y-7830205D01*
X34173361Y-8018995D01*
X33933375Y-8018995D01*
X33988686Y-7956230D01*
X34084340Y-7782846D01*
X34152946Y-7591113D01*
X34178853Y-7432621D01*
X34151291Y-7273172D01*
X34063100Y-7159322D01*
X33927241Y-7105776D01*
X33888849Y-7103533D01*
X33771402Y-7139638D01*
X33644157Y-7234482D01*
X33527907Y-7367854D01*
X33443445Y-7519544D01*
X33433651Y-7545970D01*
X33394022Y-7741121D01*
X33151797Y-7741121D01*
X33212780Y-7601511D01*
X33278617Y-7435390D01*
X33335972Y-7274577D01*
X33376050Y-7140485D01*
X33382239Y-7114116D01*
X33396309Y-7020578D01*
X33372374Y-6983166D01*
X33301110Y-6976533D01*
X33240087Y-6986385D01*
X33187488Y-7026224D01*
X33130332Y-7111469D01*
X33055639Y-7257540D01*
X33043746Y-7282255D01*
X32959171Y-7485670D01*
X32908875Y-7664245D01*
X32892716Y-7807495D01*
X30457382Y-7807495D01*
X30115759Y-7757376D01*
X29499617Y-7676942D01*
X28918706Y-7611641D01*
X28411113Y-7566031D01*
X28050749Y-7545594D01*
X27621489Y-7532655D01*
X27138746Y-7526892D01*
X26617929Y-7527988D01*
X26074448Y-7535620D01*
X25523714Y-7549470D01*
X24981138Y-7569218D01*
X24462130Y-7594544D01*
X23982101Y-7625127D01*
X23556460Y-7660649D01*
X23478066Y-7668435D01*
X23145054Y-7701884D01*
X22800964Y-7735258D01*
X22467199Y-7766566D01*
X22165164Y-7793815D01*
X21916260Y-7815015D01*
X21827066Y-7822067D01*
X21527097Y-7846595D01*
X21238447Y-7874089D01*
X20948232Y-7906315D01*
X20643565Y-7945037D01*
X20311563Y-7992021D01*
X19939339Y-8049032D01*
X19514010Y-8117834D01*
X19022689Y-8200192D01*
X18842566Y-8230869D01*
X18258146Y-8330139D01*
X17746701Y-8415320D01*
X17297905Y-8487481D01*
X16901435Y-8547688D01*
X16546966Y-8597011D01*
X16224174Y-8636517D01*
X15922734Y-8667275D01*
X15632321Y-8690352D01*
X15342611Y-8706816D01*
X15043280Y-8717735D01*
X14724003Y-8724178D01*
X14374456Y-8727213D01*
X14037733Y-8727911D01*
X12960030Y-8714226D01*
X11954703Y-8672329D01*
X11014016Y-8601404D01*
X10130232Y-8500633D01*
X9295616Y-8369200D01*
X8502431Y-8206288D01*
X8055527Y-8096324D01*
X7331843Y-7891369D01*
X6670678Y-7668762D01*
X6050262Y-7418832D01*
X5448824Y-7131912D01*
X5087697Y-6932541D01*
X5684841Y-6932541D01*
X5692314Y-7074508D01*
X5692594Y-7075636D01*
X5736337Y-7167245D01*
X5796858Y-7179976D01*
X5854957Y-7127503D01*
X6438744Y-7127503D01*
X6482469Y-7297704D01*
X6542809Y-7380624D01*
X6671362Y-7466191D01*
X6812765Y-7472820D01*
X6975915Y-7400682D01*
X6993556Y-7389283D01*
X7061971Y-7325568D01*
X7430731Y-7325568D01*
X7453169Y-7520739D01*
X7538199Y-7667137D01*
X7571293Y-7696943D01*
X7700959Y-7767947D01*
X7832426Y-7766990D01*
X7982346Y-7697263D01*
X8120375Y-7575364D01*
X8167030Y-7506742D01*
X8404365Y-7506742D01*
X8412985Y-7679775D01*
X8474885Y-7818152D01*
X8578870Y-7911972D01*
X8713745Y-7951336D01*
X8868317Y-7926343D01*
X9031391Y-7827096D01*
X9038840Y-7820646D01*
X9043958Y-7814474D01*
X9366873Y-7814474D01*
X9397180Y-7976991D01*
X9451945Y-8063888D01*
X9570715Y-8144017D01*
X9716087Y-8152854D01*
X9898544Y-8091031D01*
X9898961Y-8090833D01*
X10020431Y-8004778D01*
X10139852Y-7874231D01*
X10170511Y-7830420D01*
X10303183Y-7830420D01*
X10310924Y-7982422D01*
X10328644Y-8025670D01*
X10399098Y-8097224D01*
X10509552Y-8156748D01*
X10523993Y-8161842D01*
X10638948Y-8188129D01*
X10739804Y-8172898D01*
X10831235Y-8133482D01*
X10957685Y-8047786D01*
X11062447Y-7937858D01*
X11074400Y-7920080D01*
X11134626Y-7831873D01*
X11177045Y-7784809D01*
X11182312Y-7782497D01*
X11210244Y-7816906D01*
X11249779Y-7904027D01*
X11258672Y-7927751D01*
X11351260Y-8092550D01*
X11479000Y-8198594D01*
X11625356Y-8239950D01*
X11773791Y-8210686D01*
X11868456Y-8146516D01*
X12025846Y-7944995D01*
X12060116Y-7846497D01*
X13508566Y-7846497D01*
X13542270Y-8029760D01*
X13632363Y-8177510D01*
X13762323Y-8280180D01*
X13915625Y-8328200D01*
X14075744Y-8312004D01*
X14198293Y-8245871D01*
X14312274Y-8104485D01*
X14335479Y-8037066D01*
X14533292Y-8037066D01*
X14561151Y-8187505D01*
X14618439Y-8269230D01*
X14684671Y-8280546D01*
X14743080Y-8233602D01*
X14785013Y-8140409D01*
X14810118Y-8006648D01*
X14810193Y-8006068D01*
X15075991Y-8006068D01*
X15080846Y-8104208D01*
X15104850Y-8166572D01*
X15154026Y-8217457D01*
X15181330Y-8239439D01*
X15281606Y-8308139D01*
X15362858Y-8324147D01*
X15459126Y-8288176D01*
X15530370Y-8246762D01*
X15690298Y-8103120D01*
X15795562Y-7913251D01*
X15832468Y-7738524D01*
X15970856Y-7738524D01*
X15973119Y-7790030D01*
X15986420Y-7953684D01*
X16012360Y-8062473D01*
X16060856Y-8146154D01*
X16110707Y-8202780D01*
X16228152Y-8300971D01*
X16333400Y-8323094D01*
X16448609Y-8270466D01*
X16505494Y-8226223D01*
X16604834Y-8120360D01*
X16678572Y-8004117D01*
X16682511Y-7995079D01*
X16734772Y-7868912D01*
X16872918Y-8015389D01*
X17018362Y-8123629D01*
X17166823Y-8154114D01*
X17308314Y-8112752D01*
X17432846Y-8005450D01*
X17530431Y-7838115D01*
X17591081Y-7616655D01*
X17595209Y-7588192D01*
X17595235Y-7586903D01*
X17786535Y-7586903D01*
X17793382Y-7727456D01*
X17813390Y-7823274D01*
X17846306Y-7890463D01*
X17907392Y-7967869D01*
X17953481Y-7985073D01*
X17986724Y-7936865D01*
X18009276Y-7818036D01*
X18023288Y-7623375D01*
X18028959Y-7448498D01*
X18029217Y-7432786D01*
X18207566Y-7432786D01*
X18219003Y-7642363D01*
X18256894Y-7783813D01*
X18326610Y-7871010D01*
X18390250Y-7904691D01*
X18501269Y-7923197D01*
X18609865Y-7883528D01*
X18710439Y-7806308D01*
X18840600Y-7638352D01*
X18911800Y-7430340D01*
X18916835Y-7289979D01*
X19141572Y-7289979D01*
X19143825Y-7468612D01*
X19157007Y-7612349D01*
X19178892Y-7691826D01*
X19241358Y-7769388D01*
X19301955Y-7762474D01*
X19349077Y-7698983D01*
X19372483Y-7610407D01*
X19387089Y-7464677D01*
X19393163Y-7285409D01*
X19391907Y-7176827D01*
X21130510Y-7176827D01*
X21171883Y-7333368D01*
X21203591Y-7383768D01*
X21347876Y-7511995D01*
X21503719Y-7564010D01*
X21659506Y-7536355D01*
X21680712Y-7525896D01*
X21728283Y-7481938D01*
X31085151Y-7481938D01*
X31110866Y-7619744D01*
X31162827Y-7688855D01*
X31237907Y-7684020D01*
X31300327Y-7636057D01*
X31337423Y-7562740D01*
X31370178Y-7436507D01*
X31370807Y-7432299D01*
X31576744Y-7432299D01*
X31577714Y-7599690D01*
X31623559Y-7712940D01*
X31701593Y-7773970D01*
X31770474Y-7755330D01*
X31832114Y-7655349D01*
X31885565Y-7484087D01*
X31899090Y-7437073D01*
X32177566Y-7437073D01*
X32201113Y-7623169D01*
X32269351Y-7737936D01*
X32378675Y-7779586D01*
X32525481Y-7746331D01*
X32654447Y-7673592D01*
X32802354Y-7538474D01*
X32908953Y-7372602D01*
X32968662Y-7195372D01*
X32975902Y-7026176D01*
X32925093Y-6884411D01*
X32892823Y-6845123D01*
X32773729Y-6781478D01*
X32623920Y-6793050D01*
X32450128Y-6879119D01*
X32427365Y-6894858D01*
X32278945Y-7045505D01*
X32197227Y-7241929D01*
X32177566Y-7437073D01*
X31899090Y-7437073D01*
X31941854Y-7288432D01*
X32015486Y-7073521D01*
X32068107Y-6939821D01*
X32137036Y-6754298D01*
X32157347Y-6632147D01*
X32129143Y-6567495D01*
X32074711Y-6553200D01*
X31982102Y-6593834D01*
X31875605Y-6712649D01*
X31758954Y-6905015D01*
X31705868Y-7010723D01*
X31620147Y-7230135D01*
X31576744Y-7432299D01*
X31370807Y-7432299D01*
X31386305Y-7328734D01*
X31413230Y-7152082D01*
X31453227Y-6975865D01*
X31477353Y-6896721D01*
X31527723Y-6715660D01*
X31541625Y-6573635D01*
X31522171Y-6480220D01*
X31472476Y-6444987D01*
X31395654Y-6477511D01*
X31353606Y-6516230D01*
X31239308Y-6686392D01*
X31151682Y-6920620D01*
X31097000Y-7200812D01*
X31088807Y-7280691D01*
X31085151Y-7481938D01*
X21728283Y-7481938D01*
X21795350Y-7419966D01*
X21869435Y-7260327D01*
X21902302Y-7067955D01*
X21893972Y-6879451D01*
X22215836Y-6879451D01*
X22220165Y-7067292D01*
X22234710Y-7228070D01*
X22259454Y-7335580D01*
X22264823Y-7346950D01*
X22321791Y-7425758D01*
X22383812Y-7431786D01*
X22459054Y-7386137D01*
X22497561Y-7350029D01*
X22514975Y-7300035D01*
X22512759Y-7214970D01*
X22492376Y-7073651D01*
X22484068Y-7023815D01*
X22463488Y-6864518D01*
X22828247Y-6864518D01*
X22831613Y-7047949D01*
X22846051Y-7189509D01*
X22859397Y-7241116D01*
X22910096Y-7335274D01*
X22965960Y-7350269D01*
X23025100Y-7306733D01*
X23049979Y-7239280D01*
X23067028Y-7108738D01*
X23076382Y-6936307D01*
X23078177Y-6743189D01*
X23076609Y-6689544D01*
X23499233Y-6689544D01*
X23504959Y-6949558D01*
X23523472Y-7133241D01*
X23556774Y-7248238D01*
X23606869Y-7302194D01*
X23660839Y-7306460D01*
X23689639Y-7291922D01*
X23709549Y-7252678D01*
X23722150Y-7175582D01*
X23729026Y-7047488D01*
X23731757Y-6855252D01*
X23732066Y-6714664D01*
X23731443Y-6653944D01*
X24066782Y-6653944D01*
X24073884Y-6864159D01*
X24121663Y-7057903D01*
X24207392Y-7214268D01*
X24321355Y-7309080D01*
X24459909Y-7351069D01*
X24581680Y-7321333D01*
X24653684Y-7272945D01*
X24748081Y-7158007D01*
X24827047Y-6987521D01*
X24879828Y-6790473D01*
X24889867Y-6684974D01*
X25150233Y-6684974D01*
X25158720Y-6952771D01*
X25183983Y-7140416D01*
X25225722Y-7247139D01*
X25283638Y-7272172D01*
X25356738Y-7215585D01*
X25379574Y-7149148D01*
X25401079Y-7019681D01*
X25419742Y-6848823D01*
X25430449Y-6706196D01*
X25677077Y-6706196D01*
X25735582Y-6902481D01*
X25811847Y-7017620D01*
X25945784Y-7121243D01*
X26096852Y-7148715D01*
X26245768Y-7099006D01*
X26313868Y-7044413D01*
X26395935Y-6924861D01*
X26466011Y-6757986D01*
X26489270Y-6670310D01*
X26766354Y-6670310D01*
X26804812Y-6863452D01*
X26882206Y-7005488D01*
X26990988Y-7088912D01*
X27123616Y-7106215D01*
X27272541Y-7049891D01*
X27342499Y-6998833D01*
X27452450Y-6859546D01*
X27502716Y-6733530D01*
X29101849Y-6733530D01*
X29107150Y-6880573D01*
X29157908Y-7035399D01*
X29240487Y-7174751D01*
X29341254Y-7275366D01*
X29442069Y-7313912D01*
X29499346Y-7294202D01*
X29594408Y-7243737D01*
X29619944Y-7228342D01*
X29737435Y-7119451D01*
X29847767Y-6955712D01*
X29859473Y-6930493D01*
X30114457Y-6930493D01*
X30131314Y-7117776D01*
X30187145Y-7276659D01*
X30275481Y-7390050D01*
X30389853Y-7440858D01*
X30411799Y-7442041D01*
X30510567Y-7420209D01*
X30627672Y-7367082D01*
X30640683Y-7359396D01*
X30797190Y-7232178D01*
X30886752Y-7073788D01*
X30919133Y-6865655D01*
X30919661Y-6828768D01*
X30895365Y-6585963D01*
X30823916Y-6407550D01*
X30707479Y-6296790D01*
X30548215Y-6256940D01*
X30540156Y-6256866D01*
X30456921Y-6291736D01*
X30356669Y-6381831D01*
X30257599Y-6505384D01*
X30177908Y-6640623D01*
X30143043Y-6731903D01*
X30114457Y-6930493D01*
X29859473Y-6930493D01*
X29935576Y-6766544D01*
X29985495Y-6581366D01*
X29991360Y-6517210D01*
X29963935Y-6334644D01*
X29880525Y-6198472D01*
X29755344Y-6118805D01*
X29602610Y-6105750D01*
X29472969Y-6148584D01*
X29357163Y-6242857D01*
X29244387Y-6391319D01*
X29153081Y-6564906D01*
X29101849Y-6733530D01*
X27502716Y-6733530D01*
X27526807Y-6673135D01*
X27554686Y-6473459D01*
X27545655Y-6366942D01*
X27487516Y-6228977D01*
X27381794Y-6106785D01*
X27253932Y-6024291D01*
X27158486Y-6002866D01*
X27023783Y-6041845D01*
X26902529Y-6145574D01*
X26812390Y-6294241D01*
X26774376Y-6433571D01*
X26766354Y-6670310D01*
X26489270Y-6670310D01*
X26513904Y-6577455D01*
X26529420Y-6416941D01*
X26522205Y-6356173D01*
X26452361Y-6189559D01*
X26343337Y-6077521D01*
X26209980Y-6030770D01*
X26094921Y-6047887D01*
X25902619Y-6159394D01*
X25765564Y-6317630D01*
X25688727Y-6505571D01*
X25677077Y-6706196D01*
X25430449Y-6706196D01*
X25434052Y-6658209D01*
X25442499Y-6469477D01*
X25443571Y-6304265D01*
X25435758Y-6184208D01*
X25430665Y-6156940D01*
X25379856Y-6067519D01*
X25305196Y-6049248D01*
X25229314Y-6102511D01*
X25199361Y-6153025D01*
X25178205Y-6241055D01*
X25161620Y-6389228D01*
X25151867Y-6573054D01*
X25150233Y-6684974D01*
X24889867Y-6684974D01*
X24896075Y-6619742D01*
X24858920Y-6415645D01*
X24757432Y-6238101D01*
X24605994Y-6111915D01*
X24599656Y-6108573D01*
X24466483Y-6064299D01*
X24353035Y-6088377D01*
X24244385Y-6186544D01*
X24185520Y-6267728D01*
X24103085Y-6448164D01*
X24066782Y-6653944D01*
X23731443Y-6653944D01*
X23729873Y-6501131D01*
X23723862Y-6318455D01*
X23714884Y-6183103D01*
X23703790Y-6111543D01*
X23700576Y-6105328D01*
X23650400Y-6106945D01*
X23584159Y-6150798D01*
X23546204Y-6194137D01*
X23521472Y-6253417D01*
X23507225Y-6346002D01*
X23500725Y-6489258D01*
X23499233Y-6689544D01*
X23076609Y-6689544D01*
X23072547Y-6550584D01*
X23059631Y-6379695D01*
X23039562Y-6251722D01*
X23017972Y-6193828D01*
X22973182Y-6142675D01*
X22939932Y-6156747D01*
X22903659Y-6217487D01*
X22873660Y-6315700D01*
X22850364Y-6473123D01*
X22834862Y-6664486D01*
X22828247Y-6864518D01*
X22463488Y-6864518D01*
X22461614Y-6850020D01*
X22452517Y-6689475D01*
X22458674Y-6577561D01*
X22466686Y-6437805D01*
X22439482Y-6341091D01*
X22389092Y-6297441D01*
X22327545Y-6316876D01*
X22266869Y-6409418D01*
X22264289Y-6415616D01*
X22237883Y-6527408D01*
X22221737Y-6690755D01*
X22215836Y-6879451D01*
X21893972Y-6879451D01*
X21893281Y-6863826D01*
X21841704Y-6668915D01*
X21746903Y-6504199D01*
X21714400Y-6468213D01*
X21591096Y-6370159D01*
X21485638Y-6349204D01*
X21383688Y-6404134D01*
X21349633Y-6437361D01*
X21244619Y-6590881D01*
X21170608Y-6781413D01*
X21131328Y-6984785D01*
X21130510Y-7176827D01*
X19391907Y-7176827D01*
X19390974Y-7096222D01*
X19380791Y-6920732D01*
X19362884Y-6782559D01*
X19337756Y-6705635D01*
X19290754Y-6653869D01*
X19250337Y-6670791D01*
X19221339Y-6703933D01*
X19190132Y-6783425D01*
X19165752Y-6923512D01*
X19149223Y-7100321D01*
X19141572Y-7289979D01*
X18916835Y-7289979D01*
X18919819Y-7206808D01*
X18860436Y-6992290D01*
X18853084Y-6977122D01*
X18752902Y-6839195D01*
X18629690Y-6762175D01*
X18501409Y-6756668D01*
X18487196Y-6761081D01*
X18387321Y-6836621D01*
X18302160Y-6976524D01*
X18240067Y-7160729D01*
X18209393Y-7369171D01*
X18207566Y-7432786D01*
X18029217Y-7432786D01*
X18032597Y-7227462D01*
X18030515Y-7076914D01*
X18021266Y-6982785D01*
X18003401Y-6931003D01*
X17975472Y-6907500D01*
X17973197Y-6906586D01*
X17903160Y-6899648D01*
X17852802Y-6946593D01*
X17818882Y-7055864D01*
X17798157Y-7235901D01*
X17790691Y-7381881D01*
X17786535Y-7586903D01*
X17595235Y-7586903D01*
X17599978Y-7355286D01*
X17544249Y-7181052D01*
X17427475Y-7064379D01*
X17315238Y-7017970D01*
X17192586Y-6992048D01*
X17109726Y-7000975D01*
X17027475Y-7049091D01*
X17026286Y-7049958D01*
X16933468Y-7142760D01*
X16849569Y-7265440D01*
X16839998Y-7283737D01*
X16763596Y-7437311D01*
X16610883Y-7268275D01*
X16510807Y-7167345D01*
X16430346Y-7119668D01*
X16339530Y-7109866D01*
X16306285Y-7111970D01*
X16208279Y-7130047D01*
X16140332Y-7178298D01*
X16075784Y-7278412D01*
X16056482Y-7315200D01*
X15999870Y-7445567D01*
X15973540Y-7574073D01*
X15970856Y-7738524D01*
X15832468Y-7738524D01*
X15840701Y-7699548D01*
X15820254Y-7484406D01*
X15754340Y-7328485D01*
X15639122Y-7188331D01*
X15519026Y-7126662D01*
X15400962Y-7138119D01*
X15291844Y-7217347D01*
X15198581Y-7358988D01*
X15128087Y-7557684D01*
X15087273Y-7808079D01*
X15084262Y-7847856D01*
X15075991Y-8006068D01*
X14810193Y-8006068D01*
X14832231Y-7835943D01*
X14849732Y-7650578D01*
X14861003Y-7472832D01*
X14864425Y-7324990D01*
X14858379Y-7229332D01*
X14852612Y-7210051D01*
X14798559Y-7162997D01*
X14737657Y-7188554D01*
X14675616Y-7275604D01*
X14618146Y-7413027D01*
X14570958Y-7589706D01*
X14539761Y-7794521D01*
X14537016Y-7824558D01*
X14533292Y-8037066D01*
X14335479Y-8037066D01*
X14383146Y-7898580D01*
X14407335Y-7640449D01*
X14400135Y-7501804D01*
X14368347Y-7409763D01*
X14296694Y-7326775D01*
X14269639Y-7302039D01*
X14164608Y-7222349D01*
X14071246Y-7195975D01*
X13983517Y-7203094D01*
X13797769Y-7273429D01*
X13649596Y-7409504D01*
X13549749Y-7596753D01*
X13508982Y-7820611D01*
X13508566Y-7846497D01*
X12060116Y-7846497D01*
X12110973Y-7700331D01*
X12126848Y-7533770D01*
X12122861Y-7391958D01*
X12098216Y-7301748D01*
X12041623Y-7230597D01*
X12012662Y-7204588D01*
X11895861Y-7128233D01*
X11780125Y-7112063D01*
X11649190Y-7158654D01*
X11486790Y-7270582D01*
X11459991Y-7292122D01*
X11228454Y-7480711D01*
X11202143Y-7366205D01*
X11156684Y-7253695D01*
X11082194Y-7136532D01*
X11076959Y-7129974D01*
X10978086Y-7008249D01*
X10784031Y-7141762D01*
X10603884Y-7293345D01*
X10458082Y-7469542D01*
X10355042Y-7654014D01*
X10303183Y-7830420D01*
X10170511Y-7830420D01*
X10173430Y-7826250D01*
X10243120Y-7708051D01*
X10277527Y-7608362D01*
X10285118Y-7490013D01*
X10278265Y-7366071D01*
X10239401Y-7149923D01*
X10163728Y-7005292D01*
X10056299Y-6934943D01*
X9922169Y-6941637D01*
X9766390Y-7028138D01*
X9724053Y-7063085D01*
X9572790Y-7230112D01*
X9459575Y-7423025D01*
X9389304Y-7623815D01*
X9366873Y-7814474D01*
X9043958Y-7814474D01*
X9158669Y-7676148D01*
X9262209Y-7481549D01*
X9334314Y-7271409D01*
X9359900Y-7088157D01*
X9325923Y-6937203D01*
X9235793Y-6829537D01*
X9107208Y-6780873D01*
X9019940Y-6786317D01*
X8872687Y-6851164D01*
X8715824Y-6971918D01*
X8572906Y-7126584D01*
X8467487Y-7293170D01*
X8460219Y-7308950D01*
X8404365Y-7506742D01*
X8167030Y-7506742D01*
X8235238Y-7406421D01*
X8318259Y-7213528D01*
X8360760Y-7019782D01*
X8354064Y-6848279D01*
X8328476Y-6775972D01*
X8223654Y-6645379D01*
X8090335Y-6583606D01*
X7941758Y-6585806D01*
X7791160Y-6647131D01*
X7651778Y-6762735D01*
X7536849Y-6927771D01*
X7472170Y-7089504D01*
X7430731Y-7325568D01*
X7061971Y-7325568D01*
X7123810Y-7267978D01*
X7236447Y-7100778D01*
X7317997Y-6915419D01*
X7354992Y-6739640D01*
X7350823Y-6653509D01*
X7297274Y-6505736D01*
X7206863Y-6382643D01*
X7098352Y-6302999D01*
X6990505Y-6285573D01*
X6984373Y-6286939D01*
X6793734Y-6376838D01*
X6633382Y-6544646D01*
X6548376Y-6688800D01*
X6460741Y-6921050D01*
X6438744Y-7127503D01*
X5854957Y-7127503D01*
X5867386Y-7116278D01*
X5937522Y-6987116D01*
X5995458Y-6854700D01*
X6074475Y-6676984D01*
X6160453Y-6485666D01*
X6189142Y-6422316D01*
X6283595Y-6203247D01*
X6336872Y-6048323D01*
X6350025Y-5948303D01*
X6324104Y-5893947D01*
X6260160Y-5876012D01*
X6251282Y-5875866D01*
X6159534Y-5914447D01*
X6058188Y-6018846D01*
X5955170Y-6172046D01*
X5858402Y-6357032D01*
X5775809Y-6556788D01*
X5715314Y-6754296D01*
X5684841Y-6932541D01*
X5087697Y-6932541D01*
X4844595Y-6798330D01*
X4215805Y-6408417D01*
X4131733Y-6353487D01*
X4104437Y-6334895D01*
X4496086Y-6334895D01*
X4511999Y-6407781D01*
X4556676Y-6498185D01*
X4680827Y-6652102D01*
X4845411Y-6733651D01*
X5045167Y-6741737D01*
X5274831Y-6675270D01*
X5317293Y-6656088D01*
X5491266Y-6535701D01*
X5616043Y-6373701D01*
X5689234Y-6187279D01*
X5708453Y-5993624D01*
X5671310Y-5809926D01*
X5575417Y-5653377D01*
X5468600Y-5567089D01*
X5279809Y-5498876D01*
X5089807Y-5508463D01*
X4908868Y-5589767D01*
X4747265Y-5736704D01*
X4615271Y-5943190D01*
X4548457Y-6112003D01*
X4508471Y-6247217D01*
X4496086Y-6334895D01*
X4104437Y-6334895D01*
X3658341Y-6031057D01*
X3253176Y-5728578D01*
X2905290Y-5436008D01*
X2603733Y-5143305D01*
X2337556Y-4840426D01*
X2095811Y-4517332D01*
X2039550Y-4434677D01*
X1696509Y-3871573D01*
X1406074Y-3290500D01*
X1171010Y-2701437D01*
X994085Y-2114362D01*
X878069Y-1539254D01*
X825727Y-986092D01*
X839827Y-464854D01*
X871788Y-224366D01*
X993070Y338395D01*
X1156298Y843058D01*
X1368656Y1308726D01*
X1587976Y1680231D01*
X1862561Y2060828D01*
X2159480Y2388759D01*
X2489235Y2671016D01*
X2862328Y2914590D01*
X3289262Y3126472D01*
X3780537Y3313655D01*
X4261181Y3459841D01*
X4511627Y3526043D01*
X4713457Y3568356D01*
X4890011Y3586738D01*
X5064631Y3581148D01*
D11*
G36*
X1813659Y-12242534D02*
G01*
X1828811Y-12254972D01*
X1846098Y-12264216D01*
X1864856Y-12269909D01*
X1884359Y-12271833D01*
X2005086Y-12271854D01*
X2102309Y-12271871D01*
X2121818Y-12269953D01*
X2140578Y-12264266D01*
X2157878Y-12255021D01*
X2278790Y-12174230D01*
X2382075Y-12131448D01*
X2442577Y-12106387D01*
X2442578Y-12106387D01*
X2442580Y-12106386D01*
X2616458Y-12071800D01*
X2793742Y-12071800D01*
X2967620Y-12106386D01*
X2967622Y-12106387D01*
X2967623Y-12106387D01*
X3028125Y-12131448D01*
X3131410Y-12174230D01*
X3252322Y-12255021D01*
X3269606Y-12264259D01*
X3288365Y-12269950D01*
X3307891Y-12271871D01*
X3405114Y-12271854D01*
X3525841Y-12271833D01*
X3545347Y-12269908D01*
X3564105Y-12264214D01*
X3581392Y-12254970D01*
X3596541Y-12242534D01*
X3892190Y-11946800D01*
X4058010Y-11946800D01*
X4353659Y-12242534D01*
X4368811Y-12254972D01*
X4386098Y-12264216D01*
X4404856Y-12269909D01*
X4424359Y-12271833D01*
X4545086Y-12271854D01*
X4642309Y-12271871D01*
X4661818Y-12269953D01*
X4680578Y-12264266D01*
X4697878Y-12255021D01*
X4818790Y-12174230D01*
X4922075Y-12131448D01*
X4982577Y-12106387D01*
X4982578Y-12106387D01*
X4982580Y-12106386D01*
X5156458Y-12071800D01*
X5333742Y-12071800D01*
X5507620Y-12106386D01*
X5507622Y-12106387D01*
X5507623Y-12106387D01*
X5568125Y-12131448D01*
X5671410Y-12174230D01*
X5792322Y-12255021D01*
X5809606Y-12264259D01*
X5828365Y-12269950D01*
X5847891Y-12271871D01*
X5945114Y-12271854D01*
X6065841Y-12271833D01*
X6085347Y-12269908D01*
X6104105Y-12264214D01*
X6121392Y-12254970D01*
X6136541Y-12242534D01*
X6432190Y-11946800D01*
X6598010Y-11946800D01*
X6893659Y-12242534D01*
X6908811Y-12254972D01*
X6926098Y-12264216D01*
X6944856Y-12269909D01*
X6964359Y-12271833D01*
X7085086Y-12271854D01*
X7182309Y-12271871D01*
X7201818Y-12269953D01*
X7220578Y-12264266D01*
X7237878Y-12255021D01*
X7358790Y-12174230D01*
X7462075Y-12131448D01*
X7522577Y-12106387D01*
X7522578Y-12106387D01*
X7522580Y-12106386D01*
X7696458Y-12071800D01*
X7873742Y-12071800D01*
X8047620Y-12106386D01*
X8047622Y-12106387D01*
X8047623Y-12106387D01*
X8108125Y-12131448D01*
X8211410Y-12174230D01*
X8332322Y-12255021D01*
X8349606Y-12264259D01*
X8368365Y-12269950D01*
X8387891Y-12271871D01*
X8485114Y-12271854D01*
X8605841Y-12271833D01*
X8625347Y-12269908D01*
X8644105Y-12264214D01*
X8661392Y-12254970D01*
X8676541Y-12242534D01*
X8972190Y-11946800D01*
X9138010Y-11946800D01*
X9433659Y-12242534D01*
X9448811Y-12254972D01*
X9466098Y-12264216D01*
X9484856Y-12269909D01*
X9504359Y-12271833D01*
X9625086Y-12271854D01*
X9722309Y-12271871D01*
X9741818Y-12269953D01*
X9760578Y-12264266D01*
X9777878Y-12255021D01*
X9898790Y-12174230D01*
X10002075Y-12131448D01*
X10062577Y-12106387D01*
X10062578Y-12106387D01*
X10062580Y-12106386D01*
X10236458Y-12071800D01*
X10413742Y-12071800D01*
X10587620Y-12106386D01*
X10587622Y-12106387D01*
X10587623Y-12106387D01*
X10648125Y-12131448D01*
X10751410Y-12174230D01*
X10872322Y-12255021D01*
X10889606Y-12264259D01*
X10908365Y-12269950D01*
X10927891Y-12271871D01*
X11025114Y-12271854D01*
X11145841Y-12271833D01*
X11165347Y-12269908D01*
X11184105Y-12264214D01*
X11201392Y-12254970D01*
X11216541Y-12242534D01*
X11512190Y-11946800D01*
X11678010Y-11946800D01*
X11973659Y-12242534D01*
X11988811Y-12254972D01*
X12006098Y-12264216D01*
X12024856Y-12269909D01*
X12044359Y-12271833D01*
X12165086Y-12271854D01*
X12262309Y-12271871D01*
X12281818Y-12269953D01*
X12300578Y-12264266D01*
X12317878Y-12255021D01*
X12438790Y-12174230D01*
X12542075Y-12131448D01*
X12602577Y-12106387D01*
X12602578Y-12106387D01*
X12602580Y-12106386D01*
X12776458Y-12071800D01*
X12953742Y-12071800D01*
X13127620Y-12106386D01*
X13127622Y-12106387D01*
X13127623Y-12106387D01*
X13188125Y-12131448D01*
X13291410Y-12174230D01*
X13412322Y-12255021D01*
X13429606Y-12264259D01*
X13448365Y-12269950D01*
X13467891Y-12271871D01*
X13565114Y-12271854D01*
X13685841Y-12271833D01*
X13705347Y-12269908D01*
X13724105Y-12264214D01*
X13741392Y-12254970D01*
X13756541Y-12242534D01*
X14052190Y-11946800D01*
X14218010Y-11946800D01*
X14513659Y-12242534D01*
X14528811Y-12254972D01*
X14546098Y-12264216D01*
X14564856Y-12269909D01*
X14584359Y-12271833D01*
X14705086Y-12271854D01*
X14802309Y-12271871D01*
X14821818Y-12269953D01*
X14840578Y-12264266D01*
X14857878Y-12255021D01*
X14978790Y-12174230D01*
X15082075Y-12131448D01*
X15142577Y-12106387D01*
X15142578Y-12106387D01*
X15142580Y-12106386D01*
X15316458Y-12071800D01*
X15493742Y-12071800D01*
X15667620Y-12106386D01*
X15667622Y-12106387D01*
X15667623Y-12106387D01*
X15728125Y-12131448D01*
X15831410Y-12174230D01*
X15952322Y-12255021D01*
X15969606Y-12264259D01*
X15988365Y-12269950D01*
X16007891Y-12271871D01*
X16105114Y-12271854D01*
X16225841Y-12271833D01*
X16245347Y-12269908D01*
X16264105Y-12264214D01*
X16281392Y-12254970D01*
X16296541Y-12242534D01*
X16592190Y-11946800D01*
X16758010Y-11946800D01*
X17053659Y-12242534D01*
X17068811Y-12254972D01*
X17086098Y-12264216D01*
X17104856Y-12269909D01*
X17124359Y-12271833D01*
X17245086Y-12271854D01*
X17342309Y-12271871D01*
X17361818Y-12269953D01*
X17380578Y-12264266D01*
X17397878Y-12255021D01*
X17518790Y-12174230D01*
X17622075Y-12131448D01*
X17682577Y-12106387D01*
X17682578Y-12106387D01*
X17682580Y-12106386D01*
X17856458Y-12071800D01*
X18033742Y-12071800D01*
X18207620Y-12106386D01*
X18207622Y-12106387D01*
X18207623Y-12106387D01*
X18268125Y-12131448D01*
X18371410Y-12174230D01*
X18492322Y-12255021D01*
X18509606Y-12264259D01*
X18528365Y-12269950D01*
X18547891Y-12271871D01*
X18645114Y-12271854D01*
X18765841Y-12271833D01*
X18785347Y-12269908D01*
X18804105Y-12264214D01*
X18821392Y-12254970D01*
X18836541Y-12242534D01*
X19132190Y-11946800D01*
X19298010Y-11946800D01*
X19593659Y-12242534D01*
X19608811Y-12254972D01*
X19626098Y-12264216D01*
X19644856Y-12269909D01*
X19664359Y-12271833D01*
X19785086Y-12271854D01*
X19882309Y-12271871D01*
X19901818Y-12269953D01*
X19920578Y-12264266D01*
X19937878Y-12255021D01*
X20058790Y-12174230D01*
X20162075Y-12131448D01*
X20222577Y-12106387D01*
X20222578Y-12106387D01*
X20222580Y-12106386D01*
X20396458Y-12071800D01*
X20573742Y-12071800D01*
X20747620Y-12106386D01*
X20747622Y-12106387D01*
X20747623Y-12106387D01*
X20808125Y-12131448D01*
X20911410Y-12174230D01*
X21032322Y-12255021D01*
X21049606Y-12264259D01*
X21068365Y-12269950D01*
X21087891Y-12271871D01*
X21185114Y-12271854D01*
X21305841Y-12271833D01*
X21325347Y-12269908D01*
X21344105Y-12264214D01*
X21361392Y-12254970D01*
X21376541Y-12242534D01*
X21672190Y-11946800D01*
X21838010Y-11946800D01*
X22133659Y-12242534D01*
X22148811Y-12254972D01*
X22166098Y-12264216D01*
X22184856Y-12269909D01*
X22204359Y-12271833D01*
X22325086Y-12271854D01*
X22422309Y-12271871D01*
X22441818Y-12269953D01*
X22460578Y-12264266D01*
X22477878Y-12255021D01*
X22598790Y-12174230D01*
X22702075Y-12131448D01*
X22762577Y-12106387D01*
X22762578Y-12106387D01*
X22762580Y-12106386D01*
X22936458Y-12071800D01*
X23113742Y-12071800D01*
X23287620Y-12106386D01*
X23287622Y-12106387D01*
X23287623Y-12106387D01*
X23348125Y-12131448D01*
X23451410Y-12174230D01*
X23572322Y-12255021D01*
X23589606Y-12264259D01*
X23608365Y-12269950D01*
X23627891Y-12271871D01*
X23725114Y-12271854D01*
X23845841Y-12271833D01*
X23865347Y-12269908D01*
X23884105Y-12264214D01*
X23901392Y-12254970D01*
X23916541Y-12242534D01*
X24212190Y-11946800D01*
X24378010Y-11946800D01*
X24673659Y-12242534D01*
X24688811Y-12254972D01*
X24706098Y-12264216D01*
X24724856Y-12269909D01*
X24744359Y-12271833D01*
X24865086Y-12271854D01*
X24962309Y-12271871D01*
X24981818Y-12269953D01*
X25000578Y-12264266D01*
X25017878Y-12255021D01*
X25138790Y-12174230D01*
X25242075Y-12131448D01*
X25302577Y-12106387D01*
X25302578Y-12106387D01*
X25302580Y-12106386D01*
X25476458Y-12071800D01*
X25653742Y-12071800D01*
X25827620Y-12106386D01*
X25827622Y-12106387D01*
X25827623Y-12106387D01*
X25888125Y-12131448D01*
X25991410Y-12174230D01*
X26112322Y-12255021D01*
X26129606Y-12264259D01*
X26148365Y-12269950D01*
X26167891Y-12271871D01*
X26265114Y-12271854D01*
X26385841Y-12271833D01*
X26405347Y-12269908D01*
X26424105Y-12264214D01*
X26441392Y-12254970D01*
X26456541Y-12242534D01*
X26752190Y-11946800D01*
X26918010Y-11946800D01*
X27213659Y-12242534D01*
X27228811Y-12254972D01*
X27246098Y-12264216D01*
X27264856Y-12269909D01*
X27284359Y-12271833D01*
X27405086Y-12271854D01*
X27502309Y-12271871D01*
X27521818Y-12269953D01*
X27540578Y-12264266D01*
X27557878Y-12255021D01*
X27678790Y-12174230D01*
X27782075Y-12131448D01*
X27842577Y-12106387D01*
X27842578Y-12106387D01*
X27842580Y-12106386D01*
X28016458Y-12071800D01*
X28193742Y-12071800D01*
X28367620Y-12106386D01*
X28367622Y-12106387D01*
X28367623Y-12106387D01*
X28428125Y-12131448D01*
X28531410Y-12174230D01*
X28652322Y-12255021D01*
X28669606Y-12264259D01*
X28688365Y-12269950D01*
X28707891Y-12271871D01*
X28805114Y-12271854D01*
X28925841Y-12271833D01*
X28945347Y-12269908D01*
X28964105Y-12264214D01*
X28981392Y-12254970D01*
X28996541Y-12242534D01*
X29292190Y-11946800D01*
X29458010Y-11946800D01*
X29753659Y-12242534D01*
X29768811Y-12254972D01*
X29786098Y-12264216D01*
X29804856Y-12269909D01*
X29824359Y-12271833D01*
X29945086Y-12271854D01*
X30042309Y-12271871D01*
X30061818Y-12269953D01*
X30080578Y-12264266D01*
X30097878Y-12255021D01*
X30218790Y-12174230D01*
X30322075Y-12131448D01*
X30382577Y-12106387D01*
X30382578Y-12106387D01*
X30382580Y-12106386D01*
X30556458Y-12071800D01*
X30733742Y-12071800D01*
X30907620Y-12106386D01*
X30907622Y-12106387D01*
X30907623Y-12106387D01*
X30968125Y-12131448D01*
X31071410Y-12174230D01*
X31192322Y-12255021D01*
X31209606Y-12264259D01*
X31228365Y-12269950D01*
X31247891Y-12271871D01*
X31345114Y-12271854D01*
X31465841Y-12271833D01*
X31485347Y-12269908D01*
X31504105Y-12264214D01*
X31521392Y-12254970D01*
X31536541Y-12242534D01*
X31832190Y-11946800D01*
X31998010Y-11946800D01*
X32293659Y-12242534D01*
X32308811Y-12254972D01*
X32326098Y-12264216D01*
X32344856Y-12269909D01*
X32364359Y-12271833D01*
X32485086Y-12271854D01*
X32582309Y-12271871D01*
X32601818Y-12269953D01*
X32620578Y-12264266D01*
X32637878Y-12255021D01*
X32758790Y-12174230D01*
X32862075Y-12131448D01*
X32922577Y-12106387D01*
X32922578Y-12106387D01*
X32922580Y-12106386D01*
X33096458Y-12071800D01*
X33273742Y-12071800D01*
X33447620Y-12106386D01*
X33447622Y-12106387D01*
X33447623Y-12106387D01*
X33508125Y-12131448D01*
X33611410Y-12174230D01*
X33732322Y-12255021D01*
X33749606Y-12264259D01*
X33768365Y-12269950D01*
X33787891Y-12271871D01*
X33885114Y-12271854D01*
X34005841Y-12271833D01*
X34025347Y-12269908D01*
X34044105Y-12264214D01*
X34061392Y-12254970D01*
X34076541Y-12242534D01*
X34372190Y-11946800D01*
X34538010Y-11946800D01*
X34833659Y-12242534D01*
X34848811Y-12254972D01*
X34866098Y-12264216D01*
X34884856Y-12269909D01*
X34904359Y-12271833D01*
X35025086Y-12271854D01*
X35122309Y-12271871D01*
X35141818Y-12269953D01*
X35160578Y-12264266D01*
X35177878Y-12255021D01*
X35298790Y-12174230D01*
X35402075Y-12131448D01*
X35462577Y-12106387D01*
X35462578Y-12106387D01*
X35462580Y-12106386D01*
X35636458Y-12071800D01*
X35813742Y-12071800D01*
X35987620Y-12106386D01*
X35987622Y-12106387D01*
X35987623Y-12106387D01*
X36048125Y-12131448D01*
X36151410Y-12174230D01*
X36272322Y-12255021D01*
X36289606Y-12264259D01*
X36308365Y-12269950D01*
X36327891Y-12271871D01*
X36425114Y-12271854D01*
X36545841Y-12271833D01*
X36565347Y-12269908D01*
X36584105Y-12264214D01*
X36601392Y-12254970D01*
X36616541Y-12242534D01*
X36912190Y-11946800D01*
X37078010Y-11946800D01*
X37373659Y-12242534D01*
X37388811Y-12254972D01*
X37406098Y-12264216D01*
X37424856Y-12269909D01*
X37444359Y-12271833D01*
X37565086Y-12271854D01*
X37662309Y-12271871D01*
X37681818Y-12269953D01*
X37700578Y-12264266D01*
X37717878Y-12255021D01*
X37838790Y-12174230D01*
X37942075Y-12131448D01*
X38002577Y-12106387D01*
X38002578Y-12106387D01*
X38002580Y-12106386D01*
X38176458Y-12071800D01*
X38353742Y-12071800D01*
X38527620Y-12106386D01*
X38527622Y-12106387D01*
X38527623Y-12106387D01*
X38588125Y-12131448D01*
X38691410Y-12174230D01*
X38812322Y-12255021D01*
X38829606Y-12264259D01*
X38848365Y-12269950D01*
X38867891Y-12271871D01*
X38965114Y-12271854D01*
X39085841Y-12271833D01*
X39105347Y-12269908D01*
X39124105Y-12264214D01*
X39141392Y-12254970D01*
X39156541Y-12242534D01*
X39452190Y-11946800D01*
X39618010Y-11946800D01*
X39913659Y-12242534D01*
X39928811Y-12254972D01*
X39946098Y-12264216D01*
X39964856Y-12269909D01*
X39984359Y-12271833D01*
X40105086Y-12271854D01*
X40202309Y-12271871D01*
X40221818Y-12269953D01*
X40240578Y-12264266D01*
X40257878Y-12255021D01*
X40378790Y-12174230D01*
X40482075Y-12131448D01*
X40542577Y-12106387D01*
X40542578Y-12106387D01*
X40542580Y-12106386D01*
X40716458Y-12071800D01*
X40893742Y-12071800D01*
X41067620Y-12106386D01*
X41067622Y-12106387D01*
X41067623Y-12106387D01*
X41128125Y-12131448D01*
X41231410Y-12174230D01*
X41352322Y-12255021D01*
X41369606Y-12264259D01*
X41388365Y-12269950D01*
X41407891Y-12271871D01*
X41505114Y-12271854D01*
X41625841Y-12271833D01*
X41645347Y-12269908D01*
X41664105Y-12264214D01*
X41681392Y-12254970D01*
X41696541Y-12242534D01*
X41992190Y-11946800D01*
X42158010Y-11946800D01*
X42453659Y-12242534D01*
X42468811Y-12254972D01*
X42486098Y-12264216D01*
X42504856Y-12269909D01*
X42524359Y-12271833D01*
X42645086Y-12271854D01*
X42742309Y-12271871D01*
X42761818Y-12269953D01*
X42780578Y-12264266D01*
X42797878Y-12255021D01*
X42918790Y-12174230D01*
X43022075Y-12131448D01*
X43082577Y-12106387D01*
X43082578Y-12106387D01*
X43082580Y-12106386D01*
X43256458Y-12071800D01*
X43433742Y-12071800D01*
X43607620Y-12106386D01*
X43607622Y-12106387D01*
X43607623Y-12106387D01*
X43668125Y-12131448D01*
X43771410Y-12174230D01*
X43892322Y-12255021D01*
X43909606Y-12264259D01*
X43928365Y-12269950D01*
X43947891Y-12271871D01*
X44045114Y-12271854D01*
X44165841Y-12271833D01*
X44185347Y-12269908D01*
X44204105Y-12264214D01*
X44221392Y-12254970D01*
X44236541Y-12242534D01*
X44532190Y-11946800D01*
X44698010Y-11946800D01*
X44993659Y-12242534D01*
X45008811Y-12254972D01*
X45026098Y-12264216D01*
X45044856Y-12269909D01*
X45064359Y-12271833D01*
X45185086Y-12271854D01*
X45282309Y-12271871D01*
X45301818Y-12269953D01*
X45320578Y-12264266D01*
X45337878Y-12255021D01*
X45458790Y-12174230D01*
X45562075Y-12131448D01*
X45622577Y-12106387D01*
X45622578Y-12106387D01*
X45622580Y-12106386D01*
X45796458Y-12071800D01*
X45973742Y-12071800D01*
X46147620Y-12106386D01*
X46147622Y-12106387D01*
X46147623Y-12106387D01*
X46208125Y-12131448D01*
X46311410Y-12174230D01*
X46432322Y-12255021D01*
X46449606Y-12264259D01*
X46468365Y-12269950D01*
X46487891Y-12271871D01*
X46585114Y-12271854D01*
X46705841Y-12271833D01*
X46725347Y-12269908D01*
X46744105Y-12264214D01*
X46761392Y-12254970D01*
X46776541Y-12242534D01*
X47072190Y-11946800D01*
X47238010Y-11946800D01*
X47533659Y-12242534D01*
X47548811Y-12254972D01*
X47566098Y-12264216D01*
X47584856Y-12269909D01*
X47604359Y-12271833D01*
X47725086Y-12271854D01*
X47822309Y-12271871D01*
X47841818Y-12269953D01*
X47860578Y-12264266D01*
X47877878Y-12255021D01*
X47998790Y-12174230D01*
X48102075Y-12131448D01*
X48162577Y-12106387D01*
X48162578Y-12106387D01*
X48162580Y-12106386D01*
X48336458Y-12071800D01*
X48513742Y-12071800D01*
X48687620Y-12106386D01*
X48687622Y-12106387D01*
X48687623Y-12106387D01*
X48748125Y-12131448D01*
X48851410Y-12174230D01*
X48998817Y-12272724D01*
X49124176Y-12398083D01*
X49222670Y-12545490D01*
X49252101Y-12616542D01*
X49286141Y-12698721D01*
X49290514Y-12709280D01*
X49325100Y-12883158D01*
X49325100Y-13060442D01*
X49290514Y-13234320D01*
X49222670Y-13398110D01*
X49141879Y-13519022D01*
X49132641Y-13536306D01*
X49126950Y-13555065D01*
X49125029Y-13574591D01*
X49125034Y-13604368D01*
X49126959Y-13623876D01*
X49132652Y-13642634D01*
X49141896Y-13659921D01*
X49154335Y-13675073D01*
X49169490Y-13687506D01*
X49186781Y-13696744D01*
X49205541Y-13702432D01*
X49225013Y-13704350D01*
X49610324Y-13704428D01*
X49138662Y-14176090D01*
X49126226Y-14191244D01*
X49116985Y-14208532D01*
X49111294Y-14227291D01*
X49109373Y-14246800D01*
X49111294Y-14266309D01*
X49116985Y-14285068D01*
X49126226Y-14302356D01*
X49138662Y-14317510D01*
X49610324Y-14789172D01*
X49225011Y-14789250D01*
X49205502Y-14791175D01*
X49186744Y-14796870D01*
X49169458Y-14806114D01*
X49154307Y-14818553D01*
X49141874Y-14833709D01*
X49132636Y-14851000D01*
X49126950Y-14869760D01*
X49125032Y-14889234D01*
X49125029Y-14909011D01*
X49126947Y-14928520D01*
X49132635Y-14947280D01*
X49141879Y-14964578D01*
X49222670Y-15085490D01*
X49252101Y-15156542D01*
X49286141Y-15238721D01*
X49290514Y-15249280D01*
X49325100Y-15423158D01*
X49325100Y-15600442D01*
X49290514Y-15774320D01*
X49222670Y-15938110D01*
X49141879Y-16059022D01*
X49132641Y-16076306D01*
X49126950Y-16095065D01*
X49125029Y-16114591D01*
X49125034Y-16144368D01*
X49126959Y-16163876D01*
X49132652Y-16182634D01*
X49141896Y-16199921D01*
X49154335Y-16215073D01*
X49169490Y-16227506D01*
X49186781Y-16236744D01*
X49205541Y-16242432D01*
X49225013Y-16244350D01*
X49610324Y-16244428D01*
X49138662Y-16716090D01*
X49126226Y-16731244D01*
X49116985Y-16748532D01*
X49111294Y-16767291D01*
X49109373Y-16786800D01*
X49111294Y-16806309D01*
X49116985Y-16825068D01*
X49126226Y-16842356D01*
X49138662Y-16857510D01*
X49610324Y-17329172D01*
X49225011Y-17329250D01*
X49205502Y-17331175D01*
X49186744Y-17336870D01*
X49169458Y-17346114D01*
X49154307Y-17358553D01*
X49141874Y-17373709D01*
X49132636Y-17391000D01*
X49126950Y-17409760D01*
X49125032Y-17429234D01*
X49125029Y-17449011D01*
X49126947Y-17468520D01*
X49132635Y-17487280D01*
X49141879Y-17504578D01*
X49222670Y-17625490D01*
X49252101Y-17696542D01*
X49286141Y-17778721D01*
X49290514Y-17789280D01*
X49325100Y-17963158D01*
X49325100Y-18140442D01*
X49290514Y-18314320D01*
X49222670Y-18478110D01*
X49141879Y-18599022D01*
X49132641Y-18616306D01*
X49126950Y-18635065D01*
X49125029Y-18654591D01*
X49125034Y-18684368D01*
X49126959Y-18703876D01*
X49132652Y-18722634D01*
X49141896Y-18739921D01*
X49154335Y-18755073D01*
X49169490Y-18767506D01*
X49186781Y-18776744D01*
X49205541Y-18782432D01*
X49225013Y-18784350D01*
X49610324Y-18784428D01*
X49138662Y-19256090D01*
X49126226Y-19271244D01*
X49116985Y-19288532D01*
X49111294Y-19307291D01*
X49109373Y-19326800D01*
X49111294Y-19346309D01*
X49116985Y-19365068D01*
X49126226Y-19382356D01*
X49138662Y-19397510D01*
X49610324Y-19869172D01*
X49225011Y-19869250D01*
X49205502Y-19871175D01*
X49186744Y-19876870D01*
X49169458Y-19886114D01*
X49154307Y-19898553D01*
X49141874Y-19913709D01*
X49132636Y-19931000D01*
X49126950Y-19949760D01*
X49125032Y-19969234D01*
X49125029Y-19989011D01*
X49126947Y-20008520D01*
X49132635Y-20027280D01*
X49141879Y-20044578D01*
X49222670Y-20165490D01*
X49252101Y-20236542D01*
X49286141Y-20318721D01*
X49290514Y-20329280D01*
X49325100Y-20503158D01*
X49325100Y-20680442D01*
X49290514Y-20854320D01*
X49222670Y-21018110D01*
X49141879Y-21139022D01*
X49132641Y-21156306D01*
X49126950Y-21175065D01*
X49125029Y-21194591D01*
X49125034Y-21224368D01*
X49126959Y-21243876D01*
X49132652Y-21262634D01*
X49141896Y-21279921D01*
X49154335Y-21295073D01*
X49169490Y-21307506D01*
X49186781Y-21316744D01*
X49205541Y-21322432D01*
X49225013Y-21324350D01*
X49610324Y-21324428D01*
X49138662Y-21796090D01*
X49126226Y-21811244D01*
X49116985Y-21828532D01*
X49111294Y-21847291D01*
X49109373Y-21866800D01*
X49111294Y-21886309D01*
X49116985Y-21905068D01*
X49126226Y-21922356D01*
X49138662Y-21937510D01*
X49610324Y-22409172D01*
X49225011Y-22409250D01*
X49205502Y-22411175D01*
X49186744Y-22416870D01*
X49169458Y-22426114D01*
X49154307Y-22438553D01*
X49141874Y-22453709D01*
X49132636Y-22471000D01*
X49126950Y-22489760D01*
X49125032Y-22509234D01*
X49125029Y-22529011D01*
X49126947Y-22548520D01*
X49132635Y-22567280D01*
X49141879Y-22584578D01*
X49222670Y-22705490D01*
X49252101Y-22776542D01*
X49286141Y-22858721D01*
X49290514Y-22869280D01*
X49325100Y-23043158D01*
X49325100Y-23220442D01*
X49290514Y-23394320D01*
X49222670Y-23558110D01*
X49141879Y-23679022D01*
X49132641Y-23696306D01*
X49126950Y-23715065D01*
X49125029Y-23734591D01*
X49125034Y-23764368D01*
X49126959Y-23783876D01*
X49132652Y-23802634D01*
X49141896Y-23819921D01*
X49154335Y-23835073D01*
X49169490Y-23847506D01*
X49186781Y-23856744D01*
X49205541Y-23862432D01*
X49225013Y-23864350D01*
X49610324Y-23864428D01*
X49138662Y-24336090D01*
X49126226Y-24351244D01*
X49116985Y-24368532D01*
X49111294Y-24387291D01*
X49109373Y-24406800D01*
X49111294Y-24426309D01*
X49116985Y-24445068D01*
X49126226Y-24462356D01*
X49138662Y-24477510D01*
X49610324Y-24949172D01*
X49225011Y-24949250D01*
X49205502Y-24951175D01*
X49186744Y-24956870D01*
X49169458Y-24966114D01*
X49154307Y-24978553D01*
X49141874Y-24993709D01*
X49132636Y-25011000D01*
X49126950Y-25029760D01*
X49125032Y-25049234D01*
X49125029Y-25069011D01*
X49126947Y-25088520D01*
X49132635Y-25107280D01*
X49141879Y-25124578D01*
X49222670Y-25245490D01*
X49252101Y-25316542D01*
X49286141Y-25398721D01*
X49290514Y-25409280D01*
X49325100Y-25583158D01*
X49325100Y-25760442D01*
X49290514Y-25934320D01*
X49222670Y-26098110D01*
X49141879Y-26219022D01*
X49132641Y-26236306D01*
X49126950Y-26255065D01*
X49125029Y-26274591D01*
X49125034Y-26304368D01*
X49126959Y-26323876D01*
X49132652Y-26342634D01*
X49141896Y-26359921D01*
X49154335Y-26375073D01*
X49169490Y-26387506D01*
X49186781Y-26396744D01*
X49205541Y-26402432D01*
X49225013Y-26404350D01*
X49610324Y-26404428D01*
X49138662Y-26876090D01*
X49126226Y-26891244D01*
X49116985Y-26908532D01*
X49111294Y-26927291D01*
X49109373Y-26946800D01*
X49111294Y-26966309D01*
X49116985Y-26985068D01*
X49126226Y-27002356D01*
X49138662Y-27017510D01*
X49610324Y-27489172D01*
X49225011Y-27489250D01*
X49205502Y-27491175D01*
X49186744Y-27496870D01*
X49169458Y-27506114D01*
X49154307Y-27518553D01*
X49141874Y-27533709D01*
X49132636Y-27551000D01*
X49126950Y-27569760D01*
X49125032Y-27589234D01*
X49125029Y-27609011D01*
X49126947Y-27628520D01*
X49132635Y-27647280D01*
X49141879Y-27664578D01*
X49222670Y-27785490D01*
X49252101Y-27856542D01*
X49286141Y-27938721D01*
X49290514Y-27949280D01*
X49325100Y-28123158D01*
X49325100Y-28300442D01*
X49290514Y-28474320D01*
X49222670Y-28638110D01*
X49141879Y-28759022D01*
X49132641Y-28776306D01*
X49126950Y-28795065D01*
X49125029Y-28814591D01*
X49125034Y-28844368D01*
X49126959Y-28863876D01*
X49132652Y-28882634D01*
X49141896Y-28899921D01*
X49154335Y-28915073D01*
X49169490Y-28927506D01*
X49186781Y-28936744D01*
X49205541Y-28942432D01*
X49225013Y-28944350D01*
X49610324Y-28944428D01*
X49138662Y-29416090D01*
X49126226Y-29431244D01*
X49116985Y-29448532D01*
X49111294Y-29467291D01*
X49109373Y-29486800D01*
X49111294Y-29506309D01*
X49116985Y-29525068D01*
X49126226Y-29542356D01*
X49138662Y-29557510D01*
X49610324Y-30029172D01*
X49225011Y-30029250D01*
X49205502Y-30031175D01*
X49186744Y-30036870D01*
X49169458Y-30046114D01*
X49154307Y-30058553D01*
X49141874Y-30073709D01*
X49132636Y-30091000D01*
X49126950Y-30109760D01*
X49125032Y-30129234D01*
X49125029Y-30149011D01*
X49126947Y-30168520D01*
X49132635Y-30187280D01*
X49141879Y-30204578D01*
X49222670Y-30325490D01*
X49252101Y-30396542D01*
X49286141Y-30478721D01*
X49290514Y-30489280D01*
X49325100Y-30663158D01*
X49325100Y-30840442D01*
X49290514Y-31014320D01*
X49222670Y-31178110D01*
X49141879Y-31299022D01*
X49132641Y-31316306D01*
X49126950Y-31335065D01*
X49125029Y-31354591D01*
X49125034Y-31384368D01*
X49126959Y-31403876D01*
X49132652Y-31422634D01*
X49141896Y-31439921D01*
X49154335Y-31455073D01*
X49169490Y-31467506D01*
X49186781Y-31476744D01*
X49205541Y-31482432D01*
X49225013Y-31484350D01*
X49610324Y-31484428D01*
X49138662Y-31956090D01*
X49126226Y-31971244D01*
X49116985Y-31988532D01*
X49111294Y-32007291D01*
X49109373Y-32026800D01*
X49111294Y-32046309D01*
X49116985Y-32065068D01*
X49126226Y-32082356D01*
X49138662Y-32097510D01*
X49610324Y-32569172D01*
X49225011Y-32569250D01*
X49205502Y-32571175D01*
X49186744Y-32576870D01*
X49169458Y-32586114D01*
X49154307Y-32598553D01*
X49141874Y-32613709D01*
X49132636Y-32631000D01*
X49126950Y-32649760D01*
X49125032Y-32669234D01*
X49125029Y-32689011D01*
X49126947Y-32708520D01*
X49132635Y-32727280D01*
X49141879Y-32744578D01*
X49222670Y-32865490D01*
X49252101Y-32936542D01*
X49286141Y-33018721D01*
X49290514Y-33029280D01*
X49325100Y-33203158D01*
X49325100Y-33380442D01*
X49290514Y-33554320D01*
X49222670Y-33718110D01*
X49141879Y-33839022D01*
X49132641Y-33856306D01*
X49126950Y-33875065D01*
X49125029Y-33894591D01*
X49125034Y-33924368D01*
X49126959Y-33943876D01*
X49132652Y-33962634D01*
X49141896Y-33979921D01*
X49154335Y-33995073D01*
X49169490Y-34007506D01*
X49186781Y-34016744D01*
X49205541Y-34022432D01*
X49225013Y-34024350D01*
X49610324Y-34024428D01*
X49138662Y-34496090D01*
X49126226Y-34511244D01*
X49116985Y-34528532D01*
X49111294Y-34547291D01*
X49109373Y-34566800D01*
X49111294Y-34586309D01*
X49116985Y-34605068D01*
X49126226Y-34622356D01*
X49138662Y-34637510D01*
X49610324Y-35109172D01*
X49225011Y-35109250D01*
X49205502Y-35111175D01*
X49186744Y-35116870D01*
X49169458Y-35126114D01*
X49154307Y-35138553D01*
X49141874Y-35153709D01*
X49132636Y-35171000D01*
X49126950Y-35189760D01*
X49125032Y-35209234D01*
X49125029Y-35229011D01*
X49126947Y-35248520D01*
X49132635Y-35267280D01*
X49141879Y-35284578D01*
X49222670Y-35405490D01*
X49252101Y-35476542D01*
X49286141Y-35558721D01*
X49290514Y-35569280D01*
X49325100Y-35743158D01*
X49325100Y-35920442D01*
X49290514Y-36094320D01*
X49222670Y-36258110D01*
X49141879Y-36379022D01*
X49132641Y-36396306D01*
X49126950Y-36415065D01*
X49125029Y-36434591D01*
X49125034Y-36464368D01*
X49126959Y-36483876D01*
X49132652Y-36502634D01*
X49141896Y-36519921D01*
X49154335Y-36535073D01*
X49169490Y-36547506D01*
X49186781Y-36556744D01*
X49205541Y-36562432D01*
X49225013Y-36564350D01*
X49610324Y-36564428D01*
X49138662Y-37036090D01*
X49126226Y-37051244D01*
X49116985Y-37068532D01*
X49111294Y-37087291D01*
X49109373Y-37106800D01*
X49111294Y-37126309D01*
X49116985Y-37145068D01*
X49126226Y-37162356D01*
X49138662Y-37177510D01*
X49610324Y-37649172D01*
X49225011Y-37649250D01*
X49205502Y-37651175D01*
X49186744Y-37656870D01*
X49169458Y-37666114D01*
X49154307Y-37678553D01*
X49141874Y-37693709D01*
X49132636Y-37711000D01*
X49126950Y-37729760D01*
X49125032Y-37749234D01*
X49125029Y-37769011D01*
X49126947Y-37788520D01*
X49132635Y-37807280D01*
X49141879Y-37824578D01*
X49222670Y-37945490D01*
X49252101Y-38016542D01*
X49286141Y-38098721D01*
X49290514Y-38109280D01*
X49325100Y-38283158D01*
X49325100Y-38460442D01*
X49290514Y-38634320D01*
X49222670Y-38798110D01*
X49141879Y-38919022D01*
X49132641Y-38936306D01*
X49126950Y-38955065D01*
X49125029Y-38974591D01*
X49125034Y-39004368D01*
X49126959Y-39023876D01*
X49132652Y-39042634D01*
X49141896Y-39059921D01*
X49154335Y-39075073D01*
X49169490Y-39087506D01*
X49186781Y-39096744D01*
X49205541Y-39102432D01*
X49225013Y-39104350D01*
X49610324Y-39104428D01*
X49138662Y-39576090D01*
X49126226Y-39591244D01*
X49116985Y-39608532D01*
X49111294Y-39627291D01*
X49109373Y-39646800D01*
X49111294Y-39666309D01*
X49116985Y-39685068D01*
X49126226Y-39702356D01*
X49138662Y-39717510D01*
X49610324Y-40189172D01*
X49225011Y-40189250D01*
X49205502Y-40191175D01*
X49186744Y-40196870D01*
X49169458Y-40206114D01*
X49154307Y-40218553D01*
X49141874Y-40233709D01*
X49132636Y-40251000D01*
X49126950Y-40269760D01*
X49125032Y-40289234D01*
X49125029Y-40309011D01*
X49126947Y-40328520D01*
X49132635Y-40347280D01*
X49141879Y-40364578D01*
X49222670Y-40485490D01*
X49252101Y-40556542D01*
X49286141Y-40638721D01*
X49290514Y-40649280D01*
X49325100Y-40823158D01*
X49325100Y-41000442D01*
X49290514Y-41174320D01*
X49222670Y-41338110D01*
X49141879Y-41459022D01*
X49132641Y-41476306D01*
X49126950Y-41495065D01*
X49125029Y-41514591D01*
X49125034Y-41544368D01*
X49126959Y-41563876D01*
X49132652Y-41582634D01*
X49141896Y-41599921D01*
X49154335Y-41615073D01*
X49169490Y-41627506D01*
X49186781Y-41636744D01*
X49205541Y-41642432D01*
X49225013Y-41644350D01*
X49610324Y-41644428D01*
X49138662Y-42116090D01*
X49126226Y-42131244D01*
X49116985Y-42148532D01*
X49111294Y-42167291D01*
X49109373Y-42186800D01*
X49111294Y-42206309D01*
X49116985Y-42225068D01*
X49126226Y-42242356D01*
X49138662Y-42257510D01*
X49610324Y-42729172D01*
X49225011Y-42729250D01*
X49205502Y-42731175D01*
X49186744Y-42736870D01*
X49169458Y-42746114D01*
X49154307Y-42758553D01*
X49141874Y-42773709D01*
X49132636Y-42791000D01*
X49126950Y-42809760D01*
X49125032Y-42829229D01*
X49124990Y-43069123D01*
X49124964Y-43214476D01*
X49124964Y-43214477D01*
X48671571Y-42761084D01*
X48656423Y-42748653D01*
X48639135Y-42739412D01*
X48620376Y-42733721D01*
X48600867Y-42731800D01*
X48564373Y-42731800D01*
X48544864Y-42733721D01*
X48526105Y-42739412D01*
X48521067Y-42742105D01*
X48516011Y-42739404D01*
X48497251Y-42733718D01*
X48477761Y-42731800D01*
X48250099Y-42731800D01*
X48230590Y-42733721D01*
X48211831Y-42739412D01*
X48194543Y-42748653D01*
X48179389Y-42761089D01*
X48166953Y-42776243D01*
X48157712Y-42793531D01*
X48152021Y-42812290D01*
X48150100Y-42831799D01*
X48150100Y-43014495D01*
X48108348Y-42972755D01*
X48093198Y-42960325D01*
X48075908Y-42951087D01*
X48057148Y-42945399D01*
X48037639Y-42943480D01*
X48018130Y-42945404D01*
X47999372Y-42951097D01*
X47982085Y-42960341D01*
X47966949Y-42972764D01*
X47946064Y-42993649D01*
X47933633Y-43008797D01*
X47924392Y-43026085D01*
X47918701Y-43044844D01*
X47916780Y-43064353D01*
X47918701Y-43083862D01*
X47924392Y-43102621D01*
X47933633Y-43119909D01*
X47946055Y-43135048D01*
X47987795Y-43176800D01*
X47805099Y-43176800D01*
X47785590Y-43178721D01*
X47766831Y-43184412D01*
X47749543Y-43193653D01*
X47734389Y-43206089D01*
X47721953Y-43221243D01*
X47712712Y-43238531D01*
X47707021Y-43257290D01*
X47705100Y-43276799D01*
X47705100Y-43504463D01*
X47707021Y-43523972D01*
X47712712Y-43542731D01*
X47712732Y-43542768D01*
X47712712Y-43542805D01*
X47707021Y-43561564D01*
X47705100Y-43581073D01*
X47705100Y-43627567D01*
X47707021Y-43647076D01*
X47712712Y-43665835D01*
X47721953Y-43683123D01*
X47734384Y-43698271D01*
X48187777Y-44151664D01*
X47792531Y-44151734D01*
X47773023Y-44153659D01*
X47754265Y-44159353D01*
X47736978Y-44168597D01*
X47721827Y-44181035D01*
X47709393Y-44196191D01*
X47700155Y-44213481D01*
X47694468Y-44232241D01*
X47692550Y-44251711D01*
X47692472Y-44637023D01*
X47692472Y-44637024D01*
X47220810Y-44165362D01*
X47205656Y-44152926D01*
X47188368Y-44143685D01*
X47169609Y-44137994D01*
X47150100Y-44136073D01*
X47130591Y-44137994D01*
X47111832Y-44143685D01*
X47094544Y-44152926D01*
X47079390Y-44165362D01*
X46607728Y-44637024D01*
X46607650Y-44251711D01*
X46605725Y-44232202D01*
X46600030Y-44213444D01*
X46590786Y-44196158D01*
X46578347Y-44181007D01*
X46563191Y-44168574D01*
X46545900Y-44159336D01*
X46527140Y-44153650D01*
X46507668Y-44151732D01*
X46498473Y-44151731D01*
X46487889Y-44151729D01*
X46468380Y-44153647D01*
X46449620Y-44159335D01*
X46432322Y-44168579D01*
X46311410Y-44249370D01*
X46305753Y-44251713D01*
X46147623Y-44317213D01*
X46147622Y-44317213D01*
X46147620Y-44317214D01*
X45973742Y-44351800D01*
X45796458Y-44351800D01*
X45622580Y-44317214D01*
X45622578Y-44317213D01*
X45622577Y-44317213D01*
X45464447Y-44251713D01*
X45458790Y-44249370D01*
X45337878Y-44168579D01*
X45320594Y-44159341D01*
X45301835Y-44153650D01*
X45282309Y-44151729D01*
X45253108Y-44151734D01*
X45252532Y-44151734D01*
X45233024Y-44153659D01*
X45214266Y-44159352D01*
X45196979Y-44168596D01*
X45181827Y-44181035D01*
X45169394Y-44196190D01*
X45160156Y-44213481D01*
X45154468Y-44232241D01*
X45152550Y-44251711D01*
X45152472Y-44637023D01*
X45152472Y-44637024D01*
X44680810Y-44165362D01*
X44665656Y-44152926D01*
X44648368Y-44143685D01*
X44629609Y-44137994D01*
X44610100Y-44136073D01*
X44590591Y-44137994D01*
X44571832Y-44143685D01*
X44554544Y-44152926D01*
X44539390Y-44165362D01*
X44067728Y-44637024D01*
X44067650Y-44251711D01*
X44065725Y-44232202D01*
X44060030Y-44213444D01*
X44050786Y-44196158D01*
X44038347Y-44181007D01*
X44023191Y-44168574D01*
X44005900Y-44159336D01*
X43987140Y-44153650D01*
X43967668Y-44151732D01*
X43958473Y-44151731D01*
X43947889Y-44151729D01*
X43928380Y-44153647D01*
X43909620Y-44159335D01*
X43892322Y-44168579D01*
X43771410Y-44249370D01*
X43765753Y-44251713D01*
X43607623Y-44317213D01*
X43607622Y-44317213D01*
X43607620Y-44317214D01*
X43433742Y-44351800D01*
X43256458Y-44351800D01*
X43082580Y-44317214D01*
X43082578Y-44317213D01*
X43082577Y-44317213D01*
X42924447Y-44251713D01*
X42918790Y-44249370D01*
X42797878Y-44168579D01*
X42780594Y-44159341D01*
X42761835Y-44153650D01*
X42742309Y-44151729D01*
X42713108Y-44151734D01*
X42712532Y-44151734D01*
X42693024Y-44153659D01*
X42674266Y-44159352D01*
X42656979Y-44168596D01*
X42641827Y-44181035D01*
X42629394Y-44196190D01*
X42620156Y-44213481D01*
X42614468Y-44232241D01*
X42612550Y-44251711D01*
X42612472Y-44637023D01*
X42612472Y-44637024D01*
X42140810Y-44165362D01*
X42125656Y-44152926D01*
X42108368Y-44143685D01*
X42089609Y-44137994D01*
X42070100Y-44136073D01*
X42050591Y-44137994D01*
X42031832Y-44143685D01*
X42014544Y-44152926D01*
X41999390Y-44165362D01*
X41527728Y-44637024D01*
X41527650Y-44251711D01*
X41525725Y-44232202D01*
X41520030Y-44213444D01*
X41510786Y-44196158D01*
X41498347Y-44181007D01*
X41483191Y-44168574D01*
X41465900Y-44159336D01*
X41447140Y-44153650D01*
X41427668Y-44151732D01*
X41418473Y-44151731D01*
X41407889Y-44151729D01*
X41388380Y-44153647D01*
X41369620Y-44159335D01*
X41352322Y-44168579D01*
X41231410Y-44249370D01*
X41225753Y-44251713D01*
X41067623Y-44317213D01*
X41067622Y-44317213D01*
X41067620Y-44317214D01*
X40893742Y-44351800D01*
X40716458Y-44351800D01*
X40542580Y-44317214D01*
X40542578Y-44317213D01*
X40542577Y-44317213D01*
X40384447Y-44251713D01*
X40378790Y-44249370D01*
X40257878Y-44168579D01*
X40240594Y-44159341D01*
X40221835Y-44153650D01*
X40202309Y-44151729D01*
X40173108Y-44151734D01*
X40172532Y-44151734D01*
X40153024Y-44153659D01*
X40134266Y-44159352D01*
X40116979Y-44168596D01*
X40101827Y-44181035D01*
X40089394Y-44196190D01*
X40080156Y-44213481D01*
X40074468Y-44232241D01*
X40072550Y-44251711D01*
X40072472Y-44637023D01*
X40072472Y-44637024D01*
X39600810Y-44165362D01*
X39585656Y-44152926D01*
X39568368Y-44143685D01*
X39549609Y-44137994D01*
X39530100Y-44136073D01*
X39510591Y-44137994D01*
X39491832Y-44143685D01*
X39474544Y-44152926D01*
X39459390Y-44165362D01*
X38987728Y-44637024D01*
X38987650Y-44251711D01*
X38985725Y-44232202D01*
X38980030Y-44213444D01*
X38970786Y-44196158D01*
X38958347Y-44181007D01*
X38943191Y-44168574D01*
X38925900Y-44159336D01*
X38907140Y-44153650D01*
X38887668Y-44151732D01*
X38878473Y-44151731D01*
X38867889Y-44151729D01*
X38848380Y-44153647D01*
X38829620Y-44159335D01*
X38812322Y-44168579D01*
X38691410Y-44249370D01*
X38685753Y-44251713D01*
X38527623Y-44317213D01*
X38527622Y-44317213D01*
X38527620Y-44317214D01*
X38353742Y-44351800D01*
X38176458Y-44351800D01*
X38002580Y-44317214D01*
X38002578Y-44317213D01*
X38002577Y-44317213D01*
X37844447Y-44251713D01*
X37838790Y-44249370D01*
X37717878Y-44168579D01*
X37700594Y-44159341D01*
X37681835Y-44153650D01*
X37662309Y-44151729D01*
X37633108Y-44151734D01*
X37632532Y-44151734D01*
X37613024Y-44153659D01*
X37594266Y-44159352D01*
X37576979Y-44168596D01*
X37561827Y-44181035D01*
X37549394Y-44196190D01*
X37540156Y-44213481D01*
X37534468Y-44232241D01*
X37532550Y-44251711D01*
X37532472Y-44637023D01*
X37532472Y-44637024D01*
X37060810Y-44165362D01*
X37045656Y-44152926D01*
X37028368Y-44143685D01*
X37009609Y-44137994D01*
X36990100Y-44136073D01*
X36970591Y-44137994D01*
X36951832Y-44143685D01*
X36934544Y-44152926D01*
X36919390Y-44165362D01*
X36447728Y-44637024D01*
X36447650Y-44251711D01*
X36445725Y-44232202D01*
X36440030Y-44213444D01*
X36430786Y-44196158D01*
X36418347Y-44181007D01*
X36403191Y-44168574D01*
X36385900Y-44159336D01*
X36367140Y-44153650D01*
X36347668Y-44151732D01*
X36338473Y-44151731D01*
X36327889Y-44151729D01*
X36308380Y-44153647D01*
X36289620Y-44159335D01*
X36272322Y-44168579D01*
X36151410Y-44249370D01*
X36145753Y-44251713D01*
X35987623Y-44317213D01*
X35987622Y-44317213D01*
X35987620Y-44317214D01*
X35813742Y-44351800D01*
X35636458Y-44351800D01*
X35462580Y-44317214D01*
X35462578Y-44317213D01*
X35462577Y-44317213D01*
X35304447Y-44251713D01*
X35298790Y-44249370D01*
X35177878Y-44168579D01*
X35160594Y-44159341D01*
X35141835Y-44153650D01*
X35122309Y-44151729D01*
X35093108Y-44151734D01*
X35092532Y-44151734D01*
X35073024Y-44153659D01*
X35054266Y-44159352D01*
X35036979Y-44168596D01*
X35021827Y-44181035D01*
X35009394Y-44196190D01*
X35000156Y-44213481D01*
X34994468Y-44232241D01*
X34992550Y-44251711D01*
X34992472Y-44637023D01*
X34992472Y-44637024D01*
X34520810Y-44165362D01*
X34505656Y-44152926D01*
X34488368Y-44143685D01*
X34469609Y-44137994D01*
X34450100Y-44136073D01*
X34430591Y-44137994D01*
X34411832Y-44143685D01*
X34394544Y-44152926D01*
X34379390Y-44165362D01*
X33907728Y-44637024D01*
X33907650Y-44251711D01*
X33905725Y-44232202D01*
X33900030Y-44213444D01*
X33890786Y-44196158D01*
X33878347Y-44181007D01*
X33863191Y-44168574D01*
X33845900Y-44159336D01*
X33827140Y-44153650D01*
X33807668Y-44151732D01*
X33798473Y-44151731D01*
X33787889Y-44151729D01*
X33768380Y-44153647D01*
X33749620Y-44159335D01*
X33732322Y-44168579D01*
X33611410Y-44249370D01*
X33605753Y-44251713D01*
X33447623Y-44317213D01*
X33447622Y-44317213D01*
X33447620Y-44317214D01*
X33273742Y-44351800D01*
X33096458Y-44351800D01*
X32922580Y-44317214D01*
X32922578Y-44317213D01*
X32922577Y-44317213D01*
X32764447Y-44251713D01*
X32758790Y-44249370D01*
X32637878Y-44168579D01*
X32620594Y-44159341D01*
X32601835Y-44153650D01*
X32582309Y-44151729D01*
X32553108Y-44151734D01*
X32552532Y-44151734D01*
X32533024Y-44153659D01*
X32514266Y-44159352D01*
X32496979Y-44168596D01*
X32481827Y-44181035D01*
X32469394Y-44196190D01*
X32460156Y-44213481D01*
X32454468Y-44232241D01*
X32452550Y-44251711D01*
X32452472Y-44637023D01*
X32452472Y-44637024D01*
X31980810Y-44165362D01*
X31965656Y-44152926D01*
X31948368Y-44143685D01*
X31929609Y-44137994D01*
X31910100Y-44136073D01*
X31890591Y-44137994D01*
X31871832Y-44143685D01*
X31854544Y-44152926D01*
X31839390Y-44165362D01*
X31367728Y-44637024D01*
X31367650Y-44251711D01*
X31365725Y-44232202D01*
X31360030Y-44213444D01*
X31350786Y-44196158D01*
X31338347Y-44181007D01*
X31323191Y-44168574D01*
X31305900Y-44159336D01*
X31287140Y-44153650D01*
X31267668Y-44151732D01*
X31258473Y-44151731D01*
X31247889Y-44151729D01*
X31228380Y-44153647D01*
X31209620Y-44159335D01*
X31192322Y-44168579D01*
X31071410Y-44249370D01*
X31065753Y-44251713D01*
X30907623Y-44317213D01*
X30907622Y-44317213D01*
X30907620Y-44317214D01*
X30733742Y-44351800D01*
X30556458Y-44351800D01*
X30382580Y-44317214D01*
X30382578Y-44317213D01*
X30382577Y-44317213D01*
X30224447Y-44251713D01*
X30218790Y-44249370D01*
X30097878Y-44168579D01*
X30080594Y-44159341D01*
X30061835Y-44153650D01*
X30042309Y-44151729D01*
X30013108Y-44151734D01*
X30012532Y-44151734D01*
X29993024Y-44153659D01*
X29974266Y-44159352D01*
X29956979Y-44168596D01*
X29941827Y-44181035D01*
X29929394Y-44196190D01*
X29920156Y-44213481D01*
X29914468Y-44232241D01*
X29912550Y-44251711D01*
X29912472Y-44637023D01*
X29912472Y-44637024D01*
X29440810Y-44165362D01*
X29425656Y-44152926D01*
X29408368Y-44143685D01*
X29389609Y-44137994D01*
X29370100Y-44136073D01*
X29350591Y-44137994D01*
X29331832Y-44143685D01*
X29314544Y-44152926D01*
X29299390Y-44165362D01*
X28827728Y-44637024D01*
X28827650Y-44251711D01*
X28825725Y-44232202D01*
X28820030Y-44213444D01*
X28810786Y-44196158D01*
X28798347Y-44181007D01*
X28783191Y-44168574D01*
X28765900Y-44159336D01*
X28747140Y-44153650D01*
X28727668Y-44151732D01*
X28718473Y-44151731D01*
X28707889Y-44151729D01*
X28688380Y-44153647D01*
X28669620Y-44159335D01*
X28652322Y-44168579D01*
X28531410Y-44249370D01*
X28525753Y-44251713D01*
X28367623Y-44317213D01*
X28367622Y-44317213D01*
X28367620Y-44317214D01*
X28193742Y-44351800D01*
X28016458Y-44351800D01*
X27842580Y-44317214D01*
X27842578Y-44317213D01*
X27842577Y-44317213D01*
X27684447Y-44251713D01*
X27678790Y-44249370D01*
X27557878Y-44168579D01*
X27540594Y-44159341D01*
X27521835Y-44153650D01*
X27502309Y-44151729D01*
X27473108Y-44151734D01*
X27472532Y-44151734D01*
X27453024Y-44153659D01*
X27434266Y-44159352D01*
X27416979Y-44168596D01*
X27401827Y-44181035D01*
X27389394Y-44196190D01*
X27380156Y-44213481D01*
X27374468Y-44232241D01*
X27372550Y-44251711D01*
X27372472Y-44637023D01*
X27372472Y-44637024D01*
X26900810Y-44165362D01*
X26885656Y-44152926D01*
X26868368Y-44143685D01*
X26849609Y-44137994D01*
X26830100Y-44136073D01*
X26810591Y-44137994D01*
X26791832Y-44143685D01*
X26774544Y-44152926D01*
X26759390Y-44165362D01*
X26287728Y-44637024D01*
X26287650Y-44251711D01*
X26285725Y-44232202D01*
X26280030Y-44213444D01*
X26270786Y-44196158D01*
X26258347Y-44181007D01*
X26243191Y-44168574D01*
X26225900Y-44159336D01*
X26207140Y-44153650D01*
X26187668Y-44151732D01*
X26178473Y-44151731D01*
X26167889Y-44151729D01*
X26148380Y-44153647D01*
X26129620Y-44159335D01*
X26112322Y-44168579D01*
X25991410Y-44249370D01*
X25985753Y-44251713D01*
X25827623Y-44317213D01*
X25827622Y-44317213D01*
X25827620Y-44317214D01*
X25653742Y-44351800D01*
X25476458Y-44351800D01*
X25302580Y-44317214D01*
X25302578Y-44317213D01*
X25302577Y-44317213D01*
X25144447Y-44251713D01*
X25138790Y-44249370D01*
X25017878Y-44168579D01*
X25000594Y-44159341D01*
X24981835Y-44153650D01*
X24962309Y-44151729D01*
X24933108Y-44151734D01*
X24932532Y-44151734D01*
X24913024Y-44153659D01*
X24894266Y-44159352D01*
X24876979Y-44168596D01*
X24861827Y-44181035D01*
X24849394Y-44196190D01*
X24840156Y-44213481D01*
X24834468Y-44232241D01*
X24832550Y-44251711D01*
X24832472Y-44637023D01*
X24832472Y-44637024D01*
X24360810Y-44165362D01*
X24345656Y-44152926D01*
X24328368Y-44143685D01*
X24309609Y-44137994D01*
X24290100Y-44136073D01*
X24270591Y-44137994D01*
X24251832Y-44143685D01*
X24234544Y-44152926D01*
X24219390Y-44165362D01*
X23747728Y-44637024D01*
X23747650Y-44251711D01*
X23745725Y-44232202D01*
X23740030Y-44213444D01*
X23730786Y-44196158D01*
X23718347Y-44181007D01*
X23703191Y-44168574D01*
X23685900Y-44159336D01*
X23667140Y-44153650D01*
X23647668Y-44151732D01*
X23638473Y-44151731D01*
X23627889Y-44151729D01*
X23608380Y-44153647D01*
X23589620Y-44159335D01*
X23572322Y-44168579D01*
X23451410Y-44249370D01*
X23445753Y-44251713D01*
X23287623Y-44317213D01*
X23287622Y-44317213D01*
X23287620Y-44317214D01*
X23113742Y-44351800D01*
X22936458Y-44351800D01*
X22762580Y-44317214D01*
X22762578Y-44317213D01*
X22762577Y-44317213D01*
X22604447Y-44251713D01*
X22598790Y-44249370D01*
X22477878Y-44168579D01*
X22460594Y-44159341D01*
X22441835Y-44153650D01*
X22422309Y-44151729D01*
X22393108Y-44151734D01*
X22392532Y-44151734D01*
X22373024Y-44153659D01*
X22354266Y-44159352D01*
X22336979Y-44168596D01*
X22321827Y-44181035D01*
X22309394Y-44196190D01*
X22300156Y-44213481D01*
X22294468Y-44232241D01*
X22292550Y-44251711D01*
X22292472Y-44637023D01*
X22292472Y-44637024D01*
X21820810Y-44165362D01*
X21805656Y-44152926D01*
X21788368Y-44143685D01*
X21769609Y-44137994D01*
X21750100Y-44136073D01*
X21730591Y-44137994D01*
X21711832Y-44143685D01*
X21694544Y-44152926D01*
X21679390Y-44165362D01*
X21207728Y-44637024D01*
X21207650Y-44251711D01*
X21205725Y-44232202D01*
X21200030Y-44213444D01*
X21190786Y-44196158D01*
X21178347Y-44181007D01*
X21163191Y-44168574D01*
X21145900Y-44159336D01*
X21127140Y-44153650D01*
X21107668Y-44151732D01*
X21098473Y-44151731D01*
X21087889Y-44151729D01*
X21068380Y-44153647D01*
X21049620Y-44159335D01*
X21032322Y-44168579D01*
X20911410Y-44249370D01*
X20905753Y-44251713D01*
X20747623Y-44317213D01*
X20747622Y-44317213D01*
X20747620Y-44317214D01*
X20573742Y-44351800D01*
X20396458Y-44351800D01*
X20222580Y-44317214D01*
X20222578Y-44317213D01*
X20222577Y-44317213D01*
X20064447Y-44251713D01*
X20058790Y-44249370D01*
X19937878Y-44168579D01*
X19920594Y-44159341D01*
X19901835Y-44153650D01*
X19882309Y-44151729D01*
X19853108Y-44151734D01*
X19852532Y-44151734D01*
X19833024Y-44153659D01*
X19814266Y-44159352D01*
X19796979Y-44168596D01*
X19781827Y-44181035D01*
X19769394Y-44196190D01*
X19760156Y-44213481D01*
X19754468Y-44232241D01*
X19752550Y-44251711D01*
X19752472Y-44637023D01*
X19752472Y-44637024D01*
X19280810Y-44165362D01*
X19265656Y-44152926D01*
X19248368Y-44143685D01*
X19229609Y-44137994D01*
X19210100Y-44136073D01*
X19190591Y-44137994D01*
X19171832Y-44143685D01*
X19154544Y-44152926D01*
X19139390Y-44165362D01*
X18667728Y-44637024D01*
X18667650Y-44251711D01*
X18665725Y-44232202D01*
X18660030Y-44213444D01*
X18650786Y-44196158D01*
X18638347Y-44181007D01*
X18623191Y-44168574D01*
X18605900Y-44159336D01*
X18587140Y-44153650D01*
X18567668Y-44151732D01*
X18558473Y-44151731D01*
X18547889Y-44151729D01*
X18528380Y-44153647D01*
X18509620Y-44159335D01*
X18492322Y-44168579D01*
X18371410Y-44249370D01*
X18365753Y-44251713D01*
X18207623Y-44317213D01*
X18207622Y-44317213D01*
X18207620Y-44317214D01*
X18033742Y-44351800D01*
X17856458Y-44351800D01*
X17682580Y-44317214D01*
X17682578Y-44317213D01*
X17682577Y-44317213D01*
X17524447Y-44251713D01*
X17518790Y-44249370D01*
X17397878Y-44168579D01*
X17380594Y-44159341D01*
X17361835Y-44153650D01*
X17342309Y-44151729D01*
X17313108Y-44151734D01*
X17312532Y-44151734D01*
X17293024Y-44153659D01*
X17274266Y-44159352D01*
X17256979Y-44168596D01*
X17241827Y-44181035D01*
X17229394Y-44196190D01*
X17220156Y-44213481D01*
X17214468Y-44232241D01*
X17212550Y-44251711D01*
X17212472Y-44637023D01*
X17212472Y-44637024D01*
X16740810Y-44165362D01*
X16725656Y-44152926D01*
X16708368Y-44143685D01*
X16689609Y-44137994D01*
X16670100Y-44136073D01*
X16650591Y-44137994D01*
X16631832Y-44143685D01*
X16614544Y-44152926D01*
X16599390Y-44165362D01*
X16127728Y-44637024D01*
X16127650Y-44251711D01*
X16125725Y-44232202D01*
X16120030Y-44213444D01*
X16110786Y-44196158D01*
X16098347Y-44181007D01*
X16083191Y-44168574D01*
X16065900Y-44159336D01*
X16047140Y-44153650D01*
X16027668Y-44151732D01*
X16018473Y-44151731D01*
X16007889Y-44151729D01*
X15988380Y-44153647D01*
X15969620Y-44159335D01*
X15952322Y-44168579D01*
X15831410Y-44249370D01*
X15825753Y-44251713D01*
X15667623Y-44317213D01*
X15667622Y-44317213D01*
X15667620Y-44317214D01*
X15493742Y-44351800D01*
X15316458Y-44351800D01*
X15142580Y-44317214D01*
X15142578Y-44317213D01*
X15142577Y-44317213D01*
X14984447Y-44251713D01*
X14978790Y-44249370D01*
X14857878Y-44168579D01*
X14840594Y-44159341D01*
X14821835Y-44153650D01*
X14802309Y-44151729D01*
X14773108Y-44151734D01*
X14772532Y-44151734D01*
X14753024Y-44153659D01*
X14734266Y-44159352D01*
X14716979Y-44168596D01*
X14701827Y-44181035D01*
X14689394Y-44196190D01*
X14680156Y-44213481D01*
X14674468Y-44232241D01*
X14672550Y-44251711D01*
X14672472Y-44637023D01*
X14672472Y-44637024D01*
X14200810Y-44165362D01*
X14185656Y-44152926D01*
X14168368Y-44143685D01*
X14149609Y-44137994D01*
X14130100Y-44136073D01*
X14110591Y-44137994D01*
X14091832Y-44143685D01*
X14074544Y-44152926D01*
X14059390Y-44165362D01*
X13587728Y-44637024D01*
X13587650Y-44251711D01*
X13585725Y-44232202D01*
X13580030Y-44213444D01*
X13570786Y-44196158D01*
X13558347Y-44181007D01*
X13543191Y-44168574D01*
X13525900Y-44159336D01*
X13507140Y-44153650D01*
X13487668Y-44151732D01*
X13478473Y-44151731D01*
X13467889Y-44151729D01*
X13448380Y-44153647D01*
X13429620Y-44159335D01*
X13412322Y-44168579D01*
X13291410Y-44249370D01*
X13285753Y-44251713D01*
X13127623Y-44317213D01*
X13127622Y-44317213D01*
X13127620Y-44317214D01*
X12953742Y-44351800D01*
X12776458Y-44351800D01*
X12602580Y-44317214D01*
X12602578Y-44317213D01*
X12602577Y-44317213D01*
X12444447Y-44251713D01*
X12438790Y-44249370D01*
X12317878Y-44168579D01*
X12300594Y-44159341D01*
X12281835Y-44153650D01*
X12262309Y-44151729D01*
X12233108Y-44151734D01*
X12232532Y-44151734D01*
X12213024Y-44153659D01*
X12194266Y-44159352D01*
X12176979Y-44168596D01*
X12161827Y-44181035D01*
X12149394Y-44196190D01*
X12140156Y-44213481D01*
X12134468Y-44232241D01*
X12132550Y-44251711D01*
X12132472Y-44637023D01*
X12132472Y-44637024D01*
X11660810Y-44165362D01*
X11645656Y-44152926D01*
X11628368Y-44143685D01*
X11609609Y-44137994D01*
X11590100Y-44136073D01*
X11570591Y-44137994D01*
X11551832Y-44143685D01*
X11534544Y-44152926D01*
X11519390Y-44165362D01*
X11047728Y-44637024D01*
X11047650Y-44251711D01*
X11045725Y-44232202D01*
X11040030Y-44213444D01*
X11030786Y-44196158D01*
X11018347Y-44181007D01*
X11003191Y-44168574D01*
X10985900Y-44159336D01*
X10967140Y-44153650D01*
X10947668Y-44151732D01*
X10938473Y-44151731D01*
X10927889Y-44151729D01*
X10908380Y-44153647D01*
X10889620Y-44159335D01*
X10872322Y-44168579D01*
X10751410Y-44249370D01*
X10745753Y-44251713D01*
X10587623Y-44317213D01*
X10587622Y-44317213D01*
X10587620Y-44317214D01*
X10413742Y-44351800D01*
X10236458Y-44351800D01*
X10062580Y-44317214D01*
X10062578Y-44317213D01*
X10062577Y-44317213D01*
X9904447Y-44251713D01*
X9898790Y-44249370D01*
X9777878Y-44168579D01*
X9760594Y-44159341D01*
X9741835Y-44153650D01*
X9722309Y-44151729D01*
X9693108Y-44151734D01*
X9692532Y-44151734D01*
X9673024Y-44153659D01*
X9654266Y-44159352D01*
X9636979Y-44168596D01*
X9621827Y-44181035D01*
X9609394Y-44196190D01*
X9600156Y-44213481D01*
X9594468Y-44232241D01*
X9592550Y-44251711D01*
X9592472Y-44637023D01*
X9592472Y-44637024D01*
X9120810Y-44165362D01*
X9105656Y-44152926D01*
X9088368Y-44143685D01*
X9069609Y-44137994D01*
X9050100Y-44136073D01*
X9030591Y-44137994D01*
X9011832Y-44143685D01*
X8994544Y-44152926D01*
X8979390Y-44165362D01*
X8507728Y-44637024D01*
X8507650Y-44251711D01*
X8505725Y-44232202D01*
X8500030Y-44213444D01*
X8490786Y-44196158D01*
X8478347Y-44181007D01*
X8463191Y-44168574D01*
X8445900Y-44159336D01*
X8427140Y-44153650D01*
X8407668Y-44151732D01*
X8398473Y-44151731D01*
X8387889Y-44151729D01*
X8368380Y-44153647D01*
X8349620Y-44159335D01*
X8332322Y-44168579D01*
X8211410Y-44249370D01*
X8205753Y-44251713D01*
X8047623Y-44317213D01*
X8047622Y-44317213D01*
X8047620Y-44317214D01*
X7873742Y-44351800D01*
X7696458Y-44351800D01*
X7522580Y-44317214D01*
X7522578Y-44317213D01*
X7522577Y-44317213D01*
X7364447Y-44251713D01*
X7358790Y-44249370D01*
X7237878Y-44168579D01*
X7220594Y-44159341D01*
X7201835Y-44153650D01*
X7182309Y-44151729D01*
X7153108Y-44151734D01*
X7152532Y-44151734D01*
X7133024Y-44153659D01*
X7114266Y-44159352D01*
X7096979Y-44168596D01*
X7081827Y-44181035D01*
X7069394Y-44196190D01*
X7060156Y-44213481D01*
X7054468Y-44232241D01*
X7052550Y-44251711D01*
X7052472Y-44637023D01*
X7052472Y-44637024D01*
X6580810Y-44165362D01*
X6565656Y-44152926D01*
X6548368Y-44143685D01*
X6529609Y-44137994D01*
X6510100Y-44136073D01*
X6490591Y-44137994D01*
X6471832Y-44143685D01*
X6454544Y-44152926D01*
X6439390Y-44165362D01*
X5967728Y-44637024D01*
X5967650Y-44251711D01*
X5965725Y-44232202D01*
X5960030Y-44213444D01*
X5950786Y-44196158D01*
X5938347Y-44181007D01*
X5923191Y-44168574D01*
X5905900Y-44159336D01*
X5887140Y-44153650D01*
X5867668Y-44151732D01*
X5858473Y-44151731D01*
X5847889Y-44151729D01*
X5828380Y-44153647D01*
X5809620Y-44159335D01*
X5792322Y-44168579D01*
X5671410Y-44249370D01*
X5665753Y-44251713D01*
X5507623Y-44317213D01*
X5507622Y-44317213D01*
X5507620Y-44317214D01*
X5333742Y-44351800D01*
X5156458Y-44351800D01*
X4982580Y-44317214D01*
X4982578Y-44317213D01*
X4982577Y-44317213D01*
X4824447Y-44251713D01*
X4818790Y-44249370D01*
X4697878Y-44168579D01*
X4680594Y-44159341D01*
X4661835Y-44153650D01*
X4642309Y-44151729D01*
X4613108Y-44151734D01*
X4612532Y-44151734D01*
X4593024Y-44153659D01*
X4574266Y-44159352D01*
X4556979Y-44168596D01*
X4541827Y-44181035D01*
X4529394Y-44196190D01*
X4520156Y-44213481D01*
X4514468Y-44232241D01*
X4512550Y-44251711D01*
X4512472Y-44637023D01*
X4512472Y-44637024D01*
X4040810Y-44165362D01*
X4025656Y-44152926D01*
X4008368Y-44143685D01*
X3989609Y-44137994D01*
X3970100Y-44136073D01*
X3950591Y-44137994D01*
X3931832Y-44143685D01*
X3914544Y-44152926D01*
X3899390Y-44165362D01*
X3427728Y-44637024D01*
X3427650Y-44251711D01*
X3425725Y-44232202D01*
X3420030Y-44213444D01*
X3410786Y-44196158D01*
X3398347Y-44181007D01*
X3383191Y-44168574D01*
X3365900Y-44159336D01*
X3347140Y-44153650D01*
X3327671Y-44151732D01*
X2942423Y-44151664D01*
X3395816Y-43698271D01*
X3408247Y-43683123D01*
X3417488Y-43665835D01*
X3423179Y-43647076D01*
X3425100Y-43627567D01*
X3425100Y-43591073D01*
X3423179Y-43571564D01*
X3417488Y-43552805D01*
X3414795Y-43547767D01*
X3417496Y-43542711D01*
X3423182Y-43523951D01*
X3425100Y-43504461D01*
X3425100Y-43276799D01*
X3423179Y-43257290D01*
X3417488Y-43238531D01*
X3408247Y-43221243D01*
X3395811Y-43206089D01*
X3380657Y-43193653D01*
X3363369Y-43184412D01*
X3344610Y-43178721D01*
X3325101Y-43176800D01*
X3142405Y-43176800D01*
X3184145Y-43135048D01*
X3196575Y-43119898D01*
X3205813Y-43102608D01*
X3211501Y-43083848D01*
X3213420Y-43064339D01*
X3211496Y-43044830D01*
X3205803Y-43026072D01*
X3196559Y-43008785D01*
X3184136Y-42993649D01*
X2951571Y-42761084D01*
X2936423Y-42748653D01*
X2919135Y-42739412D01*
X2900376Y-42733721D01*
X2880867Y-42731800D01*
X2844373Y-42731800D01*
X2824864Y-42733721D01*
X2806105Y-42739412D01*
X2801067Y-42742105D01*
X2796011Y-42739404D01*
X2777251Y-42733718D01*
X2757761Y-42731800D01*
X2530099Y-42731800D01*
X2510590Y-42733721D01*
X2491831Y-42739412D01*
X2474543Y-42748653D01*
X2459389Y-42761089D01*
X2446953Y-42776243D01*
X2437712Y-42793531D01*
X2432021Y-42812290D01*
X2430100Y-42831799D01*
X2430100Y-43014495D01*
X2388348Y-42972755D01*
X2373198Y-42960325D01*
X2355908Y-42951087D01*
X2337148Y-42945399D01*
X2317639Y-42943480D01*
X2298130Y-42945404D01*
X2279372Y-42951097D01*
X2262085Y-42960341D01*
X2246949Y-42972764D01*
X2011737Y-43207976D01*
X2000336Y-43221869D01*
X1997623Y-43212931D01*
X1988379Y-43195644D01*
X1975953Y-43180505D01*
X1510809Y-42715361D01*
X1495655Y-42702925D01*
X1478367Y-42693684D01*
X1459608Y-42687993D01*
X1440099Y-42686072D01*
X1420590Y-42687993D01*
X1401831Y-42693684D01*
X1384543Y-42702925D01*
X1369389Y-42715361D01*
X1356953Y-42730515D01*
X1347712Y-42747803D01*
X1342021Y-42766562D01*
X1340100Y-42786071D01*
X1340100Y-43014495D01*
X1270865Y-42945280D01*
X1255714Y-42932849D01*
X1238424Y-42923611D01*
X1219664Y-42917923D01*
X1200155Y-42916004D01*
X1180646Y-42917928D01*
X1161888Y-42923621D01*
X1144601Y-42932865D01*
X1129459Y-42945293D01*
X887728Y-43187024D01*
X887610Y-42603544D01*
X885685Y-42584035D01*
X879990Y-42565277D01*
X870746Y-42547991D01*
X858311Y-42532844D01*
X590100Y-42264710D01*
X590100Y-42186799D01*
X588179Y-42167290D01*
X582488Y-42148531D01*
X573247Y-42131243D01*
X566258Y-42122726D01*
X858361Y-41830706D01*
X870799Y-41815554D01*
X880043Y-41798267D01*
X885736Y-41779509D01*
X887660Y-41759965D01*
X887650Y-41711710D01*
X885725Y-41692202D01*
X880030Y-41673444D01*
X870786Y-41656157D01*
X858346Y-41641006D01*
X843190Y-41628573D01*
X825900Y-41619336D01*
X807140Y-41613649D01*
X787671Y-41611732D01*
X402423Y-41611664D01*
X855816Y-41158271D01*
X868247Y-41143123D01*
X877488Y-41125835D01*
X883179Y-41107076D01*
X885100Y-41087567D01*
X885100Y-41051073D01*
X883179Y-41031564D01*
X877488Y-41012805D01*
X874795Y-41007767D01*
X877496Y-41002711D01*
X883182Y-40983951D01*
X885100Y-40964461D01*
X885100Y-40736799D01*
X883179Y-40717290D01*
X877488Y-40698531D01*
X868247Y-40681243D01*
X855811Y-40666089D01*
X840657Y-40653653D01*
X823369Y-40644412D01*
X804610Y-40638721D01*
X785101Y-40636800D01*
X602405Y-40636800D01*
X644145Y-40595048D01*
X656575Y-40579898D01*
X665813Y-40562608D01*
X671501Y-40543848D01*
X673420Y-40524339D01*
X671496Y-40504830D01*
X665803Y-40486072D01*
X656559Y-40468785D01*
X644136Y-40453649D01*
X402423Y-40211936D01*
X787641Y-40211868D01*
X807147Y-40209943D01*
X825905Y-40204249D01*
X843192Y-40195005D01*
X858343Y-40182567D01*
X870777Y-40167411D01*
X880015Y-40150121D01*
X885702Y-40131361D01*
X887620Y-40111848D01*
X887610Y-40063543D01*
X885685Y-40044035D01*
X879990Y-40025277D01*
X870746Y-40007990D01*
X858311Y-39992844D01*
X590100Y-39724710D01*
X590100Y-39646799D01*
X588179Y-39627290D01*
X582488Y-39608531D01*
X573247Y-39591243D01*
X566258Y-39582726D01*
X858361Y-39290706D01*
X870799Y-39275554D01*
X880043Y-39258267D01*
X885736Y-39239509D01*
X887660Y-39219965D01*
X887650Y-39171710D01*
X885725Y-39152202D01*
X880030Y-39133444D01*
X870786Y-39116157D01*
X858346Y-39101006D01*
X843190Y-39088573D01*
X825900Y-39079336D01*
X807140Y-39073649D01*
X787671Y-39071732D01*
X402423Y-39071664D01*
X855816Y-38618271D01*
X868247Y-38603123D01*
X877488Y-38585835D01*
X883179Y-38567076D01*
X885100Y-38547567D01*
X885100Y-38511073D01*
X883179Y-38491564D01*
X877488Y-38472805D01*
X874795Y-38467767D01*
X877496Y-38462711D01*
X883182Y-38443951D01*
X885100Y-38424461D01*
X885100Y-38196799D01*
X883179Y-38177290D01*
X877488Y-38158531D01*
X868247Y-38141243D01*
X855811Y-38126089D01*
X840657Y-38113653D01*
X823369Y-38104412D01*
X804610Y-38098721D01*
X785101Y-38096800D01*
X602405Y-38096800D01*
X644145Y-38055048D01*
X656575Y-38039898D01*
X665813Y-38022608D01*
X671501Y-38003848D01*
X673420Y-37984339D01*
X671496Y-37964830D01*
X665803Y-37946072D01*
X656559Y-37928785D01*
X644136Y-37913649D01*
X402423Y-37671936D01*
X787641Y-37671868D01*
X807147Y-37669943D01*
X825905Y-37664249D01*
X843192Y-37655005D01*
X858343Y-37642567D01*
X870777Y-37627411D01*
X880015Y-37610121D01*
X885702Y-37591361D01*
X887620Y-37571848D01*
X887610Y-37523543D01*
X885685Y-37504035D01*
X879990Y-37485277D01*
X870746Y-37467990D01*
X858311Y-37452844D01*
X590100Y-37184710D01*
X590100Y-37106799D01*
X588179Y-37087290D01*
X582488Y-37068531D01*
X573247Y-37051243D01*
X566258Y-37042726D01*
X858361Y-36750706D01*
X870799Y-36735554D01*
X880043Y-36718267D01*
X885736Y-36699509D01*
X887660Y-36679965D01*
X887650Y-36631710D01*
X885725Y-36612202D01*
X880030Y-36593444D01*
X870786Y-36576157D01*
X858346Y-36561006D01*
X843190Y-36548573D01*
X825900Y-36539336D01*
X807140Y-36533649D01*
X787671Y-36531732D01*
X402423Y-36531664D01*
X855816Y-36078271D01*
X868247Y-36063123D01*
X877488Y-36045835D01*
X883179Y-36027076D01*
X885100Y-36007567D01*
X885100Y-35971073D01*
X883179Y-35951564D01*
X877488Y-35932805D01*
X874795Y-35927767D01*
X877496Y-35922711D01*
X883182Y-35903951D01*
X885100Y-35884461D01*
X885100Y-35656799D01*
X883179Y-35637290D01*
X877488Y-35618531D01*
X868247Y-35601243D01*
X855811Y-35586089D01*
X840657Y-35573653D01*
X823369Y-35564412D01*
X804610Y-35558721D01*
X785101Y-35556800D01*
X602405Y-35556800D01*
X644145Y-35515048D01*
X656575Y-35499898D01*
X665813Y-35482608D01*
X671501Y-35463848D01*
X673420Y-35444339D01*
X671496Y-35424830D01*
X665803Y-35406072D01*
X656559Y-35388785D01*
X644136Y-35373649D01*
X402423Y-35131936D01*
X787641Y-35131868D01*
X807147Y-35129943D01*
X825905Y-35124249D01*
X843192Y-35115005D01*
X858343Y-35102567D01*
X870777Y-35087411D01*
X880015Y-35070121D01*
X885702Y-35051361D01*
X887620Y-35031848D01*
X887610Y-34983543D01*
X885685Y-34964035D01*
X879990Y-34945277D01*
X870746Y-34927990D01*
X858311Y-34912844D01*
X590100Y-34644710D01*
X590100Y-34566799D01*
X588179Y-34547290D01*
X582488Y-34528531D01*
X573247Y-34511243D01*
X566258Y-34502726D01*
X858361Y-34210706D01*
X870799Y-34195554D01*
X880043Y-34178267D01*
X885736Y-34159509D01*
X887660Y-34139965D01*
X887650Y-34091710D01*
X885725Y-34072202D01*
X880030Y-34053444D01*
X870786Y-34036157D01*
X858346Y-34021006D01*
X843190Y-34008573D01*
X825900Y-33999336D01*
X807140Y-33993649D01*
X787671Y-33991732D01*
X402423Y-33991664D01*
X855816Y-33538271D01*
X868247Y-33523123D01*
X877488Y-33505835D01*
X883179Y-33487076D01*
X885100Y-33467567D01*
X885100Y-33431073D01*
X883179Y-33411564D01*
X877488Y-33392805D01*
X874795Y-33387767D01*
X877496Y-33382711D01*
X883182Y-33363951D01*
X885100Y-33344461D01*
X885100Y-33116799D01*
X883179Y-33097290D01*
X877488Y-33078531D01*
X868247Y-33061243D01*
X855811Y-33046089D01*
X840657Y-33033653D01*
X823369Y-33024412D01*
X804610Y-33018721D01*
X785101Y-33016800D01*
X602405Y-33016800D01*
X644145Y-32975048D01*
X656575Y-32959898D01*
X665813Y-32942608D01*
X671501Y-32923848D01*
X673420Y-32904339D01*
X671496Y-32884830D01*
X665803Y-32866072D01*
X656559Y-32848785D01*
X644136Y-32833649D01*
X402423Y-32591936D01*
X787641Y-32591868D01*
X807147Y-32589943D01*
X825905Y-32584249D01*
X843192Y-32575005D01*
X858343Y-32562567D01*
X870777Y-32547411D01*
X880015Y-32530121D01*
X885702Y-32511361D01*
X887620Y-32491848D01*
X887610Y-32443543D01*
X885685Y-32424035D01*
X879990Y-32405277D01*
X870746Y-32387990D01*
X858311Y-32372844D01*
X590100Y-32104710D01*
X590100Y-32026799D01*
X588179Y-32007290D01*
X582488Y-31988531D01*
X573247Y-31971243D01*
X566258Y-31962726D01*
X858361Y-31670706D01*
X870799Y-31655554D01*
X880043Y-31638267D01*
X885736Y-31619509D01*
X887660Y-31599965D01*
X887650Y-31551710D01*
X885725Y-31532202D01*
X880030Y-31513444D01*
X870786Y-31496157D01*
X858346Y-31481006D01*
X843190Y-31468573D01*
X825900Y-31459336D01*
X807140Y-31453649D01*
X787671Y-31451732D01*
X402423Y-31451664D01*
X855816Y-30998271D01*
X868247Y-30983123D01*
X877488Y-30965835D01*
X883179Y-30947076D01*
X885100Y-30927567D01*
X885100Y-30891073D01*
X883179Y-30871564D01*
X877488Y-30852805D01*
X874795Y-30847767D01*
X877496Y-30842711D01*
X883182Y-30823951D01*
X885100Y-30804461D01*
X885100Y-30576799D01*
X883179Y-30557290D01*
X877488Y-30538531D01*
X868247Y-30521243D01*
X855811Y-30506089D01*
X840657Y-30493653D01*
X823369Y-30484412D01*
X804610Y-30478721D01*
X785101Y-30476800D01*
X602405Y-30476800D01*
X644145Y-30435048D01*
X656575Y-30419898D01*
X665813Y-30402608D01*
X671501Y-30383848D01*
X673420Y-30364339D01*
X671496Y-30344830D01*
X665803Y-30326072D01*
X656559Y-30308785D01*
X644136Y-30293649D01*
X402423Y-30051936D01*
X787641Y-30051868D01*
X807147Y-30049943D01*
X825905Y-30044249D01*
X843192Y-30035005D01*
X858343Y-30022567D01*
X870777Y-30007411D01*
X880015Y-29990121D01*
X885702Y-29971361D01*
X887620Y-29951848D01*
X887610Y-29903543D01*
X885685Y-29884035D01*
X879990Y-29865277D01*
X870746Y-29847990D01*
X858311Y-29832844D01*
X590100Y-29564710D01*
X590100Y-29486799D01*
X588179Y-29467290D01*
X582488Y-29448531D01*
X573247Y-29431243D01*
X566258Y-29422726D01*
X858361Y-29130706D01*
X870799Y-29115554D01*
X880043Y-29098267D01*
X885736Y-29079509D01*
X887660Y-29059965D01*
X887650Y-29011710D01*
X885725Y-28992202D01*
X880030Y-28973444D01*
X870786Y-28956157D01*
X858346Y-28941006D01*
X843190Y-28928573D01*
X825900Y-28919336D01*
X807140Y-28913649D01*
X787671Y-28911732D01*
X402423Y-28911664D01*
X855816Y-28458271D01*
X868247Y-28443123D01*
X877488Y-28425835D01*
X883179Y-28407076D01*
X885100Y-28387567D01*
X885100Y-28351073D01*
X883179Y-28331564D01*
X877488Y-28312805D01*
X874795Y-28307767D01*
X877496Y-28302711D01*
X883182Y-28283951D01*
X885100Y-28264461D01*
X885100Y-28036799D01*
X883179Y-28017290D01*
X877488Y-27998531D01*
X868247Y-27981243D01*
X855811Y-27966089D01*
X840657Y-27953653D01*
X823369Y-27944412D01*
X804610Y-27938721D01*
X785101Y-27936800D01*
X602405Y-27936800D01*
X644145Y-27895048D01*
X656575Y-27879898D01*
X665813Y-27862608D01*
X671501Y-27843848D01*
X673420Y-27824339D01*
X671496Y-27804830D01*
X665803Y-27786072D01*
X656559Y-27768785D01*
X644136Y-27753649D01*
X402423Y-27511936D01*
X787641Y-27511868D01*
X807147Y-27509943D01*
X825905Y-27504249D01*
X843192Y-27495005D01*
X858343Y-27482567D01*
X870777Y-27467411D01*
X880015Y-27450121D01*
X885702Y-27431361D01*
X887620Y-27411848D01*
X887610Y-27363543D01*
X885685Y-27344035D01*
X879990Y-27325277D01*
X870746Y-27307990D01*
X858311Y-27292844D01*
X590100Y-27024710D01*
X590100Y-26946799D01*
X588179Y-26927290D01*
X582488Y-26908531D01*
X573247Y-26891243D01*
X566258Y-26882726D01*
X858361Y-26590706D01*
X870799Y-26575554D01*
X880043Y-26558267D01*
X885736Y-26539509D01*
X887660Y-26519965D01*
X887650Y-26471710D01*
X885725Y-26452202D01*
X880030Y-26433444D01*
X870786Y-26416157D01*
X858346Y-26401006D01*
X843190Y-26388573D01*
X825900Y-26379336D01*
X807140Y-26373649D01*
X787671Y-26371732D01*
X402423Y-26371664D01*
X855816Y-25918271D01*
X868247Y-25903123D01*
X877488Y-25885835D01*
X883179Y-25867076D01*
X885100Y-25847567D01*
X885100Y-25811073D01*
X883179Y-25791564D01*
X877488Y-25772805D01*
X874795Y-25767767D01*
X877496Y-25762711D01*
X883182Y-25743951D01*
X885100Y-25724461D01*
X885100Y-25496799D01*
X883179Y-25477290D01*
X877488Y-25458531D01*
X868247Y-25441243D01*
X855811Y-25426089D01*
X840657Y-25413653D01*
X823369Y-25404412D01*
X804610Y-25398721D01*
X785101Y-25396800D01*
X602405Y-25396800D01*
X644145Y-25355048D01*
X656575Y-25339898D01*
X665813Y-25322608D01*
X671501Y-25303848D01*
X673420Y-25284339D01*
X671496Y-25264830D01*
X665803Y-25246072D01*
X656559Y-25228785D01*
X644136Y-25213649D01*
X402423Y-24971936D01*
X787641Y-24971868D01*
X807147Y-24969943D01*
X825905Y-24964249D01*
X843192Y-24955005D01*
X858343Y-24942567D01*
X870777Y-24927411D01*
X880015Y-24910121D01*
X885702Y-24891361D01*
X887620Y-24871848D01*
X887610Y-24823543D01*
X885685Y-24804035D01*
X879990Y-24785277D01*
X870746Y-24767990D01*
X858311Y-24752844D01*
X590100Y-24484710D01*
X590100Y-24406799D01*
X588179Y-24387290D01*
X582488Y-24368531D01*
X573247Y-24351243D01*
X566258Y-24342726D01*
X858361Y-24050706D01*
X870799Y-24035554D01*
X880043Y-24018267D01*
X885736Y-23999509D01*
X887660Y-23979965D01*
X887650Y-23931710D01*
X885725Y-23912202D01*
X880030Y-23893444D01*
X870786Y-23876157D01*
X858346Y-23861006D01*
X843190Y-23848573D01*
X825900Y-23839336D01*
X807140Y-23833649D01*
X787671Y-23831732D01*
X402423Y-23831664D01*
X855816Y-23378271D01*
X868247Y-23363123D01*
X877488Y-23345835D01*
X883179Y-23327076D01*
X885100Y-23307567D01*
X885100Y-23271073D01*
X883179Y-23251564D01*
X877488Y-23232805D01*
X874795Y-23227767D01*
X877496Y-23222711D01*
X883182Y-23203951D01*
X885100Y-23184461D01*
X885100Y-22956799D01*
X883179Y-22937290D01*
X877488Y-22918531D01*
X868247Y-22901243D01*
X855811Y-22886089D01*
X840657Y-22873653D01*
X823369Y-22864412D01*
X804610Y-22858721D01*
X785101Y-22856800D01*
X602405Y-22856800D01*
X644145Y-22815048D01*
X656575Y-22799898D01*
X665813Y-22782608D01*
X671501Y-22763848D01*
X673420Y-22744339D01*
X671496Y-22724830D01*
X665803Y-22706072D01*
X656559Y-22688785D01*
X644136Y-22673649D01*
X402423Y-22431936D01*
X787641Y-22431868D01*
X807147Y-22429943D01*
X825905Y-22424249D01*
X843192Y-22415005D01*
X858343Y-22402567D01*
X870777Y-22387411D01*
X880015Y-22370121D01*
X885702Y-22351361D01*
X887620Y-22331848D01*
X887610Y-22283543D01*
X885685Y-22264035D01*
X879990Y-22245277D01*
X870746Y-22227990D01*
X858311Y-22212844D01*
X590100Y-21944710D01*
X590100Y-21866799D01*
X588179Y-21847290D01*
X582488Y-21828531D01*
X573247Y-21811243D01*
X566258Y-21802726D01*
X858361Y-21510706D01*
X870799Y-21495554D01*
X880043Y-21478267D01*
X885736Y-21459509D01*
X887660Y-21439965D01*
X887650Y-21391710D01*
X885725Y-21372202D01*
X880030Y-21353444D01*
X870786Y-21336157D01*
X858346Y-21321006D01*
X843190Y-21308573D01*
X825900Y-21299336D01*
X807140Y-21293649D01*
X787671Y-21291732D01*
X402423Y-21291664D01*
X855816Y-20838271D01*
X868247Y-20823123D01*
X877488Y-20805835D01*
X883179Y-20787076D01*
X885100Y-20767567D01*
X885100Y-20731073D01*
X883179Y-20711564D01*
X877488Y-20692805D01*
X874795Y-20687767D01*
X877496Y-20682711D01*
X883182Y-20663951D01*
X885100Y-20644461D01*
X885100Y-20416799D01*
X883179Y-20397290D01*
X877488Y-20378531D01*
X868247Y-20361243D01*
X855811Y-20346089D01*
X840657Y-20333653D01*
X823369Y-20324412D01*
X804610Y-20318721D01*
X785101Y-20316800D01*
X602405Y-20316800D01*
X644145Y-20275048D01*
X656575Y-20259898D01*
X665813Y-20242608D01*
X671501Y-20223848D01*
X673420Y-20204339D01*
X671496Y-20184830D01*
X665803Y-20166072D01*
X656559Y-20148785D01*
X644136Y-20133649D01*
X402423Y-19891936D01*
X787641Y-19891868D01*
X807147Y-19889943D01*
X825905Y-19884249D01*
X843192Y-19875005D01*
X858343Y-19862567D01*
X870777Y-19847411D01*
X880015Y-19830121D01*
X885702Y-19811361D01*
X887620Y-19791848D01*
X887610Y-19743543D01*
X885685Y-19724035D01*
X879990Y-19705277D01*
X870746Y-19687990D01*
X858311Y-19672844D01*
X590100Y-19404710D01*
X590100Y-19326799D01*
X588179Y-19307290D01*
X582488Y-19288531D01*
X573247Y-19271243D01*
X566258Y-19262726D01*
X858361Y-18970706D01*
X870799Y-18955554D01*
X880043Y-18938267D01*
X885736Y-18919509D01*
X887660Y-18899965D01*
X887650Y-18851710D01*
X885725Y-18832202D01*
X880030Y-18813444D01*
X870786Y-18796157D01*
X858346Y-18781006D01*
X843190Y-18768573D01*
X825900Y-18759336D01*
X807140Y-18753649D01*
X787671Y-18751732D01*
X402423Y-18751664D01*
X855816Y-18298271D01*
X868247Y-18283123D01*
X877488Y-18265835D01*
X883179Y-18247076D01*
X885100Y-18227567D01*
X885100Y-18191073D01*
X883179Y-18171564D01*
X877488Y-18152805D01*
X874795Y-18147767D01*
X877496Y-18142711D01*
X883182Y-18123951D01*
X885100Y-18104461D01*
X885100Y-17876799D01*
X883179Y-17857290D01*
X877488Y-17838531D01*
X868247Y-17821243D01*
X855811Y-17806089D01*
X840657Y-17793653D01*
X823369Y-17784412D01*
X804610Y-17778721D01*
X785101Y-17776800D01*
X602405Y-17776800D01*
X644145Y-17735048D01*
X656575Y-17719898D01*
X665813Y-17702608D01*
X671501Y-17683848D01*
X673420Y-17664339D01*
X671496Y-17644830D01*
X665803Y-17626072D01*
X656559Y-17608785D01*
X644136Y-17593649D01*
X402423Y-17351936D01*
X787641Y-17351868D01*
X807147Y-17349943D01*
X825905Y-17344249D01*
X843192Y-17335005D01*
X858343Y-17322567D01*
X870777Y-17307411D01*
X880015Y-17290121D01*
X885702Y-17271361D01*
X887620Y-17251848D01*
X887610Y-17203543D01*
X885685Y-17184035D01*
X879990Y-17165277D01*
X870746Y-17147990D01*
X858311Y-17132844D01*
X590100Y-16864710D01*
X590100Y-16786799D01*
X588179Y-16767290D01*
X582488Y-16748531D01*
X573247Y-16731243D01*
X566258Y-16722726D01*
X858361Y-16430706D01*
X870799Y-16415554D01*
X880043Y-16398267D01*
X885736Y-16379509D01*
X887660Y-16359965D01*
X887650Y-16311710D01*
X885725Y-16292202D01*
X880030Y-16273444D01*
X870786Y-16256157D01*
X858346Y-16241006D01*
X843190Y-16228573D01*
X825900Y-16219336D01*
X807140Y-16213649D01*
X787671Y-16211732D01*
X402423Y-16211664D01*
X855816Y-15758271D01*
X868247Y-15743123D01*
X877488Y-15725835D01*
X883179Y-15707076D01*
X885100Y-15687567D01*
X885100Y-15651073D01*
X883179Y-15631564D01*
X877488Y-15612805D01*
X874795Y-15607767D01*
X877496Y-15602711D01*
X883182Y-15583951D01*
X885100Y-15564461D01*
X885100Y-15336799D01*
X883179Y-15317290D01*
X877488Y-15298531D01*
X868247Y-15281243D01*
X855811Y-15266089D01*
X840657Y-15253653D01*
X823369Y-15244412D01*
X804610Y-15238721D01*
X785101Y-15236800D01*
X602405Y-15236800D01*
X644145Y-15195048D01*
X656575Y-15179898D01*
X665813Y-15162608D01*
X671501Y-15143848D01*
X673420Y-15124339D01*
X671496Y-15104830D01*
X665803Y-15086072D01*
X656559Y-15068785D01*
X644136Y-15053649D01*
X402423Y-14811936D01*
X787641Y-14811868D01*
X807147Y-14809943D01*
X825905Y-14804249D01*
X843192Y-14795005D01*
X858343Y-14782567D01*
X870777Y-14767411D01*
X880015Y-14750121D01*
X885702Y-14731361D01*
X887620Y-14711848D01*
X887610Y-14663543D01*
X885685Y-14644035D01*
X879990Y-14625277D01*
X870746Y-14607990D01*
X858311Y-14592844D01*
X590100Y-14324710D01*
X590100Y-14246799D01*
X588179Y-14227290D01*
X582488Y-14208531D01*
X573247Y-14191243D01*
X566258Y-14182726D01*
X858361Y-13890706D01*
X870799Y-13875554D01*
X880043Y-13858267D01*
X885736Y-13839509D01*
X887660Y-13819965D01*
X887650Y-13771710D01*
X885725Y-13752202D01*
X880030Y-13733444D01*
X870786Y-13716157D01*
X858346Y-13701006D01*
X843190Y-13688573D01*
X825900Y-13679336D01*
X807140Y-13673649D01*
X787671Y-13671732D01*
X402423Y-13671664D01*
X855816Y-13218271D01*
X868247Y-13203123D01*
X877488Y-13185835D01*
X883179Y-13167076D01*
X885100Y-13147567D01*
X885100Y-13111073D01*
X883179Y-13091564D01*
X877488Y-13072805D01*
X874795Y-13067767D01*
X877496Y-13062711D01*
X883182Y-13043951D01*
X885100Y-13024461D01*
X885100Y-12796799D01*
X883179Y-12777290D01*
X877488Y-12758531D01*
X868247Y-12741243D01*
X855811Y-12726089D01*
X840657Y-12713653D01*
X823369Y-12704412D01*
X804610Y-12698721D01*
X785101Y-12696800D01*
X602405Y-12696800D01*
X644145Y-12655048D01*
X656575Y-12639898D01*
X665813Y-12622608D01*
X671501Y-12603848D01*
X673420Y-12584339D01*
X671496Y-12564830D01*
X665803Y-12546072D01*
X656559Y-12528785D01*
X644136Y-12513649D01*
X402423Y-12271936D01*
X985842Y-12271833D01*
X1005347Y-12269908D01*
X1024105Y-12264214D01*
X1041392Y-12254970D01*
X1056541Y-12242534D01*
X1352190Y-11946800D01*
X1518010Y-11946800D01*
X1813659Y-12242534D01*
X1813659Y-12242534D01*
G37*
G36*
X45386695Y2166182D02*
G01*
X45641719Y2115455D01*
X45913821Y2002746D01*
X46042091Y1949615D01*
X46402418Y1708852D01*
X46708852Y1402418D01*
X46949615Y1042091D01*
X47002746Y913821D01*
X47115455Y641719D01*
X47200000Y216679D01*
X47200000Y-216679D01*
X47115455Y-641719D01*
X47002746Y-913821D01*
X46949615Y-1042091D01*
X46708852Y-1402418D01*
X46402418Y-1708852D01*
X46042091Y-1949615D01*
X45913821Y-2002746D01*
X45641719Y-2115455D01*
X45386695Y-2166182D01*
X45216681Y-2200000D01*
X44783319Y-2200000D01*
X44613305Y-2166182D01*
X44358281Y-2115455D01*
X44086179Y-2002746D01*
X43957909Y-1949615D01*
X43597582Y-1708852D01*
X43291148Y-1402418D01*
X43050385Y-1042091D01*
X42997254Y-913821D01*
X42884545Y-641719D01*
X42800000Y-216679D01*
X42800000Y216679D01*
X42884545Y641719D01*
X42997254Y913821D01*
X43050385Y1042091D01*
X43291148Y1402418D01*
X43597582Y1708852D01*
X43957909Y1949615D01*
X44086179Y2002746D01*
X44358281Y2115455D01*
X44613305Y2166182D01*
X44783319Y2200000D01*
X45216681Y2200000D01*
X45386695Y2166182D01*
X45386695Y2166182D01*
G37*
G36*
X5386695Y2166182D02*
G01*
X5641719Y2115455D01*
X5913821Y2002746D01*
X6042091Y1949615D01*
X6402418Y1708852D01*
X6708852Y1402418D01*
X6949615Y1042091D01*
X7002746Y913821D01*
X7115455Y641719D01*
X7200000Y216679D01*
X7200000Y-216679D01*
X7115455Y-641719D01*
X7002746Y-913821D01*
X6949615Y-1042091D01*
X6708852Y-1402418D01*
X6402418Y-1708852D01*
X6042091Y-1949615D01*
X5913821Y-2002746D01*
X5641719Y-2115455D01*
X5386695Y-2166182D01*
X5216681Y-2200000D01*
X4783319Y-2200000D01*
X4613305Y-2166182D01*
X4358281Y-2115455D01*
X4086179Y-2002746D01*
X3957909Y-1949615D01*
X3597582Y-1708852D01*
X3291148Y-1402418D01*
X3050385Y-1042091D01*
X2997254Y-913821D01*
X2884545Y-641719D01*
X2800000Y-216679D01*
X2800000Y216679D01*
X2884545Y641719D01*
X2997254Y913821D01*
X3050385Y1042091D01*
X3291148Y1402418D01*
X3597582Y1708852D01*
X3957909Y1949615D01*
X4086179Y2002746D01*
X4358281Y2115455D01*
X4613305Y2166182D01*
X4783319Y2200000D01*
X5216681Y2200000D01*
X5386695Y2166182D01*
X5386695Y2166182D01*
G37*
M02*
