M48
; DRILL file {KiCad 5.1.2} date Thu 05 Sep 2019 04:50:17 PM CEST
; FORMAT={2:4/ absolute / inch / suppress leading zeros}
; #@! TF.CreationDate,2019-09-05T16:50:17+02:00
; #@! TF.GenerationSoftware,Kicad,Pcbnew,5.1.2
FMAT,2
INCH,TZ
T1C0.0315
T2C0.1181
%
G90
G05
T1
X1065Y-11107
X1065Y-11107
X13065Y-15107
X13065Y-15107
X9065Y-15107
X9065Y-15107
X5065Y-14107
X5065Y-14107
X5065Y-11107
X5065Y-11107
X2065Y-8107
X2065Y-8107
X1065Y-12107
X1065Y-12107
X3065Y-9107
X3065Y-9107
X12065Y-17107
X12065Y-17107
X11065Y-11107
X11065Y-11107
X7065Y-5107
X7065Y-5107
X9065Y-12107
X9065Y-12107
X19065Y-7107
X19065Y-7107
X5065Y-9107
X5065Y-9107
X3065Y-10107
X3065Y-10107
X11065Y-14107
X11065Y-14107
X11065Y-7107
X11065Y-7107
X15065Y-7107
X15065Y-7107
X16065Y-14107
X16065Y-14107
X1065Y-14107
X1065Y-14107
X10065Y-14107
X10065Y-14107
X10065Y-12107
X10065Y-12107
X9065Y-10107
X9065Y-10107
X12065Y-8107
X12065Y-8107
X6065Y-7107
X6065Y-7107
X11065Y-7107
X11065Y-7107
X11065Y-12107
X11065Y-12107
X2065Y-5107
X2065Y-5107
X11065Y-8107
X11065Y-8107
X5065Y-5107
X5065Y-5107
X12065Y-12107
X12065Y-12107
X18065Y-7107
X18065Y-7107
X13065Y-9107
X13065Y-9107
X19065Y-15107
X19065Y-15107
X6065Y-15107
X6065Y-15107
X17065Y-9107
X17065Y-9107
X12065Y-10107
X12065Y-10107
X15065Y-12107
X15065Y-12107
X12065Y-15107
X12065Y-15107
X8065Y-15107
X8065Y-15107
X7065Y-16107
X7065Y-16107
X10065Y-17107
X10065Y-17107
X10065Y-9107
X10065Y-9107
X8065Y-8107
X8065Y-8107
X3065Y-5107
X3065Y-5107
X13065Y-10107
X13065Y-10107
X2065Y-6107
X2065Y-6107
X13065Y-16107
X13065Y-16107
X9065Y-16107
X9065Y-16107
X6065Y-16107
X6065Y-16107
X1065Y-6107
X1065Y-6107
X12065Y-16107
X12065Y-16107
X8065Y-16107
X8065Y-16107
X10065Y-16107
X10065Y-16107
X3065Y-11107
X3065Y-11107
X15065Y-5107
X15065Y-5107
X3065Y-7107
X3065Y-7107
X7065Y-7107
X7065Y-7107
X16065Y-16107
X16065Y-16107
X3065Y-9107
X3065Y-9107
X8065Y-14107
X8065Y-14107
X11065Y-16107
X11065Y-16107
X2065Y-16107
X2065Y-16107
X5065Y-5107
X5065Y-5107
X3065Y-12107
X3065Y-12107
X2065Y-7107
X2065Y-7107
X2065Y-9107
X2065Y-9107
X9065Y-14107
X9065Y-14107
X3065Y-16107
X3065Y-16107
X18065Y-8107
X18065Y-8107
X5065Y-6107
X5065Y-6107
X1065Y-13107
X1065Y-13107
X19065Y-11107
X19065Y-11107
X1065Y-13107
X1065Y-13107
X2065Y-11107
X2065Y-11107
X11065Y-5107
X11065Y-5107
X18065Y-15107
X18065Y-15107
X4065Y-14107
X4065Y-14107
X5065Y-7107
X5065Y-7107
X12065Y-7107
X12065Y-7107
X4065Y-11107
X4065Y-11107
X4065Y-10107
X4065Y-10107
X10065Y-7107
X10065Y-7107
X8065Y-5107
X8065Y-5107
X14065Y-11107
X14065Y-11107
X18065Y-16107
X18065Y-16107
X4065Y-16107
X4065Y-16107
X14065Y-17107
X14065Y-17107
X5065Y-10107
X5065Y-10107
X12065Y-9107
X12065Y-9107
X3065Y-6107
X3065Y-6107
X17065Y-7107
X17065Y-7107
X14065Y-13107
X14065Y-13107
X5065Y-16107
X5065Y-16107
X17065Y-9107
X17065Y-9107
X19065Y-5107
X19065Y-5107
X11065Y-5107
X11065Y-5107
X10065Y-6107
X10065Y-6107
X13065Y-6107
X13065Y-6107
X6065Y-6107
X6065Y-6107
X12065Y-14107
X12065Y-14107
X12065Y-6107
X12065Y-6107
X6065Y-17107
X6065Y-17107
X13065Y-5107
X13065Y-5107
X19065Y-9107
X19065Y-9107
X7065Y-10107
X7065Y-10107
X17065Y-16107
X17065Y-16107
X18065Y-14107
X18065Y-14107
X6065Y-8107
X6065Y-8107
X15065Y-17107
X15065Y-17107
X18065Y-5107
X18065Y-5107
X19065Y-10107
X19065Y-10107
X3065Y-7107
X3065Y-7107
X11065Y-10107
X11065Y-10107
X6065Y-9107
X6065Y-9107
X18065Y-13107
X18065Y-13107
X8065Y-13107
X8065Y-13107
X16065Y-17107
X16065Y-17107
X2065Y-15107
X2065Y-15107
X14065Y-6107
X14065Y-6107
X13065Y-7107
X13065Y-7107
X7065Y-12107
X7065Y-12107
X7065Y-11107
X7065Y-11107
X15065Y-9107
X15065Y-9107
X3065Y-13107
X3065Y-13107
X9065Y-11107
X9065Y-11107
X11065Y-9107
X11065Y-9107
X4065Y-8107
X4065Y-8107
X7065Y-9107
X7065Y-9107
X19065Y-12107
X19065Y-12107
X7065Y-6107
X7065Y-6107
X8065Y-17107
X8065Y-17107
X19065Y-15107
X19065Y-15107
X14065Y-16107
X14065Y-16107
X11065Y-17107
X11065Y-17107
X19065Y-6107
X19065Y-6107
X7065Y-11107
X7065Y-11107
X4065Y-17107
X4065Y-17107
X15065Y-9107
X15065Y-9107
X15065Y-14107
X15065Y-14107
X15065Y-16107
X15065Y-16107
X4065Y-15107
X4065Y-15107
X16065Y-9107
X16065Y-9107
X3065Y-13107
X3065Y-13107
X17065Y-8107
X17065Y-8107
X2065Y-10107
X2065Y-10107
X15065Y-11107
X15065Y-11107
X14065Y-14107
X14065Y-14107
X14065Y-15107
X14065Y-15107
X17065Y-10107
X17065Y-10107
X9065Y-6107
X9065Y-6107
X8065Y-7107
X8065Y-7107
X13065Y-9107
X13065Y-9107
X15065Y-11107
X15065Y-11107
X19065Y-7107
X19065Y-7107
X6065Y-14107
X6065Y-14107
X10065Y-11107
X10065Y-11107
X13065Y-13107
X13065Y-13107
X9065Y-9107
X9065Y-9107
X11065Y-9107
X11065Y-9107
X8065Y-6107
X8065Y-6107
X7065Y-9107
X7065Y-9107
X7065Y-14107
X7065Y-14107
X15065Y-7107
X15065Y-7107
X5065Y-15107
X5065Y-15107
X4065Y-6107
X4065Y-6107
X17065Y-11107
X17065Y-11107
X9065Y-9107
X9065Y-9107
X13065Y-8107
X13065Y-8107
X5065Y-17107
X5065Y-17107
X1065Y-11107
X1065Y-11107
X3065Y-11107
X3065Y-11107
X19065Y-13107
X19065Y-13107
X3065Y-15107
X3065Y-15107
X3065Y-17107
X3065Y-17107
X1065Y-7107
X1065Y-7107
X8065Y-11107
X8065Y-11107
X17065Y-13107
X17065Y-13107
X3065Y-15107
X3065Y-15107
X2065Y-17107
X2065Y-17107
X1065Y-7107
X1065Y-7107
X19065Y-13107
X19065Y-13107
X15065Y-6107
X15065Y-6107
X7065Y-8107
X7065Y-8107
X5065Y-7107
X5065Y-7107
X9065Y-11107
X9065Y-11107
X14065Y-9107
X14065Y-9107
X13065Y-14107
X13065Y-14107
X10065Y-15107
X10065Y-15107
X2065Y-13107
X2065Y-13107
X14065Y-5107
X14065Y-5107
X12065Y-13107
X12065Y-13107
X16065Y-15107
X16065Y-15107
X14065Y-7107
X14065Y-7107
X16065Y-10107
X16065Y-10107
X19065Y-16107
X19065Y-16107
X3065Y-5107
X3065Y-5107
X7065Y-13107
X7065Y-13107
X6065Y-12107
X6065Y-12107
X4065Y-5107
X4065Y-5107
X6065Y-13107
X6065Y-13107
X15065Y-15107
X15065Y-15107
X5065Y-15107
X5065Y-15107
X4065Y-9107
X4065Y-9107
X17065Y-15107
X17065Y-15107
X9065Y-13107
X9065Y-13107
X7065Y-7107
X7065Y-7107
X9065Y-13107
X9065Y-13107
X15065Y-5107
X15065Y-5107
X9065Y-7107
X9065Y-7107
X13065Y-13107
X13065Y-13107
X1065Y-15107
X1065Y-15107
X9065Y-7107
X9065Y-7107
X1065Y-10107
X1065Y-10107
X15065Y-10107
X15065Y-10107
X17065Y-13107
X17065Y-13107
X3065Y-14107
X3065Y-14107
X13065Y-11107
X13065Y-11107
X14065Y-10107
X14065Y-10107
X16065Y-13107
X16065Y-13107
X16065Y-12107
X16065Y-12107
X2065Y-14107
X2065Y-14107
X1065Y-15107
X1065Y-15107
X13065Y-17107
X13065Y-17107
X11065Y-6107
X11065Y-6107
X19065Y-14107
X19065Y-14107
X11065Y-15107
X11065Y-15107
X5065Y-13107
X5065Y-13107
X17065Y-5107
X17065Y-5107
X17065Y-12107
X17065Y-12107
X18065Y-10107
X18065Y-10107
X1065Y-16107
X1065Y-16107
X10065Y-8107
X10065Y-8107
X18065Y-17107
X18065Y-17107
X16065Y-5107
X16065Y-5107
X15065Y-15107
X15065Y-15107
X11065Y-15107
X11065Y-15107
X7065Y-15107
X7065Y-15107
X19065Y-8107
X19065Y-8107
X16065Y-11107
X16065Y-11107
X18065Y-9107
X18065Y-9107
X17065Y-6107
X17065Y-6107
X9065Y-8107
X9065Y-8107
X8065Y-12107
X8065Y-12107
X10065Y-5107
X10065Y-5107
X13065Y-11107
X13065Y-11107
X9065Y-15107
X9065Y-15107
X6065Y-11107
X6065Y-11107
X17065Y-5107
X17065Y-5107
X8065Y-10107
X8065Y-10107
X8065Y-9107
X8065Y-9107
X7065Y-13107
X7065Y-13107
X5065Y-8107
X5065Y-8107
X11065Y-13107
X11065Y-13107
X5065Y-13107
X5065Y-13107
X17065Y-7107
X17065Y-7107
X10065Y-10107
X10065Y-10107
X6065Y-5107
X6065Y-5107
X15065Y-13107
X15065Y-13107
X19065Y-9107
X19065Y-9107
X16065Y-6107
X16065Y-6107
X1065Y-5107
X1065Y-5107
X11065Y-11107
X11065Y-11107
X12065Y-5107
X12065Y-5107
X11065Y-13107
X11065Y-13107
X4065Y-7107
X4065Y-7107
X10065Y-13107
X10065Y-13107
X4065Y-12107
X4065Y-12107
X6065Y-10107
X6065Y-10107
X15065Y-13107
X15065Y-13107
X17065Y-14107
X17065Y-14107
X5065Y-12107
X5065Y-12107
X17065Y-17107
X17065Y-17107
X1065Y-9107
X1065Y-9107
X1065Y-9107
X1065Y-9107
X5065Y-9107
X5065Y-9107
X5065Y-11107
X5065Y-11107
X1065Y-8107
X1065Y-8107
X13065Y-15107
X13065Y-15107
X17065Y-15107
X17065Y-15107
X13065Y-7107
X13065Y-7107
X9065Y-17107
X9065Y-17107
X7065Y-17107
X7065Y-17107
X12065Y-11107
X12065Y-11107
X18065Y-11107
X18065Y-11107
X16065Y-8107
X16065Y-8107
X2065Y-12107
X2065Y-12107
X13065Y-12107
X13065Y-12107
X18065Y-12107
X18065Y-12107
X14065Y-8107
X14065Y-8107
X7065Y-15107
X7065Y-15107
X4065Y-13107
X4065Y-13107
X16065Y-7107
X16065Y-7107
X17065Y-11107
X17065Y-11107
X15065Y-8107
X15065Y-8107
X18065Y-6107
X18065Y-6107
X9065Y-5107
X9065Y-5107
X3065Y-8107
X3065Y-8107
X14065Y-12107
X14065Y-12107
T2
X1969Y0
X17717Y0
T0
M30
